%
M48
M72
T01C0.0236
T02C0.0360
T03C0.0520
T04C0.1000
T05C0.1800
%
T01
X8982Y5394
X14734Y5217
X20258Y5158
X23014Y7520
X29451Y9788
X20313Y13725
X27982Y16087
X7502Y10134
X5502Y12134
X1345Y9150
T02
X9445Y18138
X10233Y18138
X11020Y18138
X11808Y18138
X12595Y18138
X13382Y18138
X14170Y18138
X14957Y18138
X15745Y18138
X16532Y18138
X17319Y18138
T03
X30982Y19894
X3582Y18494
T04
X1482Y17394
X2082Y15194
X12482Y14794
X20782Y11594
X12282Y5994
X10382Y6994
X15482Y4094
X31382Y8094
X31882Y11594
X31382Y17094
T05
X26982Y6894
M30
