G75*
%MOIN*%
%OFA0B0*%
%FSLAX25Y25*%
%IPPOS*%
%LPD*%
%AMOC8*
5,1,8,0,0,1.08239X$1,22.5*
%
%ADD10R,0.05600X0.05600*%
%ADD11C,0.05600*%
%ADD12C,0.01600*%
%ADD13R,0.01600X0.03200*%
%ADD14R,0.07500X0.07500*%
%ADD15R,0.03200X0.01600*%
%ADD16C,0.07800*%
%ADD17C,0.01000*%
%ADD18C,0.03562*%
D10*
X0094454Y0181379D03*
D11*
X0102328Y0181379D03*
X0110202Y0181379D03*
X0118076Y0181379D03*
X0125950Y0181379D03*
X0133824Y0181379D03*
X0141698Y0181379D03*
X0149572Y0181379D03*
X0157446Y0181379D03*
X0165320Y0181379D03*
X0173194Y0181379D03*
D12*
X0173194Y0138722D01*
X0181989Y0129927D01*
X0221359Y0129927D01*
X0237107Y0145675D01*
X0292225Y0145675D01*
X0292824Y0145076D01*
X0292824Y0141942D01*
X0289824Y0141942D02*
X0295824Y0141942D01*
X0295824Y0120942D01*
X0298824Y0117942D02*
X0292824Y0117942D01*
X0292824Y0105911D01*
X0292824Y0117942D02*
X0286824Y0117942D01*
X0280824Y0123942D01*
X0280824Y0132942D01*
X0280824Y0135942D02*
X0283824Y0138942D01*
X0283824Y0125442D01*
X0289824Y0120942D02*
X0289824Y0141942D01*
X0286824Y0141942D01*
X0283824Y0138942D01*
X0286824Y0137442D02*
X0286824Y0117942D01*
X0292824Y0117942D02*
X0292824Y0138942D01*
X0295824Y0141942D02*
X0298824Y0141942D01*
X0301824Y0138942D01*
X0304824Y0135942D01*
X0304824Y0132942D02*
X0304824Y0123942D01*
X0298824Y0117942D01*
X0298824Y0137442D01*
X0301824Y0138942D02*
X0301824Y0125442D01*
X0247824Y0108942D02*
X0244824Y0111942D01*
X0244824Y0098442D01*
X0247824Y0096942D02*
X0247824Y0105942D01*
X0244824Y0111942D02*
X0241824Y0114942D01*
X0238824Y0114942D01*
X0238824Y0093942D01*
X0241824Y0090942D02*
X0235824Y0090942D01*
X0235824Y0078942D01*
X0235824Y0090942D02*
X0229824Y0090942D01*
X0223824Y0096942D01*
X0223824Y0105942D01*
X0223824Y0108942D02*
X0226824Y0111942D01*
X0226824Y0098442D01*
X0232824Y0093942D02*
X0232824Y0114942D01*
X0238824Y0114942D01*
X0235824Y0114942D02*
X0235824Y0121368D01*
X0233170Y0124021D01*
X0176083Y0124021D01*
X0165320Y0134785D01*
X0165320Y0181379D01*
X0157446Y0181379D02*
X0157446Y0186092D01*
X0160335Y0189982D01*
X0205611Y0189982D01*
X0211009Y0183584D01*
X0211009Y0172840D01*
X0208009Y0172840D02*
X0214009Y0172840D01*
X0214009Y0151840D01*
X0217009Y0148840D02*
X0211009Y0148840D01*
X0211009Y0137801D01*
X0211009Y0148840D02*
X0205009Y0148840D01*
X0199009Y0154840D01*
X0199009Y0163840D01*
X0199009Y0166840D02*
X0202009Y0169840D01*
X0202009Y0156340D01*
X0208009Y0151840D02*
X0208009Y0172840D01*
X0205009Y0172840D01*
X0202009Y0169840D01*
X0205009Y0168340D02*
X0205009Y0148840D01*
X0211009Y0148840D02*
X0211009Y0169840D01*
X0214009Y0172840D02*
X0217009Y0172840D01*
X0220009Y0169840D01*
X0223009Y0166840D01*
X0220009Y0169840D02*
X0220009Y0156340D01*
X0223009Y0154840D02*
X0223009Y0163840D01*
X0217009Y0168340D02*
X0217009Y0148840D01*
X0223009Y0154840D01*
X0256009Y0181840D02*
X0262009Y0175840D01*
X0262009Y0195340D01*
X0259009Y0196840D02*
X0256009Y0193840D01*
X0256009Y0190840D02*
X0256009Y0181840D01*
X0259009Y0183340D02*
X0259009Y0196840D01*
X0262009Y0199840D01*
X0265009Y0199840D01*
X0265009Y0178840D01*
X0268009Y0175840D02*
X0262009Y0175840D01*
X0268009Y0175840D02*
X0268009Y0163391D01*
X0268009Y0175840D02*
X0268009Y0196840D01*
X0274009Y0195340D02*
X0274009Y0175840D01*
X0280009Y0181840D01*
X0280009Y0190840D01*
X0280009Y0193840D02*
X0277009Y0196840D01*
X0277009Y0183340D01*
X0271009Y0178840D02*
X0271009Y0199840D01*
X0274009Y0199840D01*
X0277009Y0196840D01*
X0271009Y0199840D02*
X0265009Y0199840D01*
X0268009Y0199840D02*
X0268009Y0203356D01*
X0266635Y0204730D01*
X0244981Y0204730D01*
X0233170Y0194887D01*
X0156398Y0194887D01*
X0149572Y0188060D01*
X0149572Y0181379D01*
X0141698Y0181379D02*
X0141698Y0170218D01*
X0150493Y0161423D01*
X0150493Y0083273D01*
X0181387Y0052379D01*
X0181387Y0032716D01*
X0178352Y0033673D02*
X0176967Y0036334D01*
X0174944Y0036972D01*
X0160308Y0029353D01*
X0159670Y0027330D01*
X0161055Y0024669D01*
X0163133Y0020677D02*
X0171226Y0018126D01*
X0177295Y0016212D02*
X0178680Y0013551D01*
X0180704Y0012913D01*
X0195339Y0020532D01*
X0195977Y0022555D01*
X0194592Y0025216D01*
X0199331Y0022610D02*
X0203322Y0024688D01*
X0203960Y0026711D01*
X0198419Y0037355D01*
X0196396Y0037993D01*
X0193735Y0036607D01*
X0190700Y0037564D02*
X0202324Y0043942D01*
X0189744Y0034530D02*
X0187192Y0026437D01*
X0183200Y0024359D02*
X0179154Y0025635D01*
X0176493Y0024250D01*
X0172447Y0025526D01*
X0167982Y0011364D02*
X0174051Y0009450D01*
X0176712Y0010835D01*
X0180758Y0009559D01*
X0198055Y0018563D01*
X0199331Y0022610D01*
X0143960Y0026711D02*
X0138419Y0037355D01*
X0136396Y0037993D01*
X0133735Y0036607D01*
X0130700Y0037564D02*
X0142324Y0043942D01*
X0129744Y0034530D02*
X0127192Y0026437D01*
X0123200Y0024359D02*
X0119154Y0025635D01*
X0116493Y0024250D01*
X0112447Y0025526D01*
X0111226Y0018126D02*
X0103133Y0020677D01*
X0101055Y0024669D02*
X0099670Y0027330D01*
X0100308Y0029353D01*
X0114944Y0036972D01*
X0116967Y0036334D01*
X0118352Y0033673D01*
X0121387Y0032716D02*
X0121387Y0042505D01*
X0136713Y0057832D01*
X0136713Y0171265D01*
X0133824Y0174155D01*
X0133824Y0181379D01*
X0125950Y0181379D02*
X0125950Y0164438D01*
X0115060Y0153549D01*
X0115060Y0110942D01*
X0110824Y0110942D01*
X0110824Y0113942D02*
X0110824Y0107942D01*
X0089824Y0107942D01*
X0086824Y0104942D02*
X0092824Y0098942D01*
X0101824Y0098942D01*
X0104824Y0098942D02*
X0107824Y0101942D01*
X0094324Y0101942D01*
X0086824Y0104942D02*
X0106324Y0104942D01*
X0107824Y0101942D02*
X0110824Y0104942D01*
X0110824Y0107942D01*
X0107824Y0110942D02*
X0086824Y0110942D01*
X0074824Y0110942D01*
X0062824Y0105249D02*
X0062824Y0086942D01*
X0059824Y0086942D02*
X0065824Y0086942D01*
X0065824Y0065942D01*
X0068824Y0062942D02*
X0062824Y0062942D01*
X0062824Y0055919D01*
X0062824Y0062942D02*
X0056824Y0062942D01*
X0050824Y0068942D01*
X0050824Y0077942D01*
X0050824Y0080942D02*
X0053824Y0083942D01*
X0053824Y0070442D01*
X0059824Y0065942D02*
X0059824Y0086942D01*
X0056824Y0086942D01*
X0053824Y0083942D01*
X0056824Y0082442D02*
X0056824Y0062942D01*
X0062824Y0062942D02*
X0062824Y0083942D01*
X0065824Y0086942D02*
X0068824Y0086942D01*
X0071824Y0083942D01*
X0074824Y0080942D01*
X0074824Y0077942D02*
X0074824Y0068942D01*
X0068824Y0062942D01*
X0068824Y0082442D01*
X0071824Y0083942D02*
X0071824Y0070442D01*
X0035824Y0101942D02*
X0032824Y0098942D01*
X0029824Y0098942D02*
X0020824Y0098942D01*
X0014824Y0104942D01*
X0034324Y0104942D01*
X0035824Y0101942D02*
X0022324Y0101942D01*
X0017824Y0107942D02*
X0038824Y0107942D01*
X0038824Y0104942D01*
X0035824Y0101942D01*
X0038824Y0107942D02*
X0038824Y0113942D01*
X0017824Y0113942D01*
X0014824Y0110942D02*
X0007580Y0110942D01*
X0014824Y0110942D02*
X0035824Y0110942D01*
X0038824Y0110942D02*
X0056706Y0110942D01*
X0102328Y0156564D01*
X0102328Y0181379D01*
X0110202Y0181379D02*
X0110202Y0185966D01*
X0107186Y0188982D01*
X0079627Y0188982D01*
X0063824Y0173179D01*
X0063824Y0158942D01*
X0060824Y0158942D02*
X0066824Y0158942D01*
X0066824Y0137942D01*
X0069824Y0134942D02*
X0063824Y0134942D01*
X0063824Y0124942D01*
X0063824Y0134942D02*
X0057824Y0134942D01*
X0051824Y0140942D01*
X0051824Y0149942D01*
X0051824Y0152942D02*
X0054824Y0155942D01*
X0054824Y0142442D01*
X0060824Y0137942D02*
X0060824Y0158942D01*
X0057824Y0158942D01*
X0054824Y0155942D01*
X0057824Y0154442D02*
X0057824Y0134942D01*
X0063824Y0134942D02*
X0063824Y0155942D01*
X0066824Y0158942D02*
X0069824Y0158942D01*
X0072824Y0155942D01*
X0075824Y0152942D01*
X0075824Y0149942D02*
X0075824Y0140942D01*
X0069824Y0134942D01*
X0069824Y0154442D01*
X0072824Y0155942D02*
X0072824Y0142442D01*
X0092824Y0122942D02*
X0101824Y0122942D01*
X0104824Y0122942D02*
X0107824Y0119942D01*
X0094324Y0119942D01*
X0092824Y0122942D02*
X0086824Y0116942D01*
X0106324Y0116942D01*
X0107824Y0119942D02*
X0110824Y0116942D01*
X0110824Y0113942D01*
X0089824Y0113942D01*
X0086824Y0110942D02*
X0086824Y0116942D01*
X0086824Y0110942D02*
X0086824Y0104942D01*
X0062824Y0105249D02*
X0107186Y0149612D01*
X0107186Y0157486D01*
X0118076Y0168375D01*
X0118076Y0181379D01*
X0035824Y0119942D02*
X0032824Y0122942D01*
X0029824Y0122942D02*
X0020824Y0122942D01*
X0014824Y0116942D01*
X0034324Y0116942D01*
X0035824Y0119942D02*
X0022324Y0119942D01*
X0014824Y0116942D02*
X0014824Y0110942D01*
X0014824Y0104942D01*
X0038824Y0113942D02*
X0038824Y0116942D01*
X0035824Y0119942D01*
X0143960Y0026711D02*
X0143322Y0024688D01*
X0139331Y0022610D01*
X0138055Y0018563D01*
X0120758Y0009559D01*
X0116712Y0010835D01*
X0114051Y0009450D01*
X0107982Y0011364D01*
X0117295Y0016212D02*
X0118680Y0013551D01*
X0120704Y0012913D01*
X0135339Y0020532D01*
X0135977Y0022555D01*
X0134592Y0025216D01*
X0229824Y0090942D02*
X0229824Y0110442D01*
X0226824Y0111942D02*
X0229824Y0114942D01*
X0232824Y0114942D01*
X0235824Y0111942D02*
X0235824Y0090942D01*
X0229824Y0090942D01*
X0241824Y0090942D02*
X0247824Y0096942D01*
X0241824Y0090942D02*
X0241824Y0110442D01*
X0268009Y0175840D02*
X0274009Y0175840D01*
D13*
X0110824Y0110942D03*
X0086824Y0110942D03*
X0038824Y0110942D03*
X0014824Y0110942D03*
D14*
G36*
X0126444Y0031122D02*
X0119793Y0027659D01*
X0116330Y0034310D01*
X0122981Y0037773D01*
X0126444Y0031122D01*
G37*
G36*
X0126444Y0031122D02*
X0119793Y0027659D01*
X0116330Y0034310D01*
X0122981Y0037773D01*
X0126444Y0031122D01*
G37*
G36*
X0135757Y0035970D02*
X0129106Y0032507D01*
X0125643Y0039158D01*
X0132294Y0042621D01*
X0135757Y0035970D01*
G37*
G36*
X0135757Y0035970D02*
X0129106Y0032507D01*
X0125643Y0039158D01*
X0132294Y0042621D01*
X0135757Y0035970D01*
G37*
G36*
X0140606Y0026657D02*
X0133955Y0023194D01*
X0130492Y0029845D01*
X0137143Y0033308D01*
X0140606Y0026657D01*
G37*
G36*
X0131292Y0021808D02*
X0124641Y0018345D01*
X0121178Y0024996D01*
X0127829Y0028459D01*
X0131292Y0021808D01*
G37*
G36*
X0119317Y0015575D02*
X0112666Y0012112D01*
X0109203Y0018763D01*
X0115854Y0022226D01*
X0119317Y0015575D01*
G37*
G36*
X0110004Y0010726D02*
X0103353Y0007263D01*
X0099890Y0013914D01*
X0106541Y0017377D01*
X0110004Y0010726D01*
G37*
G36*
X0105155Y0020040D02*
X0098504Y0016577D01*
X0095041Y0023228D01*
X0101692Y0026691D01*
X0105155Y0020040D01*
G37*
G36*
X0114469Y0024888D02*
X0107818Y0021425D01*
X0104355Y0028076D01*
X0111006Y0031539D01*
X0114469Y0024888D01*
G37*
G36*
X0165155Y0020040D02*
X0158504Y0016577D01*
X0155041Y0023228D01*
X0161692Y0026691D01*
X0165155Y0020040D01*
G37*
G36*
X0174469Y0024888D02*
X0167818Y0021425D01*
X0164355Y0028076D01*
X0171006Y0031539D01*
X0174469Y0024888D01*
G37*
G36*
X0179317Y0015575D02*
X0172666Y0012112D01*
X0169203Y0018763D01*
X0175854Y0022226D01*
X0179317Y0015575D01*
G37*
G36*
X0191292Y0021808D02*
X0184641Y0018345D01*
X0181178Y0024996D01*
X0187829Y0028459D01*
X0191292Y0021808D01*
G37*
G36*
X0200606Y0026657D02*
X0193955Y0023194D01*
X0190492Y0029845D01*
X0197143Y0033308D01*
X0200606Y0026657D01*
G37*
G36*
X0195757Y0035970D02*
X0189106Y0032507D01*
X0185643Y0039158D01*
X0192294Y0042621D01*
X0195757Y0035970D01*
G37*
G36*
X0195757Y0035970D02*
X0189106Y0032507D01*
X0185643Y0039158D01*
X0192294Y0042621D01*
X0195757Y0035970D01*
G37*
G36*
X0186444Y0031122D02*
X0179793Y0027659D01*
X0176330Y0034310D01*
X0182981Y0037773D01*
X0186444Y0031122D01*
G37*
G36*
X0186444Y0031122D02*
X0179793Y0027659D01*
X0176330Y0034310D01*
X0182981Y0037773D01*
X0186444Y0031122D01*
G37*
G36*
X0170004Y0010726D02*
X0163353Y0007263D01*
X0159890Y0013914D01*
X0166541Y0017377D01*
X0170004Y0010726D01*
G37*
D15*
X0062824Y0062942D03*
X0062824Y0086942D03*
X0063824Y0134942D03*
X0063824Y0158942D03*
X0211009Y0148840D03*
X0211009Y0172840D03*
X0268009Y0175840D03*
X0268009Y0199840D03*
X0292824Y0141942D03*
X0292824Y0117942D03*
X0235824Y0114942D03*
X0235824Y0090942D03*
D16*
X0305924Y0198942D02*
X0313724Y0198942D01*
X0039724Y0184942D02*
X0031924Y0184942D01*
D17*
X0006924Y0084812D02*
X0038693Y0053042D01*
X0078693Y0053042D01*
X0090693Y0041042D01*
X0090693Y0041042D01*
X0091924Y0039812D01*
X0091924Y0006042D01*
X0101620Y0006042D01*
X0097625Y0013717D01*
X0097893Y0014567D01*
X0097043Y0014835D01*
X0092776Y0023031D01*
X0093299Y0024690D01*
X0096829Y0026527D01*
X0096731Y0027652D01*
X0096744Y0027694D01*
X0097078Y0028752D01*
X0097078Y0028752D01*
X0097531Y0030189D01*
X0097716Y0030775D01*
X0098060Y0031185D01*
X0098457Y0031659D01*
X0099481Y0032192D01*
X0099481Y0032192D01*
X0113093Y0039278D01*
X0113093Y0039278D01*
X0114116Y0039810D01*
X0115266Y0039911D01*
X0115286Y0039904D01*
X0116366Y0039564D01*
X0116366Y0039564D01*
X0118347Y0038939D01*
X0118389Y0038926D01*
X0118487Y0038844D01*
X0118487Y0043082D01*
X0118928Y0044148D01*
X0133813Y0059033D01*
X0133813Y0170064D01*
X0132181Y0171696D01*
X0131365Y0172512D01*
X0130924Y0173578D01*
X0130924Y0177350D01*
X0129887Y0178387D01*
X0128850Y0177350D01*
X0128850Y0163862D01*
X0128408Y0162796D01*
X0127592Y0161980D01*
X0117960Y0152347D01*
X0117960Y0149925D01*
X0118805Y0151964D01*
X0120802Y0153961D01*
X0123411Y0155042D01*
X0126236Y0155042D01*
X0128845Y0153961D01*
X0130843Y0151964D01*
X0131924Y0149355D01*
X0131924Y0146530D01*
X0130843Y0143921D01*
X0128845Y0141923D01*
X0126236Y0140842D01*
X0123411Y0140842D01*
X0120802Y0141923D01*
X0118805Y0143921D01*
X0117960Y0145960D01*
X0117960Y0110366D01*
X0117518Y0109300D01*
X0117174Y0108955D01*
X0117174Y0108527D01*
X0115923Y0103860D01*
X0113507Y0099675D01*
X0110091Y0096259D01*
X0105906Y0093843D01*
X0101239Y0092592D01*
X0096408Y0092592D01*
X0091741Y0093843D01*
X0087556Y0096259D01*
X0084140Y0099675D01*
X0081724Y0103860D01*
X0080474Y0108527D01*
X0080474Y0113358D01*
X0081724Y0118025D01*
X0084140Y0122210D01*
X0087556Y0125626D01*
X0091741Y0128042D01*
X0096408Y0129292D01*
X0101239Y0129292D01*
X0105906Y0128042D01*
X0110091Y0125626D01*
X0112160Y0123557D01*
X0112160Y0154126D01*
X0112601Y0155191D01*
X0113417Y0156007D01*
X0113417Y0156007D01*
X0123050Y0165640D01*
X0123050Y0177350D01*
X0122013Y0178387D01*
X0120976Y0177350D01*
X0120976Y0167799D01*
X0120534Y0166733D01*
X0119718Y0165917D01*
X0119718Y0165917D01*
X0110086Y0156284D01*
X0110086Y0149035D01*
X0109644Y0147969D01*
X0065724Y0104048D01*
X0065724Y0093163D01*
X0069906Y0092042D01*
X0074091Y0089626D01*
X0077507Y0086210D01*
X0079923Y0082025D01*
X0081174Y0077358D01*
X0081174Y0072527D01*
X0079923Y0067860D01*
X0077507Y0063675D01*
X0074091Y0060259D01*
X0069906Y0057843D01*
X0065239Y0056592D01*
X0060408Y0056592D01*
X0055741Y0057843D01*
X0051556Y0060259D01*
X0048140Y0063675D01*
X0045724Y0067860D01*
X0044474Y0072527D01*
X0044474Y0077358D01*
X0045724Y0082025D01*
X0048140Y0086210D01*
X0051556Y0089626D01*
X0055741Y0092042D01*
X0059924Y0093163D01*
X0059924Y0105826D01*
X0060365Y0106892D01*
X0104286Y0150813D01*
X0104286Y0154421D01*
X0058348Y0108484D01*
X0057282Y0108042D01*
X0045044Y0108042D01*
X0043923Y0103860D01*
X0041507Y0099675D01*
X0038091Y0096259D01*
X0033906Y0093843D01*
X0029239Y0092592D01*
X0024408Y0092592D01*
X0019741Y0093843D01*
X0015556Y0096259D01*
X0012140Y0099675D01*
X0009724Y0103860D01*
X0008474Y0108527D01*
X0008474Y0113358D01*
X0009724Y0118025D01*
X0012140Y0122210D01*
X0015556Y0125626D01*
X0019741Y0128042D01*
X0024408Y0129292D01*
X0029239Y0129292D01*
X0033906Y0128042D01*
X0038091Y0125626D01*
X0041507Y0122210D01*
X0043923Y0118025D01*
X0045044Y0113842D01*
X0055504Y0113842D01*
X0072322Y0130660D01*
X0070906Y0129843D01*
X0066239Y0128592D01*
X0061408Y0128592D01*
X0056741Y0129843D01*
X0052556Y0132259D01*
X0049140Y0135675D01*
X0046724Y0139860D01*
X0045474Y0144527D01*
X0045474Y0149358D01*
X0046724Y0154025D01*
X0049140Y0158210D01*
X0052556Y0161626D01*
X0056741Y0164042D01*
X0060924Y0165163D01*
X0060924Y0173755D01*
X0061365Y0174821D01*
X0077168Y0190624D01*
X0077363Y0190819D01*
X0006924Y0190819D01*
X0006924Y0084812D01*
X0006924Y0084822D02*
X0047339Y0084822D01*
X0047915Y0085820D02*
X0006924Y0085820D01*
X0006924Y0086819D02*
X0048749Y0086819D01*
X0049748Y0087817D02*
X0006924Y0087817D01*
X0006924Y0088816D02*
X0050746Y0088816D01*
X0051883Y0089814D02*
X0006924Y0089814D01*
X0006924Y0090813D02*
X0053612Y0090813D01*
X0055342Y0091811D02*
X0006924Y0091811D01*
X0006924Y0092810D02*
X0023596Y0092810D01*
X0019870Y0093808D02*
X0006924Y0093808D01*
X0006924Y0094807D02*
X0018071Y0094807D01*
X0016342Y0095805D02*
X0006924Y0095805D01*
X0006924Y0096804D02*
X0015011Y0096804D01*
X0014013Y0097802D02*
X0006924Y0097802D01*
X0006924Y0098801D02*
X0013014Y0098801D01*
X0012068Y0099799D02*
X0006924Y0099799D01*
X0006924Y0100798D02*
X0011492Y0100798D01*
X0010915Y0101796D02*
X0006924Y0101796D01*
X0006924Y0102795D02*
X0010339Y0102795D01*
X0009762Y0103793D02*
X0006924Y0103793D01*
X0006924Y0104792D02*
X0009474Y0104792D01*
X0009207Y0105791D02*
X0006924Y0105791D01*
X0006924Y0106789D02*
X0008939Y0106789D01*
X0008672Y0107788D02*
X0006924Y0107788D01*
X0006924Y0108786D02*
X0008474Y0108786D01*
X0008474Y0109785D02*
X0006924Y0109785D01*
X0006924Y0110783D02*
X0008474Y0110783D01*
X0008474Y0111782D02*
X0006924Y0111782D01*
X0006924Y0112780D02*
X0008474Y0112780D01*
X0008586Y0113779D02*
X0006924Y0113779D01*
X0006924Y0114777D02*
X0008854Y0114777D01*
X0009121Y0115776D02*
X0006924Y0115776D01*
X0006924Y0116774D02*
X0009389Y0116774D01*
X0009656Y0117773D02*
X0006924Y0117773D01*
X0006924Y0118771D02*
X0010155Y0118771D01*
X0010731Y0119770D02*
X0006924Y0119770D01*
X0006924Y0120768D02*
X0011308Y0120768D01*
X0011884Y0121767D02*
X0006924Y0121767D01*
X0006924Y0122765D02*
X0012696Y0122765D01*
X0013694Y0123764D02*
X0006924Y0123764D01*
X0006924Y0124762D02*
X0014693Y0124762D01*
X0015790Y0125761D02*
X0006924Y0125761D01*
X0006924Y0126759D02*
X0017519Y0126759D01*
X0019249Y0127758D02*
X0006924Y0127758D01*
X0006924Y0128756D02*
X0022407Y0128756D01*
X0031240Y0128756D02*
X0060796Y0128756D01*
X0057070Y0129755D02*
X0006924Y0129755D01*
X0006924Y0130753D02*
X0055164Y0130753D01*
X0053434Y0131752D02*
X0006924Y0131752D01*
X0006924Y0132750D02*
X0052065Y0132750D01*
X0051066Y0133749D02*
X0006924Y0133749D01*
X0006924Y0134747D02*
X0050068Y0134747D01*
X0049099Y0135746D02*
X0006924Y0135746D01*
X0006924Y0136744D02*
X0048523Y0136744D01*
X0047946Y0137743D02*
X0006924Y0137743D01*
X0006924Y0138741D02*
X0047370Y0138741D01*
X0046793Y0139740D02*
X0006924Y0139740D01*
X0006924Y0140738D02*
X0046489Y0140738D01*
X0046221Y0141737D02*
X0006924Y0141737D01*
X0006924Y0142735D02*
X0045954Y0142735D01*
X0045686Y0143734D02*
X0006924Y0143734D01*
X0006924Y0144732D02*
X0045474Y0144732D01*
X0045474Y0145731D02*
X0024381Y0145731D01*
X0024845Y0145923D02*
X0026843Y0147921D01*
X0027924Y0150530D01*
X0027924Y0153355D01*
X0026843Y0155964D01*
X0024845Y0157961D01*
X0022236Y0159042D01*
X0019411Y0159042D01*
X0016802Y0157961D01*
X0014805Y0155964D01*
X0013724Y0153355D01*
X0013724Y0150530D01*
X0014805Y0147921D01*
X0016802Y0145923D01*
X0019411Y0144842D01*
X0022236Y0144842D01*
X0024845Y0145923D01*
X0025652Y0146729D02*
X0045474Y0146729D01*
X0045474Y0147728D02*
X0026650Y0147728D01*
X0027177Y0148727D02*
X0045474Y0148727D01*
X0045572Y0149725D02*
X0027590Y0149725D01*
X0027924Y0150724D02*
X0045839Y0150724D01*
X0046107Y0151722D02*
X0027924Y0151722D01*
X0027924Y0152721D02*
X0046375Y0152721D01*
X0046642Y0153719D02*
X0027773Y0153719D01*
X0027359Y0154718D02*
X0047124Y0154718D01*
X0047700Y0155716D02*
X0026945Y0155716D01*
X0026092Y0156715D02*
X0048277Y0156715D01*
X0048853Y0157713D02*
X0025094Y0157713D01*
X0023034Y0158712D02*
X0049642Y0158712D01*
X0050641Y0159710D02*
X0006924Y0159710D01*
X0006924Y0158712D02*
X0018613Y0158712D01*
X0016553Y0157713D02*
X0006924Y0157713D01*
X0006924Y0156715D02*
X0015555Y0156715D01*
X0014702Y0155716D02*
X0006924Y0155716D01*
X0006924Y0154718D02*
X0014288Y0154718D01*
X0013875Y0153719D02*
X0006924Y0153719D01*
X0006924Y0152721D02*
X0013724Y0152721D01*
X0013724Y0151722D02*
X0006924Y0151722D01*
X0006924Y0150724D02*
X0013724Y0150724D01*
X0014057Y0149725D02*
X0006924Y0149725D01*
X0006924Y0148727D02*
X0014471Y0148727D01*
X0014997Y0147728D02*
X0006924Y0147728D01*
X0006924Y0146729D02*
X0015996Y0146729D01*
X0017266Y0145731D02*
X0006924Y0145731D01*
X0006924Y0160709D02*
X0051639Y0160709D01*
X0052697Y0161707D02*
X0006924Y0161707D01*
X0006924Y0162706D02*
X0054426Y0162706D01*
X0056156Y0163704D02*
X0006924Y0163704D01*
X0006924Y0164703D02*
X0059207Y0164703D01*
X0060924Y0165701D02*
X0006924Y0165701D01*
X0006924Y0166700D02*
X0060924Y0166700D01*
X0060924Y0167698D02*
X0018302Y0167698D01*
X0018845Y0167923D02*
X0020843Y0169921D01*
X0021924Y0172530D01*
X0021924Y0175355D01*
X0020843Y0177964D01*
X0018845Y0179961D01*
X0016236Y0181042D01*
X0013411Y0181042D01*
X0010802Y0179961D01*
X0008805Y0177964D01*
X0007724Y0175355D01*
X0007724Y0172530D01*
X0008805Y0169921D01*
X0010802Y0167923D01*
X0013411Y0166842D01*
X0016236Y0166842D01*
X0018845Y0167923D01*
X0019619Y0168697D02*
X0060924Y0168697D01*
X0060924Y0169695D02*
X0020617Y0169695D01*
X0021163Y0170694D02*
X0060924Y0170694D01*
X0060924Y0171692D02*
X0021577Y0171692D01*
X0021924Y0172691D02*
X0060924Y0172691D01*
X0060924Y0173689D02*
X0021924Y0173689D01*
X0021924Y0174688D02*
X0061310Y0174688D01*
X0062230Y0175686D02*
X0021786Y0175686D01*
X0021373Y0176685D02*
X0063229Y0176685D01*
X0064227Y0177683D02*
X0020959Y0177683D01*
X0020125Y0178682D02*
X0065226Y0178682D01*
X0066224Y0179680D02*
X0041004Y0179680D01*
X0040988Y0179675D02*
X0041796Y0179938D01*
X0042554Y0180324D01*
X0043241Y0180823D01*
X0043843Y0181424D01*
X0044342Y0182112D01*
X0044728Y0182869D01*
X0044991Y0183678D01*
X0045112Y0184442D01*
X0036324Y0184442D01*
X0036324Y0185442D01*
X0045112Y0185442D01*
X0044991Y0186207D01*
X0044728Y0187015D01*
X0044342Y0187773D01*
X0043843Y0188460D01*
X0043241Y0189061D01*
X0042554Y0189561D01*
X0041796Y0189947D01*
X0040988Y0190209D01*
X0040149Y0190342D01*
X0036324Y0190342D01*
X0036324Y0185442D01*
X0035324Y0185442D01*
X0035324Y0190342D01*
X0031499Y0190342D01*
X0030659Y0190209D01*
X0029851Y0189947D01*
X0029093Y0189561D01*
X0028406Y0189061D01*
X0027805Y0188460D01*
X0027305Y0187773D01*
X0026919Y0187015D01*
X0026657Y0186207D01*
X0026535Y0185442D01*
X0035324Y0185442D01*
X0035324Y0184442D01*
X0036324Y0184442D01*
X0036324Y0179542D01*
X0040149Y0179542D01*
X0040988Y0179675D01*
X0043042Y0180679D02*
X0067223Y0180679D01*
X0068221Y0181677D02*
X0044026Y0181677D01*
X0044629Y0182676D02*
X0069220Y0182676D01*
X0070218Y0183674D02*
X0044990Y0183674D01*
X0045075Y0185671D02*
X0072215Y0185671D01*
X0071217Y0184673D02*
X0036324Y0184673D01*
X0036324Y0185671D02*
X0035324Y0185671D01*
X0035324Y0184673D02*
X0006924Y0184673D01*
X0006924Y0185671D02*
X0026572Y0185671D01*
X0026807Y0186670D02*
X0006924Y0186670D01*
X0006924Y0187668D02*
X0027252Y0187668D01*
X0028011Y0188667D02*
X0006924Y0188667D01*
X0006924Y0189665D02*
X0029299Y0189665D01*
X0026535Y0184442D02*
X0026657Y0183678D01*
X0026919Y0182869D01*
X0027305Y0182112D01*
X0027805Y0181424D01*
X0028406Y0180823D01*
X0029093Y0180324D01*
X0029851Y0179938D01*
X0030659Y0179675D01*
X0031499Y0179542D01*
X0035324Y0179542D01*
X0035324Y0184442D01*
X0026535Y0184442D01*
X0026658Y0183674D02*
X0006924Y0183674D01*
X0006924Y0182676D02*
X0027018Y0182676D01*
X0027621Y0181677D02*
X0006924Y0181677D01*
X0006924Y0180679D02*
X0012534Y0180679D01*
X0010521Y0179680D02*
X0006924Y0179680D01*
X0006924Y0178682D02*
X0009522Y0178682D01*
X0008688Y0177683D02*
X0006924Y0177683D01*
X0006924Y0176685D02*
X0008275Y0176685D01*
X0007861Y0175686D02*
X0006924Y0175686D01*
X0006924Y0174688D02*
X0007724Y0174688D01*
X0007724Y0173689D02*
X0006924Y0173689D01*
X0006924Y0172691D02*
X0007724Y0172691D01*
X0008071Y0171692D02*
X0006924Y0171692D01*
X0006924Y0170694D02*
X0008484Y0170694D01*
X0009030Y0169695D02*
X0006924Y0169695D01*
X0006924Y0168697D02*
X0010028Y0168697D01*
X0011345Y0167698D02*
X0006924Y0167698D01*
X0017113Y0180679D02*
X0028605Y0180679D01*
X0030644Y0179680D02*
X0019127Y0179680D01*
X0035324Y0179680D02*
X0036324Y0179680D01*
X0036324Y0180679D02*
X0035324Y0180679D01*
X0035324Y0181677D02*
X0036324Y0181677D01*
X0036324Y0182676D02*
X0035324Y0182676D01*
X0035324Y0183674D02*
X0036324Y0183674D01*
X0036324Y0186670D02*
X0035324Y0186670D01*
X0035324Y0187668D02*
X0036324Y0187668D01*
X0036324Y0188667D02*
X0035324Y0188667D01*
X0035324Y0189665D02*
X0036324Y0189665D01*
X0042349Y0189665D02*
X0076209Y0189665D01*
X0075211Y0188667D02*
X0043636Y0188667D01*
X0044395Y0187668D02*
X0074212Y0187668D01*
X0073214Y0186670D02*
X0044840Y0186670D01*
X0066724Y0171977D02*
X0080828Y0186082D01*
X0100876Y0186082D01*
X0099552Y0185533D01*
X0098678Y0184659D01*
X0098651Y0184758D01*
X0098454Y0185100D01*
X0098175Y0185380D01*
X0097833Y0185577D01*
X0097451Y0185679D01*
X0094854Y0185679D01*
X0094854Y0181779D01*
X0094054Y0181779D01*
X0094053Y0181779D02*
X0094053Y0180979D01*
X0090154Y0180979D01*
X0090154Y0178382D01*
X0090256Y0178000D01*
X0090453Y0177658D01*
X0090733Y0177379D01*
X0091075Y0177182D01*
X0091456Y0177079D01*
X0094054Y0177079D01*
X0094054Y0180979D01*
X0094854Y0180979D01*
X0094854Y0177079D01*
X0097451Y0177079D01*
X0097833Y0177182D01*
X0098175Y0177379D01*
X0098454Y0177658D01*
X0098651Y0178000D01*
X0098678Y0178099D01*
X0099428Y0177350D01*
X0099428Y0157766D01*
X0080106Y0138444D01*
X0080923Y0139860D01*
X0082174Y0144527D01*
X0082174Y0149358D01*
X0080923Y0154025D01*
X0078507Y0158210D01*
X0075091Y0161626D01*
X0070906Y0164042D01*
X0066724Y0165163D01*
X0066724Y0171977D01*
X0066724Y0171692D02*
X0099428Y0171692D01*
X0099428Y0170694D02*
X0066724Y0170694D01*
X0066724Y0169695D02*
X0099428Y0169695D01*
X0099428Y0168697D02*
X0066724Y0168697D01*
X0066724Y0167698D02*
X0099428Y0167698D01*
X0099428Y0166700D02*
X0066724Y0166700D01*
X0066724Y0165701D02*
X0099428Y0165701D01*
X0099428Y0164703D02*
X0068440Y0164703D01*
X0071491Y0163704D02*
X0099428Y0163704D01*
X0099428Y0162706D02*
X0073221Y0162706D01*
X0074950Y0161707D02*
X0099428Y0161707D01*
X0099428Y0160709D02*
X0076008Y0160709D01*
X0077007Y0159710D02*
X0099428Y0159710D01*
X0099428Y0158712D02*
X0078005Y0158712D01*
X0078794Y0157713D02*
X0099375Y0157713D01*
X0098377Y0156715D02*
X0079370Y0156715D01*
X0079947Y0155716D02*
X0097378Y0155716D01*
X0096380Y0154718D02*
X0080523Y0154718D01*
X0081005Y0153719D02*
X0095381Y0153719D01*
X0094382Y0152721D02*
X0081273Y0152721D01*
X0081540Y0151722D02*
X0093384Y0151722D01*
X0092385Y0150724D02*
X0081808Y0150724D01*
X0082075Y0149725D02*
X0091387Y0149725D01*
X0090388Y0148727D02*
X0082174Y0148727D01*
X0082174Y0147728D02*
X0089390Y0147728D01*
X0088391Y0146729D02*
X0082174Y0146729D01*
X0082174Y0145731D02*
X0087393Y0145731D01*
X0086394Y0144732D02*
X0082174Y0144732D01*
X0081961Y0143734D02*
X0085396Y0143734D01*
X0084397Y0142735D02*
X0081694Y0142735D01*
X0081426Y0141737D02*
X0083399Y0141737D01*
X0082400Y0140738D02*
X0081159Y0140738D01*
X0081402Y0139740D02*
X0080854Y0139740D01*
X0080403Y0138741D02*
X0080278Y0138741D01*
X0084612Y0134747D02*
X0088220Y0134747D01*
X0087222Y0133749D02*
X0083613Y0133749D01*
X0082615Y0132750D02*
X0086223Y0132750D01*
X0085225Y0131752D02*
X0081616Y0131752D01*
X0080618Y0130753D02*
X0084226Y0130753D01*
X0083228Y0129755D02*
X0079619Y0129755D01*
X0078621Y0128756D02*
X0082229Y0128756D01*
X0081231Y0127758D02*
X0077622Y0127758D01*
X0076624Y0126759D02*
X0080232Y0126759D01*
X0079234Y0125761D02*
X0075625Y0125761D01*
X0074627Y0124762D02*
X0078235Y0124762D01*
X0077237Y0123764D02*
X0073628Y0123764D01*
X0072630Y0122765D02*
X0076238Y0122765D01*
X0075240Y0121767D02*
X0071631Y0121767D01*
X0070633Y0120768D02*
X0074241Y0120768D01*
X0073243Y0119770D02*
X0069634Y0119770D01*
X0068636Y0118771D02*
X0072244Y0118771D01*
X0071246Y0117773D02*
X0067637Y0117773D01*
X0066638Y0116774D02*
X0070247Y0116774D01*
X0069249Y0115776D02*
X0065640Y0115776D01*
X0064641Y0114777D02*
X0068250Y0114777D01*
X0067252Y0113779D02*
X0063643Y0113779D01*
X0062644Y0112780D02*
X0066253Y0112780D01*
X0065255Y0111782D02*
X0061646Y0111782D01*
X0060647Y0110783D02*
X0064256Y0110783D01*
X0063258Y0109785D02*
X0059649Y0109785D01*
X0058650Y0108786D02*
X0062259Y0108786D01*
X0061260Y0107788D02*
X0044976Y0107788D01*
X0044708Y0106789D02*
X0060322Y0106789D01*
X0059924Y0105791D02*
X0044440Y0105791D01*
X0044173Y0104792D02*
X0059924Y0104792D01*
X0059924Y0103793D02*
X0043885Y0103793D01*
X0043308Y0102795D02*
X0059924Y0102795D01*
X0059924Y0101796D02*
X0042732Y0101796D01*
X0042155Y0100798D02*
X0059924Y0100798D01*
X0059924Y0099799D02*
X0041579Y0099799D01*
X0040633Y0098801D02*
X0059924Y0098801D01*
X0059924Y0097802D02*
X0039635Y0097802D01*
X0038636Y0096804D02*
X0059924Y0096804D01*
X0059924Y0095805D02*
X0037306Y0095805D01*
X0035576Y0094807D02*
X0059924Y0094807D01*
X0059924Y0093808D02*
X0033778Y0093808D01*
X0030051Y0092810D02*
X0058607Y0092810D01*
X0065724Y0093808D02*
X0091870Y0093808D01*
X0090071Y0094807D02*
X0065724Y0094807D01*
X0065724Y0095805D02*
X0088342Y0095805D01*
X0087011Y0096804D02*
X0065724Y0096804D01*
X0065724Y0097802D02*
X0086013Y0097802D01*
X0085014Y0098801D02*
X0065724Y0098801D01*
X0065724Y0099799D02*
X0084068Y0099799D01*
X0083492Y0100798D02*
X0065724Y0100798D01*
X0065724Y0101796D02*
X0082915Y0101796D01*
X0082339Y0102795D02*
X0065724Y0102795D01*
X0065724Y0103793D02*
X0081762Y0103793D01*
X0081474Y0104792D02*
X0066467Y0104792D01*
X0067466Y0105791D02*
X0081207Y0105791D01*
X0080939Y0106789D02*
X0068464Y0106789D01*
X0069463Y0107788D02*
X0080672Y0107788D01*
X0080474Y0108786D02*
X0070461Y0108786D01*
X0071460Y0109785D02*
X0080474Y0109785D01*
X0080474Y0110783D02*
X0072458Y0110783D01*
X0073457Y0111782D02*
X0080474Y0111782D01*
X0080474Y0112780D02*
X0074455Y0112780D01*
X0075454Y0113779D02*
X0080586Y0113779D01*
X0080854Y0114777D02*
X0076453Y0114777D01*
X0077451Y0115776D02*
X0081121Y0115776D01*
X0081389Y0116774D02*
X0078450Y0116774D01*
X0079448Y0117773D02*
X0081656Y0117773D01*
X0082155Y0118771D02*
X0080447Y0118771D01*
X0081445Y0119770D02*
X0082731Y0119770D01*
X0082444Y0120768D02*
X0083308Y0120768D01*
X0083442Y0121767D02*
X0083884Y0121767D01*
X0084441Y0122765D02*
X0084696Y0122765D01*
X0085439Y0123764D02*
X0085694Y0123764D01*
X0086438Y0124762D02*
X0086693Y0124762D01*
X0087436Y0125761D02*
X0087790Y0125761D01*
X0088435Y0126759D02*
X0089519Y0126759D01*
X0089433Y0127758D02*
X0091249Y0127758D01*
X0090432Y0128756D02*
X0094407Y0128756D01*
X0092429Y0130753D02*
X0112160Y0130753D01*
X0112160Y0129755D02*
X0091430Y0129755D01*
X0093427Y0131752D02*
X0112160Y0131752D01*
X0112160Y0132750D02*
X0094426Y0132750D01*
X0095424Y0133749D02*
X0112160Y0133749D01*
X0112160Y0134747D02*
X0096423Y0134747D01*
X0097421Y0135746D02*
X0112160Y0135746D01*
X0112160Y0136744D02*
X0098420Y0136744D01*
X0099418Y0137743D02*
X0112160Y0137743D01*
X0112160Y0138741D02*
X0100417Y0138741D01*
X0101415Y0139740D02*
X0112160Y0139740D01*
X0112160Y0140738D02*
X0102414Y0140738D01*
X0103412Y0141737D02*
X0112160Y0141737D01*
X0112160Y0142735D02*
X0104411Y0142735D01*
X0105409Y0143734D02*
X0112160Y0143734D01*
X0112160Y0144732D02*
X0106408Y0144732D01*
X0107406Y0145731D02*
X0112160Y0145731D01*
X0112160Y0146729D02*
X0108405Y0146729D01*
X0109403Y0147728D02*
X0112160Y0147728D01*
X0112160Y0148727D02*
X0109958Y0148727D01*
X0110086Y0149725D02*
X0112160Y0149725D01*
X0112160Y0150724D02*
X0110086Y0150724D01*
X0110086Y0151722D02*
X0112160Y0151722D01*
X0112160Y0152721D02*
X0110086Y0152721D01*
X0110086Y0153719D02*
X0112160Y0153719D01*
X0112405Y0154718D02*
X0110086Y0154718D01*
X0110086Y0155716D02*
X0113126Y0155716D01*
X0114125Y0156715D02*
X0110516Y0156715D01*
X0111514Y0157713D02*
X0115123Y0157713D01*
X0116122Y0158712D02*
X0112513Y0158712D01*
X0113511Y0159710D02*
X0117120Y0159710D01*
X0118119Y0160709D02*
X0114510Y0160709D01*
X0115509Y0161707D02*
X0119117Y0161707D01*
X0120116Y0162706D02*
X0116507Y0162706D01*
X0117506Y0163704D02*
X0121114Y0163704D01*
X0122113Y0164703D02*
X0118504Y0164703D01*
X0119503Y0165701D02*
X0123050Y0165701D01*
X0123050Y0166700D02*
X0120501Y0166700D01*
X0120934Y0167698D02*
X0123050Y0167698D01*
X0123050Y0168697D02*
X0120976Y0168697D01*
X0120976Y0169695D02*
X0123050Y0169695D01*
X0123050Y0170694D02*
X0120976Y0170694D01*
X0120976Y0171692D02*
X0123050Y0171692D01*
X0123050Y0172691D02*
X0120976Y0172691D01*
X0120976Y0173689D02*
X0123050Y0173689D01*
X0123050Y0174688D02*
X0120976Y0174688D01*
X0120976Y0175686D02*
X0123050Y0175686D01*
X0123050Y0176685D02*
X0120976Y0176685D01*
X0121309Y0177683D02*
X0122716Y0177683D01*
X0128850Y0176685D02*
X0130924Y0176685D01*
X0130924Y0175686D02*
X0128850Y0175686D01*
X0128850Y0174688D02*
X0130924Y0174688D01*
X0130924Y0173689D02*
X0128850Y0173689D01*
X0128850Y0172691D02*
X0131291Y0172691D01*
X0132185Y0171692D02*
X0128850Y0171692D01*
X0128850Y0170694D02*
X0133184Y0170694D01*
X0133813Y0169695D02*
X0128850Y0169695D01*
X0128850Y0168697D02*
X0133813Y0168697D01*
X0133813Y0167698D02*
X0128850Y0167698D01*
X0128850Y0166700D02*
X0133813Y0166700D01*
X0133813Y0165701D02*
X0128850Y0165701D01*
X0128850Y0164703D02*
X0133813Y0164703D01*
X0133813Y0163704D02*
X0128784Y0163704D01*
X0128318Y0162706D02*
X0133813Y0162706D01*
X0133813Y0161707D02*
X0127320Y0161707D01*
X0126321Y0160709D02*
X0133813Y0160709D01*
X0133813Y0159710D02*
X0125323Y0159710D01*
X0124324Y0158712D02*
X0133813Y0158712D01*
X0133813Y0157713D02*
X0123326Y0157713D01*
X0122327Y0156715D02*
X0133813Y0156715D01*
X0133813Y0155716D02*
X0121328Y0155716D01*
X0120330Y0154718D02*
X0122627Y0154718D01*
X0120559Y0153719D02*
X0119331Y0153719D01*
X0119561Y0152721D02*
X0118333Y0152721D01*
X0118704Y0151722D02*
X0117960Y0151722D01*
X0117960Y0150724D02*
X0118291Y0150724D01*
X0118055Y0145731D02*
X0117960Y0145731D01*
X0117960Y0144732D02*
X0118468Y0144732D01*
X0117960Y0143734D02*
X0118991Y0143734D01*
X0119990Y0142735D02*
X0117960Y0142735D01*
X0117960Y0141737D02*
X0121252Y0141737D01*
X0117960Y0140738D02*
X0133813Y0140738D01*
X0133813Y0139740D02*
X0117960Y0139740D01*
X0117960Y0138741D02*
X0133813Y0138741D01*
X0133813Y0137743D02*
X0117960Y0137743D01*
X0117960Y0136744D02*
X0133813Y0136744D01*
X0133813Y0135746D02*
X0117960Y0135746D01*
X0117960Y0134747D02*
X0133813Y0134747D01*
X0133813Y0133749D02*
X0117960Y0133749D01*
X0117960Y0132750D02*
X0133813Y0132750D01*
X0133813Y0131752D02*
X0117960Y0131752D01*
X0117960Y0130753D02*
X0133813Y0130753D01*
X0133813Y0129755D02*
X0117960Y0129755D01*
X0117960Y0128756D02*
X0133813Y0128756D01*
X0133813Y0127758D02*
X0117960Y0127758D01*
X0117960Y0126759D02*
X0133813Y0126759D01*
X0133813Y0125761D02*
X0117960Y0125761D01*
X0117960Y0124762D02*
X0133813Y0124762D01*
X0133813Y0123764D02*
X0117960Y0123764D01*
X0117960Y0122765D02*
X0133813Y0122765D01*
X0133813Y0121767D02*
X0117960Y0121767D01*
X0117960Y0120768D02*
X0133813Y0120768D01*
X0133813Y0119770D02*
X0117960Y0119770D01*
X0117960Y0118771D02*
X0133813Y0118771D01*
X0133813Y0117773D02*
X0117960Y0117773D01*
X0117960Y0116774D02*
X0133813Y0116774D01*
X0133813Y0115776D02*
X0117960Y0115776D01*
X0117960Y0114777D02*
X0133813Y0114777D01*
X0133813Y0113779D02*
X0117960Y0113779D01*
X0117960Y0112780D02*
X0133813Y0112780D01*
X0133813Y0111782D02*
X0117960Y0111782D01*
X0117960Y0110783D02*
X0133813Y0110783D01*
X0133813Y0109785D02*
X0117719Y0109785D01*
X0117174Y0108786D02*
X0133813Y0108786D01*
X0133813Y0107788D02*
X0116976Y0107788D01*
X0116708Y0106789D02*
X0133813Y0106789D01*
X0133813Y0105791D02*
X0116440Y0105791D01*
X0116173Y0104792D02*
X0133813Y0104792D01*
X0133813Y0103793D02*
X0115885Y0103793D01*
X0115308Y0102795D02*
X0133813Y0102795D01*
X0133813Y0101796D02*
X0114732Y0101796D01*
X0114155Y0100798D02*
X0133813Y0100798D01*
X0133813Y0099799D02*
X0113579Y0099799D01*
X0112633Y0098801D02*
X0133813Y0098801D01*
X0133813Y0097802D02*
X0111635Y0097802D01*
X0110636Y0096804D02*
X0133813Y0096804D01*
X0133813Y0095805D02*
X0109306Y0095805D01*
X0107576Y0094807D02*
X0133813Y0094807D01*
X0133813Y0093808D02*
X0105778Y0093808D01*
X0102051Y0092810D02*
X0133813Y0092810D01*
X0133813Y0091811D02*
X0070306Y0091811D01*
X0072035Y0090813D02*
X0133813Y0090813D01*
X0133813Y0089814D02*
X0073765Y0089814D01*
X0074901Y0088816D02*
X0133813Y0088816D01*
X0133813Y0087817D02*
X0075899Y0087817D01*
X0076898Y0086819D02*
X0133813Y0086819D01*
X0133813Y0085820D02*
X0077732Y0085820D01*
X0078308Y0084822D02*
X0133813Y0084822D01*
X0133813Y0083823D02*
X0078885Y0083823D01*
X0079461Y0082825D02*
X0133813Y0082825D01*
X0133813Y0081826D02*
X0079976Y0081826D01*
X0080244Y0080828D02*
X0133813Y0080828D01*
X0133813Y0079829D02*
X0080512Y0079829D01*
X0080779Y0078831D02*
X0133813Y0078831D01*
X0133813Y0077832D02*
X0081047Y0077832D01*
X0081174Y0076834D02*
X0101908Y0076834D01*
X0102411Y0077042D02*
X0099802Y0075961D01*
X0097805Y0073964D01*
X0096724Y0071355D01*
X0096724Y0068530D01*
X0097805Y0065921D01*
X0099802Y0063923D01*
X0102411Y0062842D01*
X0105236Y0062842D01*
X0107845Y0063923D01*
X0109843Y0065921D01*
X0110924Y0068530D01*
X0110924Y0071355D01*
X0109843Y0073964D01*
X0107845Y0075961D01*
X0105236Y0077042D01*
X0102411Y0077042D01*
X0099676Y0075835D02*
X0081174Y0075835D01*
X0081174Y0074837D02*
X0098677Y0074837D01*
X0097752Y0073838D02*
X0081174Y0073838D01*
X0081174Y0072840D02*
X0097339Y0072840D01*
X0096925Y0071841D02*
X0080990Y0071841D01*
X0080722Y0070843D02*
X0096724Y0070843D01*
X0096724Y0069844D02*
X0080455Y0069844D01*
X0080187Y0068846D02*
X0096724Y0068846D01*
X0097007Y0067847D02*
X0079916Y0067847D01*
X0079339Y0066849D02*
X0097420Y0066849D01*
X0097875Y0065850D02*
X0078763Y0065850D01*
X0078186Y0064852D02*
X0098873Y0064852D01*
X0099971Y0063853D02*
X0077610Y0063853D01*
X0076687Y0062855D02*
X0102382Y0062855D01*
X0105265Y0062855D02*
X0116345Y0062855D01*
X0116759Y0063853D02*
X0107676Y0063853D01*
X0108774Y0064852D02*
X0117692Y0064852D01*
X0116805Y0063964D02*
X0115724Y0061355D01*
X0115724Y0058530D01*
X0116805Y0055921D01*
X0118802Y0053923D01*
X0121411Y0052842D01*
X0124236Y0052842D01*
X0126845Y0053923D01*
X0128843Y0055921D01*
X0129924Y0058530D01*
X0129924Y0061355D01*
X0128843Y0063964D01*
X0126845Y0065961D01*
X0124236Y0067042D01*
X0121411Y0067042D01*
X0118802Y0065961D01*
X0116805Y0063964D01*
X0115931Y0061856D02*
X0075688Y0061856D01*
X0074690Y0060858D02*
X0115724Y0060858D01*
X0115724Y0059859D02*
X0073398Y0059859D01*
X0071669Y0058860D02*
X0115724Y0058860D01*
X0116000Y0057862D02*
X0069940Y0057862D01*
X0066251Y0056863D02*
X0116414Y0056863D01*
X0116860Y0055865D02*
X0035871Y0055865D01*
X0036869Y0054866D02*
X0117859Y0054866D01*
X0118935Y0053868D02*
X0037868Y0053868D01*
X0034872Y0056863D02*
X0059396Y0056863D01*
X0055708Y0057862D02*
X0033874Y0057862D01*
X0032875Y0058860D02*
X0053978Y0058860D01*
X0052249Y0059859D02*
X0031877Y0059859D01*
X0030878Y0060858D02*
X0050958Y0060858D01*
X0049959Y0061856D02*
X0029880Y0061856D01*
X0028881Y0062855D02*
X0048961Y0062855D01*
X0048037Y0063853D02*
X0027883Y0063853D01*
X0026884Y0064852D02*
X0047461Y0064852D01*
X0046884Y0065850D02*
X0025886Y0065850D01*
X0024887Y0066849D02*
X0046308Y0066849D01*
X0045731Y0067847D02*
X0023889Y0067847D01*
X0022890Y0068846D02*
X0045460Y0068846D01*
X0045192Y0069844D02*
X0021892Y0069844D01*
X0020893Y0070843D02*
X0044925Y0070843D01*
X0044657Y0071841D02*
X0019895Y0071841D01*
X0018896Y0072840D02*
X0044474Y0072840D01*
X0044474Y0073838D02*
X0017898Y0073838D01*
X0016899Y0074837D02*
X0044474Y0074837D01*
X0044474Y0075835D02*
X0015901Y0075835D01*
X0014902Y0076834D02*
X0044474Y0076834D01*
X0044601Y0077832D02*
X0013904Y0077832D01*
X0012905Y0078831D02*
X0044868Y0078831D01*
X0045136Y0079829D02*
X0011907Y0079829D01*
X0010908Y0080828D02*
X0045403Y0080828D01*
X0045671Y0081826D02*
X0009910Y0081826D01*
X0008911Y0082825D02*
X0046186Y0082825D01*
X0046762Y0083823D02*
X0007913Y0083823D01*
X0044793Y0114777D02*
X0056439Y0114777D01*
X0057438Y0115776D02*
X0044526Y0115776D01*
X0044258Y0116774D02*
X0058436Y0116774D01*
X0059435Y0117773D02*
X0043991Y0117773D01*
X0043492Y0118771D02*
X0060433Y0118771D01*
X0061432Y0119770D02*
X0042916Y0119770D01*
X0042339Y0120768D02*
X0062430Y0120768D01*
X0063429Y0121767D02*
X0041763Y0121767D01*
X0040952Y0122765D02*
X0064427Y0122765D01*
X0065426Y0123764D02*
X0039953Y0123764D01*
X0038955Y0124762D02*
X0066424Y0124762D01*
X0067423Y0125761D02*
X0037857Y0125761D01*
X0036128Y0126759D02*
X0068421Y0126759D01*
X0069420Y0127758D02*
X0034398Y0127758D01*
X0066851Y0128756D02*
X0070418Y0128756D01*
X0070578Y0129755D02*
X0071417Y0129755D01*
X0085610Y0135746D02*
X0089219Y0135746D01*
X0090217Y0136744D02*
X0086609Y0136744D01*
X0087607Y0137743D02*
X0091216Y0137743D01*
X0092214Y0138741D02*
X0088606Y0138741D01*
X0089604Y0139740D02*
X0093213Y0139740D01*
X0094211Y0140738D02*
X0090603Y0140738D01*
X0091601Y0141737D02*
X0095210Y0141737D01*
X0096208Y0142735D02*
X0092600Y0142735D01*
X0093598Y0143734D02*
X0097207Y0143734D01*
X0098205Y0144732D02*
X0094597Y0144732D01*
X0095595Y0145731D02*
X0099204Y0145731D01*
X0100202Y0146729D02*
X0096594Y0146729D01*
X0097592Y0147728D02*
X0101201Y0147728D01*
X0102199Y0148727D02*
X0098591Y0148727D01*
X0099589Y0149725D02*
X0103198Y0149725D01*
X0104196Y0150724D02*
X0100588Y0150724D01*
X0101586Y0151722D02*
X0104286Y0151722D01*
X0104286Y0152721D02*
X0102585Y0152721D01*
X0103583Y0153719D02*
X0104286Y0153719D01*
X0127020Y0154718D02*
X0133813Y0154718D01*
X0133813Y0153719D02*
X0129088Y0153719D01*
X0130086Y0152721D02*
X0133813Y0152721D01*
X0133813Y0151722D02*
X0130943Y0151722D01*
X0131357Y0150724D02*
X0133813Y0150724D01*
X0133813Y0149725D02*
X0131770Y0149725D01*
X0131924Y0148727D02*
X0133813Y0148727D01*
X0133813Y0147728D02*
X0131924Y0147728D01*
X0131924Y0146729D02*
X0133813Y0146729D01*
X0133813Y0145731D02*
X0131593Y0145731D01*
X0131179Y0144732D02*
X0133813Y0144732D01*
X0133813Y0143734D02*
X0130656Y0143734D01*
X0129658Y0142735D02*
X0133813Y0142735D01*
X0133813Y0141737D02*
X0128396Y0141737D01*
X0139613Y0141737D02*
X0147593Y0141737D01*
X0147593Y0142735D02*
X0139613Y0142735D01*
X0139613Y0143734D02*
X0147593Y0143734D01*
X0147593Y0144732D02*
X0139613Y0144732D01*
X0139613Y0145731D02*
X0147593Y0145731D01*
X0147593Y0146729D02*
X0139613Y0146729D01*
X0139613Y0147728D02*
X0147593Y0147728D01*
X0147593Y0148727D02*
X0139613Y0148727D01*
X0139613Y0149725D02*
X0147593Y0149725D01*
X0147593Y0150724D02*
X0139613Y0150724D01*
X0139613Y0151722D02*
X0147593Y0151722D01*
X0147593Y0152721D02*
X0139613Y0152721D01*
X0139613Y0153719D02*
X0147593Y0153719D01*
X0147593Y0154718D02*
X0139613Y0154718D01*
X0139613Y0155716D02*
X0147593Y0155716D01*
X0147593Y0156715D02*
X0139613Y0156715D01*
X0139613Y0157713D02*
X0147593Y0157713D01*
X0147593Y0158712D02*
X0139613Y0158712D01*
X0139613Y0159710D02*
X0147593Y0159710D01*
X0147593Y0160221D02*
X0147593Y0082696D01*
X0148034Y0081630D01*
X0148850Y0080815D01*
X0178487Y0051178D01*
X0178487Y0038844D01*
X0178389Y0038926D01*
X0178347Y0038939D01*
X0176366Y0039564D01*
X0176366Y0039564D01*
X0175286Y0039904D01*
X0175266Y0039911D01*
X0174116Y0039810D01*
X0173093Y0039278D01*
X0173093Y0039278D01*
X0159481Y0032192D01*
X0159481Y0032192D01*
X0158457Y0031659D01*
X0158060Y0031185D01*
X0157716Y0030775D01*
X0157531Y0030189D01*
X0157078Y0028752D01*
X0157078Y0028752D01*
X0156744Y0027694D01*
X0156731Y0027652D01*
X0156829Y0026527D01*
X0153299Y0024690D01*
X0152776Y0023031D01*
X0157043Y0014835D01*
X0157893Y0014567D01*
X0157625Y0013717D01*
X0161620Y0006042D01*
X0105556Y0006042D01*
X0109199Y0007939D01*
X0113729Y0006511D01*
X0114878Y0006611D01*
X0115902Y0007144D01*
X0116986Y0007708D01*
X0119336Y0006967D01*
X0119336Y0006967D01*
X0120436Y0006620D01*
X0121586Y0006721D01*
X0138882Y0015725D01*
X0138882Y0015725D01*
X0139906Y0016257D01*
X0140647Y0017141D01*
X0141735Y0020592D01*
X0144150Y0021849D01*
X0145173Y0022382D01*
X0145582Y0022869D01*
X0145915Y0023265D01*
X0146087Y0023811D01*
X0146553Y0025288D01*
X0146899Y0026389D01*
X0146799Y0027538D01*
X0146769Y0027596D01*
X0146266Y0028561D01*
X0141258Y0038182D01*
X0141258Y0038182D01*
X0140725Y0039206D01*
X0140238Y0039615D01*
X0139841Y0039947D01*
X0139296Y0040119D01*
X0137818Y0040585D01*
X0136718Y0040932D01*
X0135594Y0040834D01*
X0133756Y0044363D01*
X0132097Y0044887D01*
X0124287Y0040821D01*
X0124287Y0041304D01*
X0138356Y0055374D01*
X0139172Y0056189D01*
X0139613Y0057255D01*
X0139613Y0168201D01*
X0140055Y0167759D01*
X0147593Y0160221D01*
X0147106Y0160709D02*
X0139613Y0160709D01*
X0139613Y0161707D02*
X0146107Y0161707D01*
X0145109Y0162706D02*
X0139613Y0162706D01*
X0139613Y0163704D02*
X0144110Y0163704D01*
X0143112Y0164703D02*
X0139613Y0164703D01*
X0139613Y0165701D02*
X0142113Y0165701D01*
X0141115Y0166700D02*
X0139613Y0166700D01*
X0139613Y0167698D02*
X0140116Y0167698D01*
X0144598Y0171419D02*
X0144598Y0177350D01*
X0145635Y0178387D01*
X0146796Y0177225D01*
X0148597Y0176479D01*
X0150546Y0176479D01*
X0152347Y0177225D01*
X0153509Y0178387D01*
X0154670Y0177225D01*
X0156471Y0176479D01*
X0158420Y0176479D01*
X0160221Y0177225D01*
X0161383Y0178387D01*
X0162420Y0177350D01*
X0162420Y0134208D01*
X0162861Y0133142D01*
X0174441Y0121563D01*
X0175507Y0121121D01*
X0202961Y0121121D01*
X0201805Y0119964D01*
X0200724Y0117355D01*
X0200724Y0114530D01*
X0201805Y0111921D01*
X0203802Y0109923D01*
X0206411Y0108842D01*
X0209236Y0108842D01*
X0211845Y0109923D01*
X0213843Y0111921D01*
X0214924Y0114530D01*
X0214924Y0117355D01*
X0213843Y0119964D01*
X0212686Y0121121D01*
X0231969Y0121121D01*
X0232138Y0120952D01*
X0228741Y0120042D01*
X0224556Y0117626D01*
X0221140Y0114210D01*
X0218724Y0110025D01*
X0217474Y0105358D01*
X0217474Y0100527D01*
X0218724Y0095860D01*
X0221140Y0091675D01*
X0224556Y0088259D01*
X0228741Y0085843D01*
X0233408Y0084592D01*
X0238239Y0084592D01*
X0242906Y0085843D01*
X0247091Y0088259D01*
X0250507Y0091675D01*
X0252923Y0095860D01*
X0254174Y0100527D01*
X0254174Y0105358D01*
X0252923Y0110025D01*
X0250507Y0114210D01*
X0247091Y0117626D01*
X0242906Y0120042D01*
X0238724Y0121163D01*
X0238724Y0121944D01*
X0238282Y0123010D01*
X0235629Y0125664D01*
X0234813Y0126480D01*
X0233747Y0126921D01*
X0177285Y0126921D01*
X0168220Y0135986D01*
X0168220Y0177350D01*
X0169257Y0178387D01*
X0170294Y0177350D01*
X0170294Y0138145D01*
X0170735Y0137079D01*
X0179530Y0128284D01*
X0180346Y0127468D01*
X0181412Y0127027D01*
X0221936Y0127027D01*
X0223002Y0127468D01*
X0223818Y0128284D01*
X0238308Y0142775D01*
X0279705Y0142775D01*
X0278140Y0141210D01*
X0275724Y0137025D01*
X0274474Y0132358D01*
X0274474Y0127527D01*
X0275724Y0122860D01*
X0278140Y0118675D01*
X0281556Y0115259D01*
X0285741Y0112843D01*
X0290408Y0111592D01*
X0295239Y0111592D01*
X0299906Y0112843D01*
X0304091Y0115259D01*
X0307507Y0118675D01*
X0309923Y0122860D01*
X0311174Y0127527D01*
X0311174Y0132358D01*
X0309923Y0137025D01*
X0307507Y0141210D01*
X0304091Y0144626D01*
X0299906Y0147042D01*
X0295239Y0148292D01*
X0293484Y0148292D01*
X0292802Y0148575D01*
X0236530Y0148575D01*
X0235464Y0148133D01*
X0220158Y0132827D01*
X0183190Y0132827D01*
X0176094Y0139923D01*
X0176094Y0177350D01*
X0177348Y0178604D01*
X0178094Y0180405D01*
X0178094Y0182354D01*
X0177348Y0184155D01*
X0175969Y0185533D01*
X0174168Y0186279D01*
X0172219Y0186279D01*
X0170418Y0185533D01*
X0169257Y0184372D01*
X0168095Y0185533D01*
X0166294Y0186279D01*
X0164345Y0186279D01*
X0162544Y0185533D01*
X0161383Y0184372D01*
X0160463Y0185291D01*
X0161794Y0187082D01*
X0204263Y0187082D01*
X0208109Y0182524D01*
X0208109Y0179060D01*
X0203926Y0177939D01*
X0199741Y0175524D01*
X0196325Y0172107D01*
X0193909Y0167923D01*
X0192659Y0163256D01*
X0192659Y0158424D01*
X0193909Y0153757D01*
X0196325Y0149573D01*
X0199741Y0146156D01*
X0203926Y0143741D01*
X0208593Y0142490D01*
X0213424Y0142490D01*
X0218091Y0143741D01*
X0222276Y0146156D01*
X0225692Y0149573D01*
X0228108Y0153757D01*
X0229359Y0158424D01*
X0229359Y0163256D01*
X0228108Y0167923D01*
X0225692Y0172107D01*
X0222276Y0175524D01*
X0218091Y0177939D01*
X0213909Y0179060D01*
X0213909Y0183461D01*
X0213947Y0183914D01*
X0213909Y0184034D01*
X0213909Y0184161D01*
X0213735Y0184581D01*
X0213597Y0185013D01*
X0213516Y0185110D01*
X0213467Y0185227D01*
X0213146Y0185548D01*
X0208118Y0191508D01*
X0208070Y0191624D01*
X0207748Y0191946D01*
X0207713Y0191987D01*
X0233039Y0191987D01*
X0233482Y0191947D01*
X0233611Y0191987D01*
X0233747Y0191987D01*
X0234158Y0192158D01*
X0234583Y0192290D01*
X0234688Y0192377D01*
X0234813Y0192429D01*
X0235128Y0192744D01*
X0246031Y0201830D01*
X0256048Y0201830D01*
X0253325Y0199107D01*
X0250909Y0194923D01*
X0249659Y0190256D01*
X0249659Y0185424D01*
X0250909Y0180757D01*
X0253325Y0176573D01*
X0256741Y0173156D01*
X0260926Y0170741D01*
X0265593Y0169490D01*
X0270424Y0169490D01*
X0275091Y0170741D01*
X0279276Y0173156D01*
X0282692Y0176573D01*
X0285108Y0180757D01*
X0286359Y0185424D01*
X0286359Y0190256D01*
X0285108Y0194923D01*
X0282692Y0199107D01*
X0279276Y0202524D01*
X0275091Y0204939D01*
X0270424Y0206190D01*
X0269276Y0206190D01*
X0268277Y0207188D01*
X0267306Y0207590D01*
X0322724Y0207590D01*
X0322724Y0122012D01*
X0320236Y0123042D01*
X0317411Y0123042D01*
X0314802Y0121961D01*
X0312805Y0119964D01*
X0311724Y0117355D01*
X0311724Y0114530D01*
X0312805Y0111921D01*
X0314802Y0109923D01*
X0317411Y0108842D01*
X0320236Y0108842D01*
X0322724Y0109873D01*
X0322724Y0056042D01*
X0257723Y0056042D01*
X0249624Y0054759D01*
X0249623Y0054759D02*
X0241824Y0052225D01*
X0234517Y0048502D01*
X0227883Y0043682D01*
X0227883Y0043682D01*
X0222084Y0037883D01*
X0217264Y0031249D01*
X0217264Y0031249D01*
X0213541Y0023942D01*
X0213541Y0023942D01*
X0211006Y0016142D01*
X0209724Y0008043D01*
X0209724Y0006042D01*
X0165556Y0006042D01*
X0169199Y0007939D01*
X0172629Y0006858D01*
X0172629Y0006858D01*
X0173729Y0006511D01*
X0174878Y0006611D01*
X0176986Y0007708D01*
X0179336Y0006967D01*
X0179336Y0006967D01*
X0180436Y0006620D01*
X0181586Y0006721D01*
X0198882Y0015725D01*
X0198882Y0015725D01*
X0199906Y0016257D01*
X0200647Y0017141D01*
X0201735Y0020592D01*
X0204150Y0021849D01*
X0205173Y0022382D01*
X0205582Y0022869D01*
X0205915Y0023265D01*
X0206087Y0023811D01*
X0206553Y0025288D01*
X0206899Y0026389D01*
X0206799Y0027538D01*
X0206769Y0027596D01*
X0206266Y0028561D01*
X0201258Y0038182D01*
X0201258Y0038182D01*
X0200725Y0039206D01*
X0200238Y0039615D01*
X0199841Y0039947D01*
X0199296Y0040119D01*
X0197818Y0040585D01*
X0196718Y0040932D01*
X0195594Y0040834D01*
X0193756Y0044363D01*
X0192097Y0044887D01*
X0184287Y0040821D01*
X0184287Y0052956D01*
X0183845Y0054022D01*
X0153393Y0084474D01*
X0153393Y0162000D01*
X0152951Y0163065D01*
X0144598Y0171419D01*
X0144598Y0171692D02*
X0162420Y0171692D01*
X0162420Y0170694D02*
X0145323Y0170694D01*
X0146322Y0169695D02*
X0162420Y0169695D01*
X0162420Y0168697D02*
X0147320Y0168697D01*
X0148319Y0167698D02*
X0162420Y0167698D01*
X0162420Y0166700D02*
X0149317Y0166700D01*
X0150316Y0165701D02*
X0162420Y0165701D01*
X0162420Y0164703D02*
X0151314Y0164703D01*
X0152313Y0163704D02*
X0162420Y0163704D01*
X0162420Y0162706D02*
X0153100Y0162706D01*
X0153393Y0161707D02*
X0162420Y0161707D01*
X0162420Y0160709D02*
X0153393Y0160709D01*
X0153393Y0159710D02*
X0162420Y0159710D01*
X0162420Y0158712D02*
X0153393Y0158712D01*
X0153393Y0157713D02*
X0162420Y0157713D01*
X0162420Y0156715D02*
X0153393Y0156715D01*
X0153393Y0155716D02*
X0162420Y0155716D01*
X0162420Y0154718D02*
X0153393Y0154718D01*
X0153393Y0153719D02*
X0162420Y0153719D01*
X0162420Y0152721D02*
X0153393Y0152721D01*
X0153393Y0151722D02*
X0162420Y0151722D01*
X0162420Y0150724D02*
X0153393Y0150724D01*
X0153393Y0149725D02*
X0162420Y0149725D01*
X0162420Y0148727D02*
X0153393Y0148727D01*
X0153393Y0147728D02*
X0162420Y0147728D01*
X0162420Y0146729D02*
X0153393Y0146729D01*
X0153393Y0145731D02*
X0162420Y0145731D01*
X0162420Y0144732D02*
X0153393Y0144732D01*
X0153393Y0143734D02*
X0162420Y0143734D01*
X0162420Y0142735D02*
X0153393Y0142735D01*
X0153393Y0141737D02*
X0162420Y0141737D01*
X0162420Y0140738D02*
X0153393Y0140738D01*
X0153393Y0139740D02*
X0162420Y0139740D01*
X0162420Y0138741D02*
X0153393Y0138741D01*
X0153393Y0137743D02*
X0162420Y0137743D01*
X0162420Y0136744D02*
X0153393Y0136744D01*
X0153393Y0135746D02*
X0162420Y0135746D01*
X0162420Y0134747D02*
X0153393Y0134747D01*
X0153393Y0133749D02*
X0162610Y0133749D01*
X0163253Y0132750D02*
X0153393Y0132750D01*
X0153393Y0131752D02*
X0164252Y0131752D01*
X0165250Y0130753D02*
X0153393Y0130753D01*
X0153393Y0129755D02*
X0166249Y0129755D01*
X0167247Y0128756D02*
X0153393Y0128756D01*
X0153393Y0127758D02*
X0168246Y0127758D01*
X0169244Y0126759D02*
X0153393Y0126759D01*
X0153393Y0125761D02*
X0170243Y0125761D01*
X0171241Y0124762D02*
X0153393Y0124762D01*
X0153393Y0123764D02*
X0172240Y0123764D01*
X0173238Y0122765D02*
X0153393Y0122765D01*
X0153393Y0121767D02*
X0174237Y0121767D01*
X0176448Y0127758D02*
X0180057Y0127758D01*
X0179058Y0128756D02*
X0175449Y0128756D01*
X0174451Y0129755D02*
X0178060Y0129755D01*
X0177061Y0130753D02*
X0173452Y0130753D01*
X0172454Y0131752D02*
X0176063Y0131752D01*
X0175064Y0132750D02*
X0171455Y0132750D01*
X0170457Y0133749D02*
X0174066Y0133749D01*
X0173067Y0134747D02*
X0169458Y0134747D01*
X0168460Y0135746D02*
X0172069Y0135746D01*
X0171070Y0136744D02*
X0168220Y0136744D01*
X0168220Y0137743D02*
X0170460Y0137743D01*
X0170294Y0138741D02*
X0168220Y0138741D01*
X0168220Y0139740D02*
X0170294Y0139740D01*
X0170294Y0140738D02*
X0168220Y0140738D01*
X0168220Y0141737D02*
X0170294Y0141737D01*
X0170294Y0142735D02*
X0168220Y0142735D01*
X0168220Y0143734D02*
X0170294Y0143734D01*
X0170294Y0144732D02*
X0168220Y0144732D01*
X0168220Y0145731D02*
X0170294Y0145731D01*
X0170294Y0146729D02*
X0168220Y0146729D01*
X0168220Y0147728D02*
X0170294Y0147728D01*
X0170294Y0148727D02*
X0168220Y0148727D01*
X0168220Y0149725D02*
X0170294Y0149725D01*
X0170294Y0150724D02*
X0168220Y0150724D01*
X0168220Y0151722D02*
X0170294Y0151722D01*
X0170294Y0152721D02*
X0168220Y0152721D01*
X0168220Y0153719D02*
X0170294Y0153719D01*
X0170294Y0154718D02*
X0168220Y0154718D01*
X0168220Y0155716D02*
X0170294Y0155716D01*
X0170294Y0156715D02*
X0168220Y0156715D01*
X0168220Y0157713D02*
X0170294Y0157713D01*
X0170294Y0158712D02*
X0168220Y0158712D01*
X0168220Y0159710D02*
X0170294Y0159710D01*
X0170294Y0160709D02*
X0168220Y0160709D01*
X0168220Y0161707D02*
X0170294Y0161707D01*
X0170294Y0162706D02*
X0168220Y0162706D01*
X0168220Y0163704D02*
X0170294Y0163704D01*
X0170294Y0164703D02*
X0168220Y0164703D01*
X0168220Y0165701D02*
X0170294Y0165701D01*
X0170294Y0166700D02*
X0168220Y0166700D01*
X0168220Y0167698D02*
X0170294Y0167698D01*
X0170294Y0168697D02*
X0168220Y0168697D01*
X0168220Y0169695D02*
X0170294Y0169695D01*
X0170294Y0170694D02*
X0168220Y0170694D01*
X0168220Y0171692D02*
X0170294Y0171692D01*
X0170294Y0172691D02*
X0168220Y0172691D01*
X0168220Y0173689D02*
X0170294Y0173689D01*
X0170294Y0174688D02*
X0168220Y0174688D01*
X0168220Y0175686D02*
X0170294Y0175686D01*
X0170294Y0176685D02*
X0168220Y0176685D01*
X0168553Y0177683D02*
X0169960Y0177683D01*
X0176094Y0176685D02*
X0201753Y0176685D01*
X0203482Y0177683D02*
X0176427Y0177683D01*
X0177380Y0178682D02*
X0206696Y0178682D01*
X0208109Y0179680D02*
X0177794Y0179680D01*
X0178094Y0180679D02*
X0208109Y0180679D01*
X0208109Y0181677D02*
X0178094Y0181677D01*
X0177960Y0182676D02*
X0207981Y0182676D01*
X0207138Y0183674D02*
X0177547Y0183674D01*
X0176830Y0184673D02*
X0206296Y0184673D01*
X0205453Y0185671D02*
X0175636Y0185671D01*
X0170751Y0185671D02*
X0167762Y0185671D01*
X0168956Y0184673D02*
X0169558Y0184673D01*
X0162877Y0185671D02*
X0160746Y0185671D01*
X0161082Y0184673D02*
X0161684Y0184673D01*
X0161488Y0186670D02*
X0204611Y0186670D01*
X0208830Y0190664D02*
X0249768Y0190664D01*
X0249659Y0189665D02*
X0209672Y0189665D01*
X0210515Y0188667D02*
X0249659Y0188667D01*
X0249659Y0187668D02*
X0211357Y0187668D01*
X0212199Y0186670D02*
X0249659Y0186670D01*
X0249659Y0185671D02*
X0213042Y0185671D01*
X0213705Y0184673D02*
X0249860Y0184673D01*
X0250127Y0183674D02*
X0213927Y0183674D01*
X0213909Y0182676D02*
X0250395Y0182676D01*
X0250663Y0181677D02*
X0213909Y0181677D01*
X0213909Y0180679D02*
X0250954Y0180679D01*
X0251531Y0179680D02*
X0213909Y0179680D01*
X0215321Y0178682D02*
X0252107Y0178682D01*
X0252684Y0177683D02*
X0218535Y0177683D01*
X0220265Y0176685D02*
X0253260Y0176685D01*
X0254212Y0175686D02*
X0221994Y0175686D01*
X0223112Y0174688D02*
X0255210Y0174688D01*
X0256209Y0173689D02*
X0224110Y0173689D01*
X0225109Y0172691D02*
X0257548Y0172691D01*
X0259277Y0171692D02*
X0225932Y0171692D01*
X0226508Y0170694D02*
X0261100Y0170694D01*
X0264827Y0169695D02*
X0227085Y0169695D01*
X0227661Y0168697D02*
X0307069Y0168697D01*
X0306724Y0169530D02*
X0307805Y0166921D01*
X0309802Y0164923D01*
X0312411Y0163842D01*
X0315236Y0163842D01*
X0317845Y0164923D01*
X0319843Y0166921D01*
X0320924Y0169530D01*
X0320924Y0172355D01*
X0319843Y0174964D01*
X0317845Y0176961D01*
X0315236Y0178042D01*
X0312411Y0178042D01*
X0309802Y0176961D01*
X0307805Y0174964D01*
X0306724Y0172355D01*
X0306724Y0169530D01*
X0306724Y0169695D02*
X0271190Y0169695D01*
X0274917Y0170694D02*
X0306724Y0170694D01*
X0306724Y0171692D02*
X0276740Y0171692D01*
X0278469Y0172691D02*
X0306863Y0172691D01*
X0307276Y0173689D02*
X0279809Y0173689D01*
X0280807Y0174688D02*
X0307690Y0174688D01*
X0308527Y0175686D02*
X0281806Y0175686D01*
X0282757Y0176685D02*
X0309525Y0176685D01*
X0311545Y0177683D02*
X0283333Y0177683D01*
X0283910Y0178682D02*
X0322724Y0178682D01*
X0322724Y0179680D02*
X0284486Y0179680D01*
X0285063Y0180679D02*
X0322724Y0180679D01*
X0322724Y0181677D02*
X0285355Y0181677D01*
X0285622Y0182676D02*
X0322724Y0182676D01*
X0322724Y0183674D02*
X0285890Y0183674D01*
X0286157Y0184673D02*
X0322724Y0184673D01*
X0322724Y0185671D02*
X0286359Y0185671D01*
X0286359Y0186670D02*
X0322724Y0186670D01*
X0322724Y0187668D02*
X0286359Y0187668D01*
X0286359Y0188667D02*
X0322724Y0188667D01*
X0322724Y0189665D02*
X0286359Y0189665D01*
X0286249Y0190664D02*
X0322724Y0190664D01*
X0322724Y0191662D02*
X0285982Y0191662D01*
X0285714Y0192661D02*
X0322724Y0192661D01*
X0322724Y0193660D02*
X0314888Y0193660D01*
X0314988Y0193675D02*
X0315796Y0193938D01*
X0316554Y0194324D01*
X0317241Y0194823D01*
X0317843Y0195424D01*
X0318342Y0196112D01*
X0318728Y0196869D01*
X0318991Y0197678D01*
X0319112Y0198442D01*
X0310324Y0198442D01*
X0310324Y0199442D01*
X0319112Y0199442D01*
X0318991Y0200207D01*
X0318728Y0201015D01*
X0318342Y0201773D01*
X0317843Y0202460D01*
X0317241Y0203061D01*
X0316554Y0203561D01*
X0315796Y0203947D01*
X0314988Y0204209D01*
X0314149Y0204342D01*
X0310324Y0204342D01*
X0310324Y0199442D01*
X0309324Y0199442D01*
X0309324Y0204342D01*
X0305499Y0204342D01*
X0304659Y0204209D01*
X0303851Y0203947D01*
X0303093Y0203561D01*
X0302406Y0203061D01*
X0301805Y0202460D01*
X0301305Y0201773D01*
X0300919Y0201015D01*
X0300657Y0200207D01*
X0300535Y0199442D01*
X0309324Y0199442D01*
X0309324Y0198442D01*
X0310324Y0198442D01*
X0310324Y0193542D01*
X0314149Y0193542D01*
X0314988Y0193675D01*
X0317014Y0194658D02*
X0322724Y0194658D01*
X0322724Y0195657D02*
X0318011Y0195657D01*
X0318619Y0196655D02*
X0322724Y0196655D01*
X0322724Y0197654D02*
X0318983Y0197654D01*
X0319079Y0199651D02*
X0322724Y0199651D01*
X0322724Y0200649D02*
X0318847Y0200649D01*
X0318406Y0201648D02*
X0322724Y0201648D01*
X0322724Y0202646D02*
X0317657Y0202646D01*
X0316389Y0203645D02*
X0322724Y0203645D01*
X0322724Y0204643D02*
X0275605Y0204643D01*
X0277334Y0203645D02*
X0303258Y0203645D01*
X0301991Y0202646D02*
X0279064Y0202646D01*
X0280152Y0201648D02*
X0301241Y0201648D01*
X0300800Y0200649D02*
X0281150Y0200649D01*
X0282149Y0199651D02*
X0300568Y0199651D01*
X0300535Y0198442D02*
X0300657Y0197678D01*
X0300919Y0196869D01*
X0301305Y0196112D01*
X0301805Y0195424D01*
X0302406Y0194823D01*
X0303093Y0194324D01*
X0303851Y0193938D01*
X0304659Y0193675D01*
X0305499Y0193542D01*
X0309324Y0193542D01*
X0309324Y0198442D01*
X0300535Y0198442D01*
X0300664Y0197654D02*
X0283532Y0197654D01*
X0282955Y0198652D02*
X0309324Y0198652D01*
X0309324Y0197654D02*
X0310324Y0197654D01*
X0310324Y0198652D02*
X0322724Y0198652D01*
X0310324Y0199651D02*
X0309324Y0199651D01*
X0309324Y0200649D02*
X0310324Y0200649D01*
X0310324Y0201648D02*
X0309324Y0201648D01*
X0309324Y0202646D02*
X0310324Y0202646D01*
X0310324Y0203645D02*
X0309324Y0203645D01*
X0309324Y0196655D02*
X0310324Y0196655D01*
X0310324Y0195657D02*
X0309324Y0195657D01*
X0309324Y0194658D02*
X0310324Y0194658D01*
X0310324Y0193660D02*
X0309324Y0193660D01*
X0304759Y0193660D02*
X0285447Y0193660D01*
X0285179Y0194658D02*
X0302633Y0194658D01*
X0301636Y0195657D02*
X0284685Y0195657D01*
X0284108Y0196655D02*
X0301028Y0196655D01*
X0322724Y0205642D02*
X0272471Y0205642D01*
X0268825Y0206640D02*
X0322724Y0206640D01*
X0322724Y0177683D02*
X0316103Y0177683D01*
X0318122Y0176685D02*
X0322724Y0176685D01*
X0322724Y0175686D02*
X0319121Y0175686D01*
X0319957Y0174688D02*
X0322724Y0174688D01*
X0322724Y0173689D02*
X0320371Y0173689D01*
X0320784Y0172691D02*
X0322724Y0172691D01*
X0322724Y0171692D02*
X0320924Y0171692D01*
X0320924Y0170694D02*
X0322724Y0170694D01*
X0322724Y0169695D02*
X0320924Y0169695D01*
X0320578Y0168697D02*
X0322724Y0168697D01*
X0322724Y0167698D02*
X0320165Y0167698D01*
X0319622Y0166700D02*
X0322724Y0166700D01*
X0322724Y0165701D02*
X0318623Y0165701D01*
X0317313Y0164703D02*
X0322724Y0164703D01*
X0322724Y0163704D02*
X0229239Y0163704D01*
X0229359Y0162706D02*
X0322724Y0162706D01*
X0322724Y0161707D02*
X0229359Y0161707D01*
X0229359Y0160709D02*
X0322724Y0160709D01*
X0322724Y0159710D02*
X0229359Y0159710D01*
X0229359Y0158712D02*
X0322724Y0158712D01*
X0322724Y0157713D02*
X0229168Y0157713D01*
X0228901Y0156715D02*
X0322724Y0156715D01*
X0322724Y0155716D02*
X0228633Y0155716D01*
X0228365Y0154718D02*
X0322724Y0154718D01*
X0322724Y0153719D02*
X0228086Y0153719D01*
X0227510Y0152721D02*
X0322724Y0152721D01*
X0322724Y0151722D02*
X0226933Y0151722D01*
X0226357Y0150724D02*
X0322724Y0150724D01*
X0322724Y0149725D02*
X0225780Y0149725D01*
X0224846Y0148727D02*
X0322724Y0148727D01*
X0322724Y0147728D02*
X0297346Y0147728D01*
X0300447Y0146729D02*
X0322724Y0146729D01*
X0322724Y0145731D02*
X0302177Y0145731D01*
X0303906Y0144732D02*
X0322724Y0144732D01*
X0322724Y0143734D02*
X0304983Y0143734D01*
X0305981Y0142735D02*
X0322724Y0142735D01*
X0322724Y0141737D02*
X0306980Y0141737D01*
X0307779Y0140738D02*
X0322724Y0140738D01*
X0322724Y0139740D02*
X0308356Y0139740D01*
X0308932Y0138741D02*
X0322724Y0138741D01*
X0322724Y0137743D02*
X0309509Y0137743D01*
X0309998Y0136744D02*
X0322724Y0136744D01*
X0322724Y0135746D02*
X0310266Y0135746D01*
X0310533Y0134747D02*
X0322724Y0134747D01*
X0322724Y0133749D02*
X0310801Y0133749D01*
X0311069Y0132750D02*
X0322724Y0132750D01*
X0322724Y0131752D02*
X0311174Y0131752D01*
X0311174Y0130753D02*
X0322724Y0130753D01*
X0322724Y0129755D02*
X0311174Y0129755D01*
X0311174Y0128756D02*
X0322724Y0128756D01*
X0322724Y0127758D02*
X0311174Y0127758D01*
X0310968Y0126759D02*
X0322724Y0126759D01*
X0322724Y0125761D02*
X0310700Y0125761D01*
X0310433Y0124762D02*
X0322724Y0124762D01*
X0322724Y0123764D02*
X0310165Y0123764D01*
X0309869Y0122765D02*
X0316742Y0122765D01*
X0314607Y0121767D02*
X0309292Y0121767D01*
X0308716Y0120768D02*
X0313609Y0120768D01*
X0312724Y0119770D02*
X0308139Y0119770D01*
X0307563Y0118771D02*
X0312310Y0118771D01*
X0311897Y0117773D02*
X0306605Y0117773D01*
X0305606Y0116774D02*
X0311724Y0116774D01*
X0311724Y0115776D02*
X0304608Y0115776D01*
X0303257Y0114777D02*
X0311724Y0114777D01*
X0312035Y0113779D02*
X0301527Y0113779D01*
X0299672Y0112780D02*
X0312448Y0112780D01*
X0312943Y0111782D02*
X0295946Y0111782D01*
X0289702Y0111782D02*
X0251909Y0111782D01*
X0251333Y0112780D02*
X0285975Y0112780D01*
X0284120Y0113779D02*
X0250756Y0113779D01*
X0249940Y0114777D02*
X0282391Y0114777D01*
X0281040Y0115776D02*
X0248941Y0115776D01*
X0247943Y0116774D02*
X0280041Y0116774D01*
X0279042Y0117773D02*
X0246837Y0117773D01*
X0245107Y0118771D02*
X0278085Y0118771D01*
X0277508Y0119770D02*
X0243378Y0119770D01*
X0240196Y0120768D02*
X0276932Y0120768D01*
X0276355Y0121767D02*
X0238724Y0121767D01*
X0238384Y0122765D02*
X0275779Y0122765D01*
X0275482Y0123764D02*
X0237529Y0123764D01*
X0236530Y0124762D02*
X0275214Y0124762D01*
X0274947Y0125761D02*
X0235532Y0125761D01*
X0234138Y0126759D02*
X0274679Y0126759D01*
X0274474Y0127758D02*
X0223291Y0127758D01*
X0223818Y0128284D02*
X0223818Y0128284D01*
X0224290Y0128756D02*
X0274474Y0128756D01*
X0274474Y0129755D02*
X0225288Y0129755D01*
X0226287Y0130753D02*
X0274474Y0130753D01*
X0274474Y0131752D02*
X0227285Y0131752D01*
X0228284Y0132750D02*
X0274579Y0132750D01*
X0274846Y0133749D02*
X0229282Y0133749D01*
X0230281Y0134747D02*
X0275114Y0134747D01*
X0275381Y0135746D02*
X0231280Y0135746D01*
X0232278Y0136744D02*
X0275649Y0136744D01*
X0276139Y0137743D02*
X0233277Y0137743D01*
X0234275Y0138741D02*
X0276715Y0138741D01*
X0277291Y0139740D02*
X0235274Y0139740D01*
X0236272Y0140738D02*
X0277868Y0140738D01*
X0278667Y0141737D02*
X0237271Y0141737D01*
X0238269Y0142735D02*
X0279666Y0142735D01*
X0309024Y0165701D02*
X0228703Y0165701D01*
X0228971Y0164703D02*
X0310334Y0164703D01*
X0308025Y0166700D02*
X0228436Y0166700D01*
X0228168Y0167698D02*
X0307482Y0167698D01*
X0255865Y0201648D02*
X0245812Y0201648D01*
X0244614Y0200649D02*
X0254867Y0200649D01*
X0253868Y0199651D02*
X0243416Y0199651D01*
X0242218Y0198652D02*
X0253062Y0198652D01*
X0252486Y0197654D02*
X0241020Y0197654D01*
X0239821Y0196655D02*
X0251909Y0196655D01*
X0251333Y0195657D02*
X0238623Y0195657D01*
X0237425Y0194658D02*
X0250838Y0194658D01*
X0250571Y0193660D02*
X0236227Y0193660D01*
X0235045Y0192661D02*
X0250303Y0192661D01*
X0250036Y0191662D02*
X0208031Y0191662D01*
X0200023Y0175686D02*
X0176094Y0175686D01*
X0176094Y0174688D02*
X0198906Y0174688D01*
X0197907Y0173689D02*
X0176094Y0173689D01*
X0176094Y0172691D02*
X0196909Y0172691D01*
X0196085Y0171692D02*
X0176094Y0171692D01*
X0176094Y0170694D02*
X0195509Y0170694D01*
X0194932Y0169695D02*
X0176094Y0169695D01*
X0176094Y0168697D02*
X0194356Y0168697D01*
X0193849Y0167698D02*
X0176094Y0167698D01*
X0176094Y0166700D02*
X0193581Y0166700D01*
X0193314Y0165701D02*
X0176094Y0165701D01*
X0176094Y0164703D02*
X0193046Y0164703D01*
X0192779Y0163704D02*
X0176094Y0163704D01*
X0176094Y0162706D02*
X0192659Y0162706D01*
X0192659Y0161707D02*
X0176094Y0161707D01*
X0176094Y0160709D02*
X0192659Y0160709D01*
X0192659Y0159710D02*
X0176094Y0159710D01*
X0176094Y0158712D02*
X0192659Y0158712D01*
X0192849Y0157713D02*
X0176094Y0157713D01*
X0176094Y0156715D02*
X0193117Y0156715D01*
X0193384Y0155716D02*
X0176094Y0155716D01*
X0176094Y0154718D02*
X0193652Y0154718D01*
X0193931Y0153719D02*
X0176094Y0153719D01*
X0176094Y0152721D02*
X0194508Y0152721D01*
X0195084Y0151722D02*
X0176094Y0151722D01*
X0176094Y0150724D02*
X0195661Y0150724D01*
X0196237Y0149725D02*
X0176094Y0149725D01*
X0176094Y0148727D02*
X0197171Y0148727D01*
X0198170Y0147728D02*
X0176094Y0147728D01*
X0176094Y0146729D02*
X0199168Y0146729D01*
X0200478Y0145731D02*
X0176094Y0145731D01*
X0176094Y0144732D02*
X0202208Y0144732D01*
X0203950Y0143734D02*
X0176094Y0143734D01*
X0176094Y0142735D02*
X0207677Y0142735D01*
X0214340Y0142735D02*
X0230067Y0142735D01*
X0229068Y0141737D02*
X0176094Y0141737D01*
X0176094Y0140738D02*
X0228070Y0140738D01*
X0227071Y0139740D02*
X0176277Y0139740D01*
X0177275Y0138741D02*
X0226073Y0138741D01*
X0225074Y0137743D02*
X0178274Y0137743D01*
X0179272Y0136744D02*
X0224076Y0136744D01*
X0223077Y0135746D02*
X0180271Y0135746D01*
X0181269Y0134747D02*
X0222079Y0134747D01*
X0221080Y0133749D02*
X0182268Y0133749D01*
X0201724Y0119770D02*
X0153393Y0119770D01*
X0153393Y0120768D02*
X0202609Y0120768D01*
X0201310Y0118771D02*
X0153393Y0118771D01*
X0153393Y0117773D02*
X0200897Y0117773D01*
X0200724Y0116774D02*
X0153393Y0116774D01*
X0153393Y0115776D02*
X0200724Y0115776D01*
X0200724Y0114777D02*
X0153393Y0114777D01*
X0153393Y0113779D02*
X0201035Y0113779D01*
X0201448Y0112780D02*
X0153393Y0112780D01*
X0153393Y0111782D02*
X0201943Y0111782D01*
X0202942Y0110783D02*
X0153393Y0110783D01*
X0153393Y0109785D02*
X0204137Y0109785D01*
X0211511Y0109785D02*
X0218660Y0109785D01*
X0218392Y0108786D02*
X0153393Y0108786D01*
X0153393Y0107788D02*
X0218125Y0107788D01*
X0217857Y0106789D02*
X0153393Y0106789D01*
X0153393Y0105791D02*
X0217589Y0105791D01*
X0217474Y0104792D02*
X0153393Y0104792D01*
X0153393Y0103793D02*
X0217474Y0103793D01*
X0217474Y0102795D02*
X0153393Y0102795D01*
X0153393Y0101796D02*
X0217474Y0101796D01*
X0217474Y0100798D02*
X0153393Y0100798D01*
X0153393Y0099799D02*
X0217668Y0099799D01*
X0217936Y0098801D02*
X0153393Y0098801D01*
X0153393Y0097802D02*
X0218204Y0097802D01*
X0218471Y0096804D02*
X0153393Y0096804D01*
X0153393Y0095805D02*
X0218755Y0095805D01*
X0219332Y0094807D02*
X0153393Y0094807D01*
X0153393Y0093808D02*
X0219908Y0093808D01*
X0220485Y0092810D02*
X0153393Y0092810D01*
X0153393Y0091811D02*
X0221061Y0091811D01*
X0222002Y0090813D02*
X0153393Y0090813D01*
X0153393Y0089814D02*
X0223001Y0089814D01*
X0223999Y0088816D02*
X0153393Y0088816D01*
X0153393Y0087817D02*
X0225321Y0087817D01*
X0227050Y0086819D02*
X0153393Y0086819D01*
X0153393Y0085820D02*
X0228825Y0085820D01*
X0232552Y0084822D02*
X0153393Y0084822D01*
X0154044Y0083823D02*
X0307332Y0083823D01*
X0306918Y0082825D02*
X0155042Y0082825D01*
X0156041Y0081826D02*
X0306724Y0081826D01*
X0306724Y0082355D02*
X0306724Y0079530D01*
X0307805Y0076921D01*
X0309802Y0074923D01*
X0312411Y0073842D01*
X0315236Y0073842D01*
X0317845Y0074923D01*
X0319843Y0076921D01*
X0320924Y0079530D01*
X0320924Y0082355D01*
X0319843Y0084964D01*
X0317845Y0086961D01*
X0315236Y0088042D01*
X0312411Y0088042D01*
X0309802Y0086961D01*
X0307805Y0084964D01*
X0306724Y0082355D01*
X0306724Y0080828D02*
X0157039Y0080828D01*
X0158038Y0079829D02*
X0267567Y0079829D01*
X0268362Y0080042D02*
X0265539Y0079286D01*
X0263008Y0077825D01*
X0260941Y0075758D01*
X0259480Y0073227D01*
X0258724Y0070404D01*
X0258724Y0067481D01*
X0259480Y0064658D01*
X0260941Y0062127D01*
X0263008Y0060060D01*
X0265539Y0058599D01*
X0268362Y0057842D01*
X0271285Y0057842D01*
X0274108Y0058599D01*
X0276639Y0060060D01*
X0278706Y0062127D01*
X0280167Y0064658D01*
X0280924Y0067481D01*
X0280924Y0070404D01*
X0280167Y0073227D01*
X0278706Y0075758D01*
X0276639Y0077825D01*
X0274108Y0079286D01*
X0271285Y0080042D01*
X0268362Y0080042D01*
X0272080Y0079829D02*
X0306724Y0079829D01*
X0307013Y0078831D02*
X0274896Y0078831D01*
X0276626Y0077832D02*
X0307427Y0077832D01*
X0307891Y0076834D02*
X0277630Y0076834D01*
X0278629Y0075835D02*
X0308890Y0075835D01*
X0310011Y0074837D02*
X0279238Y0074837D01*
X0279814Y0073838D02*
X0322724Y0073838D01*
X0322724Y0072840D02*
X0280271Y0072840D01*
X0280538Y0071841D02*
X0322724Y0071841D01*
X0322724Y0070843D02*
X0280806Y0070843D01*
X0280924Y0069844D02*
X0322724Y0069844D01*
X0322724Y0068846D02*
X0280924Y0068846D01*
X0280924Y0067847D02*
X0322724Y0067847D01*
X0322724Y0066849D02*
X0280754Y0066849D01*
X0280487Y0065850D02*
X0322724Y0065850D01*
X0322724Y0064852D02*
X0280219Y0064852D01*
X0279702Y0063853D02*
X0322724Y0063853D01*
X0322724Y0062855D02*
X0279126Y0062855D01*
X0278435Y0061856D02*
X0322724Y0061856D01*
X0322724Y0060858D02*
X0277437Y0060858D01*
X0276291Y0059859D02*
X0322724Y0059859D01*
X0322724Y0058860D02*
X0274561Y0058860D01*
X0271358Y0057862D02*
X0322724Y0057862D01*
X0322724Y0056863D02*
X0181004Y0056863D01*
X0182002Y0055865D02*
X0256603Y0055865D01*
X0250299Y0054866D02*
X0183001Y0054866D01*
X0183909Y0053868D02*
X0246880Y0053868D01*
X0249623Y0054759D02*
X0249624Y0054759D01*
X0243807Y0052869D02*
X0184287Y0052869D01*
X0184287Y0051871D02*
X0241129Y0051871D01*
X0241824Y0052225D02*
X0241824Y0052225D01*
X0239169Y0050872D02*
X0184287Y0050872D01*
X0184287Y0049874D02*
X0237209Y0049874D01*
X0235250Y0048875D02*
X0184287Y0048875D01*
X0184287Y0047877D02*
X0233656Y0047877D01*
X0234517Y0048502D02*
X0234517Y0048502D01*
X0232282Y0046878D02*
X0184287Y0046878D01*
X0184287Y0045880D02*
X0230908Y0045880D01*
X0229533Y0044881D02*
X0192113Y0044881D01*
X0192087Y0044881D02*
X0184287Y0044881D01*
X0184287Y0043883D02*
X0190169Y0043883D01*
X0188251Y0042884D02*
X0184287Y0042884D01*
X0184287Y0041886D02*
X0186333Y0041886D01*
X0184415Y0040887D02*
X0184287Y0040887D01*
X0178487Y0040887D02*
X0161924Y0040887D01*
X0161924Y0039889D02*
X0175012Y0039889D01*
X0175336Y0039889D02*
X0178487Y0039889D01*
X0178487Y0038890D02*
X0178432Y0038890D01*
X0178487Y0041886D02*
X0161924Y0041886D01*
X0161924Y0042355D02*
X0160843Y0044964D01*
X0158845Y0046961D01*
X0156236Y0048042D01*
X0153411Y0048042D01*
X0150802Y0046961D01*
X0148805Y0044964D01*
X0147724Y0042355D01*
X0147724Y0039530D01*
X0148805Y0036921D01*
X0150802Y0034923D01*
X0153411Y0033842D01*
X0156236Y0033842D01*
X0158845Y0034923D01*
X0160843Y0036921D01*
X0161924Y0039530D01*
X0161924Y0042355D01*
X0161704Y0042884D02*
X0178487Y0042884D01*
X0178487Y0043883D02*
X0161291Y0043883D01*
X0160877Y0044881D02*
X0178487Y0044881D01*
X0178487Y0045880D02*
X0159927Y0045880D01*
X0158929Y0046878D02*
X0178487Y0046878D01*
X0178487Y0047877D02*
X0156635Y0047877D01*
X0153012Y0047877D02*
X0130859Y0047877D01*
X0129861Y0046878D02*
X0150719Y0046878D01*
X0149720Y0045880D02*
X0128862Y0045880D01*
X0127864Y0044881D02*
X0132087Y0044881D01*
X0132113Y0044881D02*
X0148770Y0044881D01*
X0148357Y0043883D02*
X0134006Y0043883D01*
X0134526Y0042884D02*
X0147943Y0042884D01*
X0147724Y0041886D02*
X0135046Y0041886D01*
X0135566Y0040887D02*
X0136207Y0040887D01*
X0136860Y0040887D02*
X0147724Y0040887D01*
X0147724Y0039889D02*
X0139911Y0039889D01*
X0140889Y0038890D02*
X0147989Y0038890D01*
X0148402Y0037892D02*
X0141409Y0037892D01*
X0141929Y0036893D02*
X0148832Y0036893D01*
X0149830Y0035895D02*
X0142449Y0035895D01*
X0142969Y0034896D02*
X0150867Y0034896D01*
X0153278Y0033898D02*
X0143488Y0033898D01*
X0144008Y0032899D02*
X0160840Y0032899D01*
X0158922Y0031901D02*
X0144528Y0031901D01*
X0145048Y0030902D02*
X0157822Y0030902D01*
X0157441Y0029904D02*
X0145567Y0029904D01*
X0146087Y0028905D02*
X0157126Y0028905D01*
X0156811Y0027907D02*
X0146607Y0027907D01*
X0146266Y0028561D02*
X0146266Y0028561D01*
X0146854Y0026908D02*
X0156796Y0026908D01*
X0155643Y0025910D02*
X0146748Y0025910D01*
X0146553Y0025288D02*
X0146553Y0025288D01*
X0146434Y0024911D02*
X0153725Y0024911D01*
X0153054Y0023913D02*
X0146119Y0023913D01*
X0145620Y0022914D02*
X0152837Y0022914D01*
X0153357Y0021916D02*
X0144278Y0021916D01*
X0144150Y0021849D02*
X0144150Y0021849D01*
X0142360Y0020917D02*
X0153877Y0020917D01*
X0154396Y0019919D02*
X0141523Y0019919D01*
X0141208Y0018920D02*
X0154916Y0018920D01*
X0155436Y0017922D02*
X0140893Y0017922D01*
X0140464Y0016923D02*
X0155956Y0016923D01*
X0156475Y0015924D02*
X0139266Y0015924D01*
X0137348Y0014926D02*
X0156995Y0014926D01*
X0157691Y0013927D02*
X0135430Y0013927D01*
X0133512Y0012929D02*
X0158035Y0012929D01*
X0158555Y0011930D02*
X0131594Y0011930D01*
X0129676Y0010932D02*
X0159074Y0010932D01*
X0159594Y0009933D02*
X0127757Y0009933D01*
X0125839Y0008935D02*
X0160114Y0008935D01*
X0160634Y0007936D02*
X0123921Y0007936D01*
X0122003Y0006938D02*
X0161154Y0006938D01*
X0167276Y0006938D02*
X0172374Y0006938D01*
X0175506Y0006938D02*
X0179428Y0006938D01*
X0182003Y0006938D02*
X0209724Y0006938D01*
X0209724Y0007936D02*
X0183921Y0007936D01*
X0185839Y0008935D02*
X0209865Y0008935D01*
X0210023Y0009933D02*
X0187757Y0009933D01*
X0189676Y0010932D02*
X0210181Y0010932D01*
X0210339Y0011930D02*
X0191594Y0011930D01*
X0193512Y0012929D02*
X0210498Y0012929D01*
X0210656Y0013927D02*
X0195430Y0013927D01*
X0197348Y0014926D02*
X0210814Y0014926D01*
X0210972Y0015924D02*
X0199266Y0015924D01*
X0200464Y0016923D02*
X0211260Y0016923D01*
X0211006Y0016142D02*
X0211006Y0016142D01*
X0211585Y0017922D02*
X0200893Y0017922D01*
X0201208Y0018920D02*
X0211909Y0018920D01*
X0212233Y0019919D02*
X0201523Y0019919D01*
X0202360Y0020917D02*
X0212558Y0020917D01*
X0212882Y0021916D02*
X0204278Y0021916D01*
X0204150Y0021849D02*
X0204150Y0021849D01*
X0205620Y0022914D02*
X0213207Y0022914D01*
X0213531Y0023913D02*
X0206119Y0023913D01*
X0206434Y0024911D02*
X0214035Y0024911D01*
X0214543Y0025910D02*
X0206748Y0025910D01*
X0206553Y0025288D02*
X0206553Y0025288D01*
X0206854Y0026908D02*
X0215052Y0026908D01*
X0215561Y0027907D02*
X0206607Y0027907D01*
X0206266Y0028561D02*
X0206266Y0028561D01*
X0206087Y0028905D02*
X0216070Y0028905D01*
X0216578Y0029904D02*
X0205567Y0029904D01*
X0205048Y0030902D02*
X0217087Y0030902D01*
X0217737Y0031901D02*
X0204528Y0031901D01*
X0204008Y0032899D02*
X0218463Y0032899D01*
X0219188Y0033898D02*
X0203488Y0033898D01*
X0202969Y0034896D02*
X0219914Y0034896D01*
X0220639Y0035895D02*
X0202449Y0035895D01*
X0201929Y0036893D02*
X0221365Y0036893D01*
X0222084Y0037883D02*
X0222084Y0037883D01*
X0222092Y0037892D02*
X0201409Y0037892D01*
X0200889Y0038890D02*
X0223091Y0038890D01*
X0224090Y0039889D02*
X0199911Y0039889D01*
X0197818Y0040585D02*
X0197818Y0040585D01*
X0196860Y0040887D02*
X0225088Y0040887D01*
X0226087Y0041886D02*
X0195046Y0041886D01*
X0194526Y0042884D02*
X0227085Y0042884D01*
X0228159Y0043883D02*
X0194006Y0043883D01*
X0195566Y0040887D02*
X0196207Y0040887D01*
X0178487Y0048875D02*
X0131858Y0048875D01*
X0132856Y0049874D02*
X0178487Y0049874D01*
X0178487Y0050872D02*
X0133855Y0050872D01*
X0134853Y0051871D02*
X0177794Y0051871D01*
X0176795Y0052869D02*
X0135852Y0052869D01*
X0136850Y0053868D02*
X0175797Y0053868D01*
X0174798Y0054866D02*
X0137849Y0054866D01*
X0138847Y0055865D02*
X0173800Y0055865D01*
X0172801Y0056863D02*
X0139451Y0056863D01*
X0139613Y0057862D02*
X0171803Y0057862D01*
X0170804Y0058860D02*
X0139613Y0058860D01*
X0139613Y0059859D02*
X0169806Y0059859D01*
X0168807Y0060858D02*
X0139613Y0060858D01*
X0139613Y0061856D02*
X0167809Y0061856D01*
X0166810Y0062855D02*
X0139613Y0062855D01*
X0139613Y0063853D02*
X0165812Y0063853D01*
X0164813Y0064852D02*
X0139613Y0064852D01*
X0139613Y0065850D02*
X0163815Y0065850D01*
X0162816Y0066849D02*
X0139613Y0066849D01*
X0139613Y0067847D02*
X0161818Y0067847D01*
X0160819Y0068846D02*
X0139613Y0068846D01*
X0139613Y0069844D02*
X0159821Y0069844D01*
X0158822Y0070843D02*
X0139613Y0070843D01*
X0139613Y0071841D02*
X0157824Y0071841D01*
X0156825Y0072840D02*
X0139613Y0072840D01*
X0139613Y0073838D02*
X0155827Y0073838D01*
X0154828Y0074837D02*
X0139613Y0074837D01*
X0139613Y0075835D02*
X0153830Y0075835D01*
X0152831Y0076834D02*
X0139613Y0076834D01*
X0139613Y0077832D02*
X0151833Y0077832D01*
X0150834Y0078831D02*
X0139613Y0078831D01*
X0139613Y0079829D02*
X0149836Y0079829D01*
X0148837Y0080828D02*
X0139613Y0080828D01*
X0139613Y0081826D02*
X0147953Y0081826D01*
X0147593Y0082825D02*
X0139613Y0082825D01*
X0139613Y0083823D02*
X0147593Y0083823D01*
X0147593Y0084822D02*
X0139613Y0084822D01*
X0139613Y0085820D02*
X0147593Y0085820D01*
X0147593Y0086819D02*
X0139613Y0086819D01*
X0139613Y0087817D02*
X0147593Y0087817D01*
X0147593Y0088816D02*
X0139613Y0088816D01*
X0139613Y0089814D02*
X0147593Y0089814D01*
X0147593Y0090813D02*
X0139613Y0090813D01*
X0139613Y0091811D02*
X0147593Y0091811D01*
X0147593Y0092810D02*
X0139613Y0092810D01*
X0139613Y0093808D02*
X0147593Y0093808D01*
X0147593Y0094807D02*
X0139613Y0094807D01*
X0139613Y0095805D02*
X0147593Y0095805D01*
X0147593Y0096804D02*
X0139613Y0096804D01*
X0139613Y0097802D02*
X0147593Y0097802D01*
X0147593Y0098801D02*
X0139613Y0098801D01*
X0139613Y0099799D02*
X0147593Y0099799D01*
X0147593Y0100798D02*
X0139613Y0100798D01*
X0139613Y0101796D02*
X0147593Y0101796D01*
X0147593Y0102795D02*
X0139613Y0102795D01*
X0139613Y0103793D02*
X0147593Y0103793D01*
X0147593Y0104792D02*
X0139613Y0104792D01*
X0139613Y0105791D02*
X0147593Y0105791D01*
X0147593Y0106789D02*
X0139613Y0106789D01*
X0139613Y0107788D02*
X0147593Y0107788D01*
X0147593Y0108786D02*
X0139613Y0108786D01*
X0139613Y0109785D02*
X0147593Y0109785D01*
X0147593Y0110783D02*
X0139613Y0110783D01*
X0139613Y0111782D02*
X0147593Y0111782D01*
X0147593Y0112780D02*
X0139613Y0112780D01*
X0139613Y0113779D02*
X0147593Y0113779D01*
X0147593Y0114777D02*
X0139613Y0114777D01*
X0139613Y0115776D02*
X0147593Y0115776D01*
X0147593Y0116774D02*
X0139613Y0116774D01*
X0139613Y0117773D02*
X0147593Y0117773D01*
X0147593Y0118771D02*
X0139613Y0118771D01*
X0139613Y0119770D02*
X0147593Y0119770D01*
X0147593Y0120768D02*
X0139613Y0120768D01*
X0139613Y0121767D02*
X0147593Y0121767D01*
X0147593Y0122765D02*
X0139613Y0122765D01*
X0139613Y0123764D02*
X0147593Y0123764D01*
X0147593Y0124762D02*
X0139613Y0124762D01*
X0139613Y0125761D02*
X0147593Y0125761D01*
X0147593Y0126759D02*
X0139613Y0126759D01*
X0139613Y0127758D02*
X0147593Y0127758D01*
X0147593Y0128756D02*
X0139613Y0128756D01*
X0139613Y0129755D02*
X0147593Y0129755D01*
X0147593Y0130753D02*
X0139613Y0130753D01*
X0139613Y0131752D02*
X0147593Y0131752D01*
X0147593Y0132750D02*
X0139613Y0132750D01*
X0139613Y0133749D02*
X0147593Y0133749D01*
X0147593Y0134747D02*
X0139613Y0134747D01*
X0139613Y0135746D02*
X0147593Y0135746D01*
X0147593Y0136744D02*
X0139613Y0136744D01*
X0139613Y0137743D02*
X0147593Y0137743D01*
X0147593Y0138741D02*
X0139613Y0138741D01*
X0139613Y0139740D02*
X0147593Y0139740D01*
X0147593Y0140738D02*
X0139613Y0140738D01*
X0112160Y0128756D02*
X0103240Y0128756D01*
X0106398Y0127758D02*
X0112160Y0127758D01*
X0112160Y0126759D02*
X0108128Y0126759D01*
X0109857Y0125761D02*
X0112160Y0125761D01*
X0112160Y0124762D02*
X0110955Y0124762D01*
X0111953Y0123764D02*
X0112160Y0123764D01*
X0095596Y0092810D02*
X0067040Y0092810D01*
X0105740Y0076834D02*
X0133813Y0076834D01*
X0133813Y0075835D02*
X0107972Y0075835D01*
X0108970Y0074837D02*
X0133813Y0074837D01*
X0133813Y0073838D02*
X0109895Y0073838D01*
X0110309Y0072840D02*
X0133813Y0072840D01*
X0133813Y0071841D02*
X0110722Y0071841D01*
X0110924Y0070843D02*
X0133813Y0070843D01*
X0133813Y0069844D02*
X0110924Y0069844D01*
X0110924Y0068846D02*
X0133813Y0068846D01*
X0133813Y0067847D02*
X0110641Y0067847D01*
X0110227Y0066849D02*
X0120944Y0066849D01*
X0118690Y0065850D02*
X0109772Y0065850D01*
X0124704Y0066849D02*
X0133813Y0066849D01*
X0133813Y0065850D02*
X0126957Y0065850D01*
X0127955Y0064852D02*
X0133813Y0064852D01*
X0133813Y0063853D02*
X0128889Y0063853D01*
X0129302Y0062855D02*
X0133813Y0062855D01*
X0133813Y0061856D02*
X0129716Y0061856D01*
X0129924Y0060858D02*
X0133813Y0060858D01*
X0133813Y0059859D02*
X0129924Y0059859D01*
X0129924Y0058860D02*
X0133641Y0058860D01*
X0132642Y0057862D02*
X0129647Y0057862D01*
X0129233Y0056863D02*
X0131644Y0056863D01*
X0130645Y0055865D02*
X0128787Y0055865D01*
X0129646Y0054866D02*
X0127789Y0054866D01*
X0128648Y0053868D02*
X0126712Y0053868D01*
X0127649Y0052869D02*
X0124301Y0052869D01*
X0125652Y0050872D02*
X0080863Y0050872D01*
X0079865Y0051871D02*
X0126651Y0051871D01*
X0124654Y0049874D02*
X0081862Y0049874D01*
X0082860Y0048875D02*
X0123655Y0048875D01*
X0122657Y0047877D02*
X0083859Y0047877D01*
X0084857Y0046878D02*
X0121658Y0046878D01*
X0120660Y0045880D02*
X0085856Y0045880D01*
X0086854Y0044881D02*
X0119661Y0044881D01*
X0118818Y0043883D02*
X0087853Y0043883D01*
X0088852Y0042884D02*
X0118487Y0042884D01*
X0118487Y0041886D02*
X0089850Y0041886D01*
X0090849Y0040887D02*
X0118487Y0040887D01*
X0118487Y0039889D02*
X0115336Y0039889D01*
X0115012Y0039889D02*
X0091847Y0039889D01*
X0091924Y0038890D02*
X0112349Y0038890D01*
X0110431Y0037892D02*
X0091924Y0037892D01*
X0091924Y0036893D02*
X0108512Y0036893D01*
X0106594Y0035895D02*
X0091924Y0035895D01*
X0091924Y0034896D02*
X0104676Y0034896D01*
X0102758Y0033898D02*
X0091924Y0033898D01*
X0091924Y0032899D02*
X0100840Y0032899D01*
X0098922Y0031901D02*
X0091924Y0031901D01*
X0091924Y0030902D02*
X0097822Y0030902D01*
X0097441Y0029904D02*
X0091924Y0029904D01*
X0091924Y0028905D02*
X0097126Y0028905D01*
X0096811Y0027907D02*
X0091924Y0027907D01*
X0091924Y0026908D02*
X0096796Y0026908D01*
X0095643Y0025910D02*
X0091924Y0025910D01*
X0091924Y0024911D02*
X0093725Y0024911D01*
X0093054Y0023913D02*
X0091924Y0023913D01*
X0091924Y0022914D02*
X0092837Y0022914D01*
X0093357Y0021916D02*
X0091924Y0021916D01*
X0091924Y0020917D02*
X0093877Y0020917D01*
X0094396Y0019919D02*
X0091924Y0019919D01*
X0091924Y0018920D02*
X0094916Y0018920D01*
X0095436Y0017922D02*
X0091924Y0017922D01*
X0091924Y0016923D02*
X0095956Y0016923D01*
X0096475Y0015924D02*
X0091924Y0015924D01*
X0091924Y0014926D02*
X0096995Y0014926D01*
X0097691Y0013927D02*
X0091924Y0013927D01*
X0091924Y0012929D02*
X0098035Y0012929D01*
X0098555Y0011930D02*
X0091924Y0011930D01*
X0091924Y0010932D02*
X0099074Y0010932D01*
X0099594Y0009933D02*
X0091924Y0009933D01*
X0091924Y0008935D02*
X0100114Y0008935D01*
X0100634Y0007936D02*
X0091924Y0007936D01*
X0091924Y0006938D02*
X0101154Y0006938D01*
X0107276Y0006938D02*
X0112374Y0006938D01*
X0115506Y0006938D02*
X0119428Y0006938D01*
X0109207Y0007936D02*
X0109194Y0007936D01*
X0118432Y0038890D02*
X0118487Y0038890D01*
X0124287Y0040887D02*
X0124415Y0040887D01*
X0124868Y0041886D02*
X0126333Y0041886D01*
X0125867Y0042884D02*
X0128251Y0042884D01*
X0126865Y0043883D02*
X0130169Y0043883D01*
X0137818Y0040585D02*
X0137818Y0040585D01*
X0156370Y0033898D02*
X0162758Y0033898D01*
X0164676Y0034896D02*
X0158780Y0034896D01*
X0159817Y0035895D02*
X0166594Y0035895D01*
X0168512Y0036893D02*
X0160815Y0036893D01*
X0161245Y0037892D02*
X0170431Y0037892D01*
X0172349Y0038890D02*
X0161659Y0038890D01*
X0180005Y0057862D02*
X0268289Y0057862D01*
X0265086Y0058860D02*
X0179007Y0058860D01*
X0178008Y0059859D02*
X0263356Y0059859D01*
X0262211Y0060858D02*
X0177010Y0060858D01*
X0176011Y0061856D02*
X0261212Y0061856D01*
X0260521Y0062855D02*
X0175013Y0062855D01*
X0174014Y0063853D02*
X0259945Y0063853D01*
X0259428Y0064852D02*
X0173016Y0064852D01*
X0172017Y0065850D02*
X0259161Y0065850D01*
X0258893Y0066849D02*
X0171019Y0066849D01*
X0170020Y0067847D02*
X0258724Y0067847D01*
X0258724Y0068846D02*
X0169022Y0068846D01*
X0168023Y0069844D02*
X0258724Y0069844D01*
X0258841Y0070843D02*
X0167025Y0070843D01*
X0166026Y0071841D02*
X0259109Y0071841D01*
X0259376Y0072840D02*
X0165028Y0072840D01*
X0164029Y0073838D02*
X0259833Y0073838D01*
X0260410Y0074837D02*
X0163031Y0074837D01*
X0162032Y0075835D02*
X0261019Y0075835D01*
X0262017Y0076834D02*
X0161034Y0076834D01*
X0160035Y0077832D02*
X0263021Y0077832D01*
X0264751Y0078831D02*
X0159036Y0078831D01*
X0121346Y0052869D02*
X0078866Y0052869D01*
X0169194Y0007936D02*
X0169207Y0007936D01*
X0239096Y0084822D02*
X0307746Y0084822D01*
X0308661Y0085820D02*
X0242822Y0085820D01*
X0244597Y0086819D02*
X0309659Y0086819D01*
X0311868Y0087817D02*
X0246326Y0087817D01*
X0247648Y0088816D02*
X0322724Y0088816D01*
X0322724Y0089814D02*
X0248646Y0089814D01*
X0249645Y0090813D02*
X0322724Y0090813D01*
X0322724Y0091811D02*
X0250586Y0091811D01*
X0251162Y0092810D02*
X0322724Y0092810D01*
X0322724Y0093808D02*
X0251739Y0093808D01*
X0252315Y0094807D02*
X0322724Y0094807D01*
X0322724Y0095805D02*
X0252892Y0095805D01*
X0253176Y0096804D02*
X0322724Y0096804D01*
X0322724Y0097802D02*
X0253444Y0097802D01*
X0253711Y0098801D02*
X0322724Y0098801D01*
X0322724Y0099799D02*
X0253979Y0099799D01*
X0254174Y0100798D02*
X0322724Y0100798D01*
X0322724Y0101796D02*
X0254174Y0101796D01*
X0254174Y0102795D02*
X0322724Y0102795D01*
X0322724Y0103793D02*
X0254174Y0103793D01*
X0254174Y0104792D02*
X0322724Y0104792D01*
X0322724Y0105791D02*
X0254058Y0105791D01*
X0253790Y0106789D02*
X0322724Y0106789D01*
X0322724Y0107788D02*
X0253523Y0107788D01*
X0253255Y0108786D02*
X0322724Y0108786D01*
X0322724Y0109785D02*
X0322511Y0109785D01*
X0315137Y0109785D02*
X0252988Y0109785D01*
X0252486Y0110783D02*
X0313942Y0110783D01*
X0320905Y0122765D02*
X0322724Y0122765D01*
X0322724Y0087817D02*
X0315779Y0087817D01*
X0317988Y0086819D02*
X0322724Y0086819D01*
X0322724Y0085820D02*
X0318987Y0085820D01*
X0319902Y0084822D02*
X0322724Y0084822D01*
X0322724Y0083823D02*
X0320315Y0083823D01*
X0320729Y0082825D02*
X0322724Y0082825D01*
X0322724Y0081826D02*
X0320924Y0081826D01*
X0320924Y0080828D02*
X0322724Y0080828D01*
X0322724Y0079829D02*
X0320924Y0079829D01*
X0320634Y0078831D02*
X0322724Y0078831D01*
X0322724Y0077832D02*
X0320220Y0077832D01*
X0319756Y0076834D02*
X0322724Y0076834D01*
X0322724Y0075835D02*
X0318757Y0075835D01*
X0317636Y0074837D02*
X0322724Y0074837D01*
X0231452Y0120768D02*
X0213039Y0120768D01*
X0213923Y0119770D02*
X0228269Y0119770D01*
X0226540Y0118771D02*
X0214337Y0118771D01*
X0214750Y0117773D02*
X0224810Y0117773D01*
X0223705Y0116774D02*
X0214924Y0116774D01*
X0214924Y0115776D02*
X0222706Y0115776D01*
X0221708Y0114777D02*
X0214924Y0114777D01*
X0214612Y0113779D02*
X0220891Y0113779D01*
X0220315Y0112780D02*
X0214199Y0112780D01*
X0213704Y0111782D02*
X0219738Y0111782D01*
X0219162Y0110783D02*
X0212705Y0110783D01*
X0218067Y0143734D02*
X0231065Y0143734D01*
X0232064Y0144732D02*
X0219810Y0144732D01*
X0221539Y0145731D02*
X0233062Y0145731D01*
X0234061Y0146729D02*
X0222849Y0146729D01*
X0223847Y0147728D02*
X0235059Y0147728D01*
X0162420Y0172691D02*
X0144598Y0172691D01*
X0144598Y0173689D02*
X0162420Y0173689D01*
X0162420Y0174688D02*
X0144598Y0174688D01*
X0144598Y0175686D02*
X0162420Y0175686D01*
X0162420Y0176685D02*
X0158916Y0176685D01*
X0160679Y0177683D02*
X0162086Y0177683D01*
X0155975Y0176685D02*
X0151042Y0176685D01*
X0152805Y0177683D02*
X0154212Y0177683D01*
X0148101Y0176685D02*
X0144598Y0176685D01*
X0144931Y0177683D02*
X0146338Y0177683D01*
X0130590Y0177683D02*
X0129183Y0177683D01*
X0099428Y0176685D02*
X0071431Y0176685D01*
X0072430Y0177683D02*
X0090439Y0177683D01*
X0090154Y0178682D02*
X0073428Y0178682D01*
X0074427Y0179680D02*
X0090154Y0179680D01*
X0090154Y0180679D02*
X0075425Y0180679D01*
X0076424Y0181677D02*
X0094053Y0181677D01*
X0094053Y0181779D02*
X0090154Y0181779D01*
X0090154Y0184377D01*
X0090256Y0184758D01*
X0090453Y0185100D01*
X0090733Y0185380D01*
X0091075Y0185577D01*
X0091456Y0185679D01*
X0094054Y0185679D01*
X0094054Y0181779D01*
X0094054Y0182676D02*
X0094854Y0182676D01*
X0094854Y0183674D02*
X0094054Y0183674D01*
X0094054Y0184673D02*
X0094854Y0184673D01*
X0094854Y0185671D02*
X0094054Y0185671D01*
X0091426Y0185671D02*
X0080418Y0185671D01*
X0079419Y0184673D02*
X0090233Y0184673D01*
X0090154Y0183674D02*
X0078421Y0183674D01*
X0077422Y0182676D02*
X0090154Y0182676D01*
X0094054Y0180679D02*
X0094854Y0180679D01*
X0094854Y0179680D02*
X0094054Y0179680D01*
X0094054Y0178682D02*
X0094854Y0178682D01*
X0094854Y0177683D02*
X0094054Y0177683D01*
X0098468Y0177683D02*
X0099094Y0177683D01*
X0099428Y0175686D02*
X0070433Y0175686D01*
X0069434Y0174688D02*
X0099428Y0174688D01*
X0099428Y0173689D02*
X0068436Y0173689D01*
X0067437Y0172691D02*
X0099428Y0172691D01*
X0098691Y0184673D02*
X0098674Y0184673D01*
X0097481Y0185671D02*
X0099885Y0185671D01*
X0077208Y0190664D02*
X0006924Y0190664D01*
D18*
X0055020Y0121344D03*
X0075020Y0101344D03*
X0013446Y0091501D03*
X0089824Y0053942D03*
X0147343Y0052171D03*
X0202580Y0051580D03*
X0230139Y0075202D03*
X0294509Y0097879D03*
X0203135Y0137249D03*
X0279820Y0160871D03*
M02*
