G75*
%MOIN*%
%OFA0B0*%
%FSLAX25Y25*%
%IPPOS*%
%LPD*%
%AMOC8*
5,1,8,0,0,1.08239X$1,22.5*
%
%ADD10C,0.00900*%
%ADD11R,0.05400X0.05400*%
%ADD12C,0.05400*%
%ADD13C,0.07800*%
%ADD14C,0.01000*%
%ADD15C,0.03762*%
D10*
X0130857Y0014457D02*
X0132759Y0016359D01*
X0131808Y0016359D02*
X0134661Y0016359D01*
X0134661Y0014457D02*
X0134661Y0020162D01*
X0131808Y0020162D01*
X0130857Y0019211D01*
X0130857Y0017310D01*
X0131808Y0016359D01*
X0136935Y0014457D02*
X0140738Y0014457D01*
X0140738Y0020162D01*
X0136935Y0020162D01*
X0138836Y0017310D02*
X0140738Y0017310D01*
X0143012Y0019211D02*
X0143012Y0015408D01*
X0143963Y0014457D01*
X0146815Y0014457D01*
X0146815Y0020162D01*
X0143963Y0020162D01*
X0143012Y0019211D01*
X0149089Y0014457D02*
X0152892Y0014457D01*
X0152892Y0020162D01*
X0155166Y0020162D02*
X0158969Y0020162D01*
X0158969Y0014457D01*
X0155166Y0014457D01*
X0157068Y0017310D02*
X0158969Y0017310D01*
X0161243Y0017310D02*
X0165047Y0017310D01*
X0165047Y0020162D02*
X0165047Y0014457D01*
X0161243Y0014457D02*
X0161243Y0020162D01*
D11*
X0094454Y0181379D03*
D12*
X0102328Y0181379D03*
X0110202Y0181379D03*
X0118076Y0181379D03*
X0125950Y0181379D03*
X0133824Y0181379D03*
X0141698Y0181379D03*
X0149572Y0181379D03*
X0157446Y0181379D03*
X0165320Y0181379D03*
X0173194Y0181379D03*
D13*
X0305924Y0198942D02*
X0313724Y0198942D01*
X0039724Y0184942D02*
X0031924Y0184942D01*
D14*
X0006924Y0084812D02*
X0038693Y0053042D01*
X0078693Y0053042D01*
X0090693Y0041042D01*
X0090693Y0041042D01*
X0091924Y0039812D01*
X0091924Y0006042D01*
X0209724Y0006042D01*
X0209724Y0008043D01*
X0211006Y0016142D01*
X0211006Y0016142D01*
X0213541Y0023942D01*
X0213541Y0023942D01*
X0217264Y0031249D01*
X0217264Y0031249D01*
X0222084Y0037883D01*
X0222084Y0037883D01*
X0227883Y0043682D01*
X0227883Y0043682D01*
X0234517Y0048502D01*
X0234517Y0048502D01*
X0241824Y0052225D01*
X0241824Y0052225D01*
X0249623Y0054759D01*
X0249624Y0054759D01*
X0257723Y0056042D01*
X0322724Y0056042D01*
X0322724Y0109873D01*
X0320236Y0108842D01*
X0317411Y0108842D01*
X0314802Y0109923D01*
X0312805Y0111921D01*
X0311724Y0114530D01*
X0311724Y0117355D01*
X0312805Y0119964D01*
X0314802Y0121961D01*
X0317411Y0123042D01*
X0320236Y0123042D01*
X0322724Y0122012D01*
X0322724Y0207590D01*
X0241747Y0207590D01*
X0230614Y0199204D01*
X0230103Y0198693D01*
X0229936Y0198693D01*
X0229802Y0198592D01*
X0229086Y0198693D01*
X0155300Y0198693D01*
X0147426Y0190819D01*
X0006924Y0190819D01*
X0006924Y0084812D01*
X0006924Y0084822D02*
X0307746Y0084822D01*
X0307805Y0084964D02*
X0306724Y0082355D01*
X0306724Y0079530D01*
X0307805Y0076921D01*
X0309802Y0074923D01*
X0312411Y0073842D01*
X0315236Y0073842D01*
X0317845Y0074923D01*
X0319843Y0076921D01*
X0320924Y0079530D01*
X0320924Y0082355D01*
X0319843Y0084964D01*
X0317845Y0086961D01*
X0315236Y0088042D01*
X0312411Y0088042D01*
X0309802Y0086961D01*
X0307805Y0084964D01*
X0308661Y0085820D02*
X0006924Y0085820D01*
X0006924Y0086819D02*
X0309659Y0086819D01*
X0311868Y0087817D02*
X0006924Y0087817D01*
X0006924Y0088816D02*
X0322724Y0088816D01*
X0322724Y0089814D02*
X0006924Y0089814D01*
X0006924Y0090813D02*
X0322724Y0090813D01*
X0322724Y0091811D02*
X0006924Y0091811D01*
X0006924Y0092810D02*
X0322724Y0092810D01*
X0322724Y0093808D02*
X0006924Y0093808D01*
X0006924Y0094807D02*
X0322724Y0094807D01*
X0322724Y0095805D02*
X0006924Y0095805D01*
X0006924Y0096804D02*
X0322724Y0096804D01*
X0322724Y0097802D02*
X0006924Y0097802D01*
X0006924Y0098801D02*
X0322724Y0098801D01*
X0322724Y0099799D02*
X0006924Y0099799D01*
X0006924Y0100798D02*
X0322724Y0100798D01*
X0322724Y0101796D02*
X0006924Y0101796D01*
X0006924Y0102795D02*
X0322724Y0102795D01*
X0322724Y0103793D02*
X0006924Y0103793D01*
X0006924Y0104792D02*
X0322724Y0104792D01*
X0322724Y0105791D02*
X0006924Y0105791D01*
X0006924Y0106789D02*
X0322724Y0106789D01*
X0322724Y0107788D02*
X0006924Y0107788D01*
X0006924Y0108786D02*
X0322724Y0108786D01*
X0322724Y0109785D02*
X0322511Y0109785D01*
X0315137Y0109785D02*
X0211511Y0109785D01*
X0211845Y0109923D02*
X0213843Y0111921D01*
X0214924Y0114530D01*
X0214924Y0117355D01*
X0213843Y0119964D01*
X0211845Y0121961D01*
X0209236Y0123042D01*
X0206411Y0123042D01*
X0203802Y0121961D01*
X0201805Y0119964D01*
X0200724Y0117355D01*
X0200724Y0114530D01*
X0201805Y0111921D01*
X0203802Y0109923D01*
X0206411Y0108842D01*
X0209236Y0108842D01*
X0211845Y0109923D01*
X0212705Y0110783D02*
X0313942Y0110783D01*
X0312943Y0111782D02*
X0213704Y0111782D01*
X0214199Y0112780D02*
X0312448Y0112780D01*
X0312035Y0113779D02*
X0214612Y0113779D01*
X0214924Y0114777D02*
X0311724Y0114777D01*
X0311724Y0115776D02*
X0214924Y0115776D01*
X0214924Y0116774D02*
X0311724Y0116774D01*
X0311897Y0117773D02*
X0214750Y0117773D01*
X0214337Y0118771D02*
X0312310Y0118771D01*
X0312724Y0119770D02*
X0213923Y0119770D01*
X0213039Y0120768D02*
X0313609Y0120768D01*
X0314607Y0121767D02*
X0212040Y0121767D01*
X0209905Y0122765D02*
X0316742Y0122765D01*
X0320905Y0122765D02*
X0322724Y0122765D01*
X0322724Y0123764D02*
X0006924Y0123764D01*
X0006924Y0124762D02*
X0322724Y0124762D01*
X0322724Y0125761D02*
X0006924Y0125761D01*
X0006924Y0126759D02*
X0322724Y0126759D01*
X0322724Y0127758D02*
X0006924Y0127758D01*
X0006924Y0128756D02*
X0322724Y0128756D01*
X0322724Y0129755D02*
X0006924Y0129755D01*
X0006924Y0130753D02*
X0322724Y0130753D01*
X0322724Y0131752D02*
X0006924Y0131752D01*
X0006924Y0132750D02*
X0322724Y0132750D01*
X0322724Y0133749D02*
X0006924Y0133749D01*
X0006924Y0134747D02*
X0322724Y0134747D01*
X0322724Y0135746D02*
X0006924Y0135746D01*
X0006924Y0136744D02*
X0322724Y0136744D01*
X0322724Y0137743D02*
X0006924Y0137743D01*
X0006924Y0138741D02*
X0322724Y0138741D01*
X0322724Y0139740D02*
X0006924Y0139740D01*
X0006924Y0140738D02*
X0322724Y0140738D01*
X0322724Y0141737D02*
X0128396Y0141737D01*
X0128845Y0141923D02*
X0130843Y0143921D01*
X0131924Y0146530D01*
X0131924Y0149355D01*
X0130843Y0151964D01*
X0128845Y0153961D01*
X0126236Y0155042D01*
X0123411Y0155042D01*
X0120802Y0153961D01*
X0118805Y0151964D01*
X0117724Y0149355D01*
X0117724Y0146530D01*
X0118805Y0143921D01*
X0120802Y0141923D01*
X0123411Y0140842D01*
X0126236Y0140842D01*
X0128845Y0141923D01*
X0129658Y0142735D02*
X0322724Y0142735D01*
X0322724Y0143734D02*
X0130656Y0143734D01*
X0131179Y0144732D02*
X0322724Y0144732D01*
X0322724Y0145731D02*
X0131593Y0145731D01*
X0131924Y0146729D02*
X0322724Y0146729D01*
X0322724Y0147728D02*
X0131924Y0147728D01*
X0131924Y0148727D02*
X0322724Y0148727D01*
X0322724Y0149725D02*
X0131770Y0149725D01*
X0131357Y0150724D02*
X0322724Y0150724D01*
X0322724Y0151722D02*
X0130943Y0151722D01*
X0130086Y0152721D02*
X0322724Y0152721D01*
X0322724Y0153719D02*
X0129088Y0153719D01*
X0127020Y0154718D02*
X0322724Y0154718D01*
X0322724Y0155716D02*
X0026945Y0155716D01*
X0026843Y0155964D02*
X0024845Y0157961D01*
X0022236Y0159042D01*
X0019411Y0159042D01*
X0016802Y0157961D01*
X0014805Y0155964D01*
X0013724Y0153355D01*
X0013724Y0150530D01*
X0014805Y0147921D01*
X0016802Y0145923D01*
X0019411Y0144842D01*
X0022236Y0144842D01*
X0024845Y0145923D01*
X0026843Y0147921D01*
X0027924Y0150530D01*
X0027924Y0153355D01*
X0026843Y0155964D01*
X0026092Y0156715D02*
X0322724Y0156715D01*
X0322724Y0157713D02*
X0025094Y0157713D01*
X0023034Y0158712D02*
X0322724Y0158712D01*
X0322724Y0159710D02*
X0006924Y0159710D01*
X0006924Y0158712D02*
X0018613Y0158712D01*
X0016553Y0157713D02*
X0006924Y0157713D01*
X0006924Y0156715D02*
X0015555Y0156715D01*
X0014702Y0155716D02*
X0006924Y0155716D01*
X0006924Y0154718D02*
X0014288Y0154718D01*
X0013875Y0153719D02*
X0006924Y0153719D01*
X0006924Y0152721D02*
X0013724Y0152721D01*
X0013724Y0151722D02*
X0006924Y0151722D01*
X0006924Y0150724D02*
X0013724Y0150724D01*
X0014057Y0149725D02*
X0006924Y0149725D01*
X0006924Y0148727D02*
X0014471Y0148727D01*
X0014997Y0147728D02*
X0006924Y0147728D01*
X0006924Y0146729D02*
X0015996Y0146729D01*
X0017266Y0145731D02*
X0006924Y0145731D01*
X0006924Y0144732D02*
X0118468Y0144732D01*
X0118055Y0145731D02*
X0024381Y0145731D01*
X0025652Y0146729D02*
X0117724Y0146729D01*
X0117724Y0147728D02*
X0026650Y0147728D01*
X0027177Y0148727D02*
X0117724Y0148727D01*
X0117877Y0149725D02*
X0027590Y0149725D01*
X0027924Y0150724D02*
X0118291Y0150724D01*
X0118704Y0151722D02*
X0027924Y0151722D01*
X0027924Y0152721D02*
X0119561Y0152721D01*
X0120559Y0153719D02*
X0027773Y0153719D01*
X0027359Y0154718D02*
X0122627Y0154718D01*
X0118991Y0143734D02*
X0006924Y0143734D01*
X0006924Y0142735D02*
X0119990Y0142735D01*
X0121252Y0141737D02*
X0006924Y0141737D01*
X0006924Y0160709D02*
X0322724Y0160709D01*
X0322724Y0161707D02*
X0006924Y0161707D01*
X0006924Y0162706D02*
X0322724Y0162706D01*
X0322724Y0163704D02*
X0006924Y0163704D01*
X0006924Y0164703D02*
X0310334Y0164703D01*
X0309802Y0164923D02*
X0307805Y0166921D01*
X0306724Y0169530D01*
X0306724Y0172355D01*
X0307805Y0174964D01*
X0309802Y0176961D01*
X0312411Y0178042D01*
X0315236Y0178042D01*
X0317845Y0176961D01*
X0319843Y0174964D01*
X0320924Y0172355D01*
X0320924Y0169530D01*
X0319843Y0166921D01*
X0317845Y0164923D01*
X0315236Y0163842D01*
X0312411Y0163842D01*
X0309802Y0164923D01*
X0309024Y0165701D02*
X0006924Y0165701D01*
X0006924Y0166700D02*
X0308025Y0166700D01*
X0307482Y0167698D02*
X0018302Y0167698D01*
X0018845Y0167923D02*
X0020843Y0169921D01*
X0021924Y0172530D01*
X0021924Y0175355D01*
X0020843Y0177964D01*
X0018845Y0179961D01*
X0016236Y0181042D01*
X0013411Y0181042D01*
X0010802Y0179961D01*
X0008805Y0177964D01*
X0007724Y0175355D01*
X0007724Y0172530D01*
X0008805Y0169921D01*
X0010802Y0167923D01*
X0013411Y0166842D01*
X0016236Y0166842D01*
X0018845Y0167923D01*
X0019619Y0168697D02*
X0307069Y0168697D01*
X0306724Y0169695D02*
X0020617Y0169695D01*
X0021163Y0170694D02*
X0306724Y0170694D01*
X0306724Y0171692D02*
X0021577Y0171692D01*
X0021924Y0172691D02*
X0306863Y0172691D01*
X0307276Y0173689D02*
X0021924Y0173689D01*
X0021924Y0174688D02*
X0307690Y0174688D01*
X0308527Y0175686D02*
X0021786Y0175686D01*
X0021373Y0176685D02*
X0101118Y0176685D01*
X0101373Y0176579D02*
X0099609Y0177310D01*
X0098608Y0178311D01*
X0098551Y0178100D01*
X0098354Y0177758D01*
X0098075Y0177479D01*
X0097733Y0177282D01*
X0097351Y0177179D01*
X0094854Y0177179D01*
X0094854Y0180979D01*
X0094054Y0180979D01*
X0094054Y0177179D01*
X0091556Y0177179D01*
X0091175Y0177282D01*
X0090833Y0177479D01*
X0090553Y0177758D01*
X0090356Y0178100D01*
X0090254Y0178482D01*
X0090254Y0180979D01*
X0094053Y0180979D01*
X0094053Y0181779D01*
X0090254Y0181779D01*
X0090254Y0184277D01*
X0090356Y0184658D01*
X0090553Y0185000D01*
X0090833Y0185280D01*
X0091175Y0185477D01*
X0091556Y0185579D01*
X0094054Y0185579D01*
X0094054Y0181779D01*
X0094854Y0181779D01*
X0094854Y0185579D01*
X0097351Y0185579D01*
X0097733Y0185477D01*
X0098075Y0185280D01*
X0098354Y0185000D01*
X0098551Y0184658D01*
X0098608Y0184448D01*
X0099609Y0185449D01*
X0101373Y0186179D01*
X0103282Y0186179D01*
X0105047Y0185449D01*
X0106265Y0184231D01*
X0107483Y0185449D01*
X0109247Y0186179D01*
X0111156Y0186179D01*
X0112921Y0185449D01*
X0114139Y0184231D01*
X0115357Y0185449D01*
X0117121Y0186179D01*
X0119030Y0186179D01*
X0120795Y0185449D01*
X0122013Y0184231D01*
X0123231Y0185449D01*
X0124995Y0186179D01*
X0126904Y0186179D01*
X0128669Y0185449D01*
X0129887Y0184231D01*
X0131105Y0185449D01*
X0132869Y0186179D01*
X0134778Y0186179D01*
X0136543Y0185449D01*
X0137761Y0184231D01*
X0138979Y0185449D01*
X0140743Y0186179D01*
X0142652Y0186179D01*
X0144417Y0185449D01*
X0145635Y0184231D01*
X0146853Y0185449D01*
X0148617Y0186179D01*
X0150526Y0186179D01*
X0152291Y0185449D01*
X0153509Y0184231D01*
X0154727Y0185449D01*
X0156491Y0186179D01*
X0158400Y0186179D01*
X0160165Y0185449D01*
X0161383Y0184231D01*
X0162601Y0185449D01*
X0164365Y0186179D01*
X0166274Y0186179D01*
X0168039Y0185449D01*
X0169257Y0184231D01*
X0170475Y0185449D01*
X0172239Y0186179D01*
X0174148Y0186179D01*
X0175913Y0185449D01*
X0177263Y0184098D01*
X0177994Y0182334D01*
X0177994Y0180425D01*
X0177263Y0178660D01*
X0175913Y0177310D01*
X0174148Y0176579D01*
X0172239Y0176579D01*
X0170475Y0177310D01*
X0169257Y0178528D01*
X0168039Y0177310D01*
X0166274Y0176579D01*
X0164365Y0176579D01*
X0162601Y0177310D01*
X0161383Y0178528D01*
X0160165Y0177310D01*
X0158400Y0176579D01*
X0156491Y0176579D01*
X0154727Y0177310D01*
X0153509Y0178528D01*
X0152291Y0177310D01*
X0150526Y0176579D01*
X0148617Y0176579D01*
X0146853Y0177310D01*
X0145635Y0178528D01*
X0144417Y0177310D01*
X0142652Y0176579D01*
X0140743Y0176579D01*
X0138979Y0177310D01*
X0137761Y0178528D01*
X0136543Y0177310D01*
X0134778Y0176579D01*
X0132869Y0176579D01*
X0131105Y0177310D01*
X0129887Y0178528D01*
X0128669Y0177310D01*
X0126904Y0176579D01*
X0124995Y0176579D01*
X0123231Y0177310D01*
X0122013Y0178528D01*
X0120795Y0177310D01*
X0119030Y0176579D01*
X0117121Y0176579D01*
X0115357Y0177310D01*
X0114139Y0178528D01*
X0112921Y0177310D01*
X0111156Y0176579D01*
X0109247Y0176579D01*
X0107483Y0177310D01*
X0106265Y0178528D01*
X0105047Y0177310D01*
X0103282Y0176579D01*
X0101373Y0176579D01*
X0103537Y0176685D02*
X0108992Y0176685D01*
X0107109Y0177683D02*
X0105420Y0177683D01*
X0111411Y0176685D02*
X0116866Y0176685D01*
X0114983Y0177683D02*
X0113294Y0177683D01*
X0119285Y0176685D02*
X0124740Y0176685D01*
X0122857Y0177683D02*
X0121168Y0177683D01*
X0127159Y0176685D02*
X0132614Y0176685D01*
X0130731Y0177683D02*
X0129042Y0177683D01*
X0135033Y0176685D02*
X0140488Y0176685D01*
X0138605Y0177683D02*
X0136916Y0177683D01*
X0142907Y0176685D02*
X0148362Y0176685D01*
X0146479Y0177683D02*
X0144790Y0177683D01*
X0150781Y0176685D02*
X0156236Y0176685D01*
X0154353Y0177683D02*
X0152664Y0177683D01*
X0158655Y0176685D02*
X0164110Y0176685D01*
X0162227Y0177683D02*
X0160538Y0177683D01*
X0166529Y0176685D02*
X0171984Y0176685D01*
X0170102Y0177683D02*
X0168412Y0177683D01*
X0174403Y0176685D02*
X0309525Y0176685D01*
X0311545Y0177683D02*
X0176286Y0177683D01*
X0177272Y0178682D02*
X0322724Y0178682D01*
X0322724Y0179680D02*
X0177685Y0179680D01*
X0177994Y0180679D02*
X0322724Y0180679D01*
X0322724Y0181677D02*
X0177994Y0181677D01*
X0177852Y0182676D02*
X0322724Y0182676D01*
X0322724Y0183674D02*
X0177439Y0183674D01*
X0176688Y0184673D02*
X0322724Y0184673D01*
X0322724Y0185671D02*
X0175375Y0185671D01*
X0171013Y0185671D02*
X0167501Y0185671D01*
X0168814Y0184673D02*
X0169699Y0184673D01*
X0163139Y0185671D02*
X0159627Y0185671D01*
X0160940Y0184673D02*
X0161825Y0184673D01*
X0155265Y0185671D02*
X0151753Y0185671D01*
X0153066Y0184673D02*
X0153951Y0184673D01*
X0147391Y0185671D02*
X0143879Y0185671D01*
X0145192Y0184673D02*
X0146077Y0184673D01*
X0139517Y0185671D02*
X0136005Y0185671D01*
X0137318Y0184673D02*
X0138203Y0184673D01*
X0131643Y0185671D02*
X0128131Y0185671D01*
X0129444Y0184673D02*
X0130329Y0184673D01*
X0123769Y0185671D02*
X0120257Y0185671D01*
X0121570Y0184673D02*
X0122455Y0184673D01*
X0115895Y0185671D02*
X0112383Y0185671D01*
X0113696Y0184673D02*
X0114581Y0184673D01*
X0108021Y0185671D02*
X0104509Y0185671D01*
X0105822Y0184673D02*
X0106707Y0184673D01*
X0100147Y0185671D02*
X0045075Y0185671D01*
X0045112Y0185442D02*
X0044991Y0186207D01*
X0044728Y0187015D01*
X0044342Y0187773D01*
X0043843Y0188460D01*
X0043241Y0189061D01*
X0042554Y0189561D01*
X0041796Y0189947D01*
X0040988Y0190209D01*
X0040149Y0190342D01*
X0036324Y0190342D01*
X0036324Y0185442D01*
X0045112Y0185442D01*
X0045112Y0184442D02*
X0036324Y0184442D01*
X0036324Y0185442D01*
X0035324Y0185442D01*
X0035324Y0190342D01*
X0031499Y0190342D01*
X0030659Y0190209D01*
X0029851Y0189947D01*
X0029093Y0189561D01*
X0028406Y0189061D01*
X0027805Y0188460D01*
X0027305Y0187773D01*
X0026919Y0187015D01*
X0026657Y0186207D01*
X0026535Y0185442D01*
X0035324Y0185442D01*
X0035324Y0184442D01*
X0036324Y0184442D01*
X0036324Y0179542D01*
X0040149Y0179542D01*
X0040988Y0179675D01*
X0041796Y0179938D01*
X0042554Y0180324D01*
X0043241Y0180823D01*
X0043843Y0181424D01*
X0044342Y0182112D01*
X0044728Y0182869D01*
X0044991Y0183678D01*
X0045112Y0184442D01*
X0044990Y0183674D02*
X0090254Y0183674D01*
X0090254Y0182676D02*
X0044629Y0182676D01*
X0044026Y0181677D02*
X0094053Y0181677D01*
X0094054Y0180679D02*
X0094854Y0180679D01*
X0094854Y0179680D02*
X0094054Y0179680D01*
X0094054Y0178682D02*
X0094854Y0178682D01*
X0094854Y0177683D02*
X0094054Y0177683D01*
X0090628Y0177683D02*
X0020959Y0177683D01*
X0020125Y0178682D02*
X0090254Y0178682D01*
X0090254Y0179680D02*
X0041004Y0179680D01*
X0043042Y0180679D02*
X0090254Y0180679D01*
X0094054Y0182676D02*
X0094854Y0182676D01*
X0094854Y0183674D02*
X0094054Y0183674D01*
X0094054Y0184673D02*
X0094854Y0184673D01*
X0098543Y0184673D02*
X0098833Y0184673D01*
X0099235Y0177683D02*
X0098279Y0177683D01*
X0090364Y0184673D02*
X0036324Y0184673D01*
X0036324Y0185671D02*
X0035324Y0185671D01*
X0035324Y0184673D02*
X0006924Y0184673D01*
X0006924Y0185671D02*
X0026572Y0185671D01*
X0026807Y0186670D02*
X0006924Y0186670D01*
X0006924Y0187668D02*
X0027252Y0187668D01*
X0028011Y0188667D02*
X0006924Y0188667D01*
X0006924Y0189665D02*
X0029299Y0189665D01*
X0026535Y0184442D02*
X0026657Y0183678D01*
X0026919Y0182869D01*
X0027305Y0182112D01*
X0027805Y0181424D01*
X0028406Y0180823D01*
X0029093Y0180324D01*
X0029851Y0179938D01*
X0030659Y0179675D01*
X0031499Y0179542D01*
X0035324Y0179542D01*
X0035324Y0184442D01*
X0026535Y0184442D01*
X0026658Y0183674D02*
X0006924Y0183674D01*
X0006924Y0182676D02*
X0027018Y0182676D01*
X0027621Y0181677D02*
X0006924Y0181677D01*
X0006924Y0180679D02*
X0012534Y0180679D01*
X0010521Y0179680D02*
X0006924Y0179680D01*
X0006924Y0178682D02*
X0009522Y0178682D01*
X0008688Y0177683D02*
X0006924Y0177683D01*
X0006924Y0176685D02*
X0008275Y0176685D01*
X0007861Y0175686D02*
X0006924Y0175686D01*
X0006924Y0174688D02*
X0007724Y0174688D01*
X0007724Y0173689D02*
X0006924Y0173689D01*
X0006924Y0172691D02*
X0007724Y0172691D01*
X0008071Y0171692D02*
X0006924Y0171692D01*
X0006924Y0170694D02*
X0008484Y0170694D01*
X0009030Y0169695D02*
X0006924Y0169695D01*
X0006924Y0168697D02*
X0010028Y0168697D01*
X0011345Y0167698D02*
X0006924Y0167698D01*
X0017113Y0180679D02*
X0028605Y0180679D01*
X0030644Y0179680D02*
X0019127Y0179680D01*
X0035324Y0179680D02*
X0036324Y0179680D01*
X0036324Y0180679D02*
X0035324Y0180679D01*
X0035324Y0181677D02*
X0036324Y0181677D01*
X0036324Y0182676D02*
X0035324Y0182676D01*
X0035324Y0183674D02*
X0036324Y0183674D01*
X0036324Y0186670D02*
X0035324Y0186670D01*
X0035324Y0187668D02*
X0036324Y0187668D01*
X0036324Y0188667D02*
X0035324Y0188667D01*
X0035324Y0189665D02*
X0036324Y0189665D01*
X0042349Y0189665D02*
X0322724Y0189665D01*
X0322724Y0188667D02*
X0043636Y0188667D01*
X0044395Y0187668D02*
X0322724Y0187668D01*
X0322724Y0186670D02*
X0044840Y0186670D01*
X0006924Y0190664D02*
X0322724Y0190664D01*
X0322724Y0191662D02*
X0148270Y0191662D01*
X0149268Y0192661D02*
X0322724Y0192661D01*
X0322724Y0193660D02*
X0314888Y0193660D01*
X0314988Y0193675D02*
X0315796Y0193938D01*
X0316554Y0194324D01*
X0317241Y0194823D01*
X0317843Y0195424D01*
X0318342Y0196112D01*
X0318728Y0196869D01*
X0318991Y0197678D01*
X0319112Y0198442D01*
X0310324Y0198442D01*
X0310324Y0199442D01*
X0319112Y0199442D01*
X0318991Y0200207D01*
X0318728Y0201015D01*
X0318342Y0201773D01*
X0317843Y0202460D01*
X0317241Y0203061D01*
X0316554Y0203561D01*
X0315796Y0203947D01*
X0314988Y0204209D01*
X0314149Y0204342D01*
X0310324Y0204342D01*
X0310324Y0199442D01*
X0309324Y0199442D01*
X0309324Y0204342D01*
X0305499Y0204342D01*
X0304659Y0204209D01*
X0303851Y0203947D01*
X0303093Y0203561D01*
X0302406Y0203061D01*
X0301805Y0202460D01*
X0301305Y0201773D01*
X0300919Y0201015D01*
X0300657Y0200207D01*
X0300535Y0199442D01*
X0309324Y0199442D01*
X0309324Y0198442D01*
X0310324Y0198442D01*
X0310324Y0193542D01*
X0314149Y0193542D01*
X0314988Y0193675D01*
X0317014Y0194658D02*
X0322724Y0194658D01*
X0322724Y0195657D02*
X0318011Y0195657D01*
X0318619Y0196655D02*
X0322724Y0196655D01*
X0322724Y0197654D02*
X0318983Y0197654D01*
X0319079Y0199651D02*
X0322724Y0199651D01*
X0322724Y0200649D02*
X0318847Y0200649D01*
X0318406Y0201648D02*
X0322724Y0201648D01*
X0322724Y0202646D02*
X0317657Y0202646D01*
X0316389Y0203645D02*
X0322724Y0203645D01*
X0322724Y0204643D02*
X0237834Y0204643D01*
X0236509Y0203645D02*
X0303258Y0203645D01*
X0301991Y0202646D02*
X0235183Y0202646D01*
X0233858Y0201648D02*
X0301241Y0201648D01*
X0300800Y0200649D02*
X0232532Y0200649D01*
X0231207Y0199651D02*
X0300568Y0199651D01*
X0300535Y0198442D02*
X0300657Y0197678D01*
X0300919Y0196869D01*
X0301305Y0196112D01*
X0301805Y0195424D01*
X0302406Y0194823D01*
X0303093Y0194324D01*
X0303851Y0193938D01*
X0304659Y0193675D01*
X0305499Y0193542D01*
X0309324Y0193542D01*
X0309324Y0198442D01*
X0300535Y0198442D01*
X0300664Y0197654D02*
X0154261Y0197654D01*
X0155259Y0198652D02*
X0229375Y0198652D01*
X0229882Y0198652D02*
X0309324Y0198652D01*
X0309324Y0197654D02*
X0310324Y0197654D01*
X0310324Y0198652D02*
X0322724Y0198652D01*
X0310324Y0199651D02*
X0309324Y0199651D01*
X0309324Y0200649D02*
X0310324Y0200649D01*
X0310324Y0201648D02*
X0309324Y0201648D01*
X0309324Y0202646D02*
X0310324Y0202646D01*
X0310324Y0203645D02*
X0309324Y0203645D01*
X0309324Y0196655D02*
X0310324Y0196655D01*
X0310324Y0195657D02*
X0309324Y0195657D01*
X0309324Y0194658D02*
X0310324Y0194658D01*
X0310324Y0193660D02*
X0309324Y0193660D01*
X0304759Y0193660D02*
X0150267Y0193660D01*
X0151265Y0194658D02*
X0302633Y0194658D01*
X0301636Y0195657D02*
X0152264Y0195657D01*
X0153262Y0196655D02*
X0301028Y0196655D01*
X0322724Y0205642D02*
X0239160Y0205642D01*
X0240485Y0206640D02*
X0322724Y0206640D01*
X0322724Y0177683D02*
X0316103Y0177683D01*
X0318122Y0176685D02*
X0322724Y0176685D01*
X0322724Y0175686D02*
X0319121Y0175686D01*
X0319957Y0174688D02*
X0322724Y0174688D01*
X0322724Y0173689D02*
X0320371Y0173689D01*
X0320784Y0172691D02*
X0322724Y0172691D01*
X0322724Y0171692D02*
X0320924Y0171692D01*
X0320924Y0170694D02*
X0322724Y0170694D01*
X0322724Y0169695D02*
X0320924Y0169695D01*
X0320578Y0168697D02*
X0322724Y0168697D01*
X0322724Y0167698D02*
X0320165Y0167698D01*
X0319622Y0166700D02*
X0322724Y0166700D01*
X0322724Y0165701D02*
X0318623Y0165701D01*
X0317313Y0164703D02*
X0322724Y0164703D01*
X0205742Y0122765D02*
X0006924Y0122765D01*
X0006924Y0121767D02*
X0203607Y0121767D01*
X0202609Y0120768D02*
X0006924Y0120768D01*
X0006924Y0119770D02*
X0201724Y0119770D01*
X0201310Y0118771D02*
X0006924Y0118771D01*
X0006924Y0117773D02*
X0200897Y0117773D01*
X0200724Y0116774D02*
X0006924Y0116774D01*
X0006924Y0115776D02*
X0200724Y0115776D01*
X0200724Y0114777D02*
X0006924Y0114777D01*
X0006924Y0113779D02*
X0201035Y0113779D01*
X0201448Y0112780D02*
X0006924Y0112780D01*
X0006924Y0111782D02*
X0201943Y0111782D01*
X0202942Y0110783D02*
X0006924Y0110783D01*
X0006924Y0109785D02*
X0204137Y0109785D01*
X0260941Y0075758D02*
X0259480Y0073227D01*
X0258724Y0070404D01*
X0258724Y0067481D01*
X0259480Y0064658D01*
X0260941Y0062127D01*
X0263008Y0060060D01*
X0265539Y0058599D01*
X0268362Y0057842D01*
X0271285Y0057842D01*
X0274108Y0058599D01*
X0276639Y0060060D01*
X0278706Y0062127D01*
X0280167Y0064658D01*
X0280924Y0067481D01*
X0280924Y0070404D01*
X0280167Y0073227D01*
X0278706Y0075758D01*
X0276639Y0077825D01*
X0274108Y0079286D01*
X0271285Y0080042D01*
X0268362Y0080042D01*
X0265539Y0079286D01*
X0263008Y0077825D01*
X0260941Y0075758D01*
X0261019Y0075835D02*
X0107972Y0075835D01*
X0107845Y0075961D02*
X0105236Y0077042D01*
X0102411Y0077042D01*
X0099802Y0075961D01*
X0097805Y0073964D01*
X0096724Y0071355D01*
X0096724Y0068530D01*
X0097805Y0065921D01*
X0099802Y0063923D01*
X0102411Y0062842D01*
X0105236Y0062842D01*
X0107845Y0063923D01*
X0109843Y0065921D01*
X0110924Y0068530D01*
X0110924Y0071355D01*
X0109843Y0073964D01*
X0107845Y0075961D01*
X0108970Y0074837D02*
X0260410Y0074837D01*
X0259833Y0073838D02*
X0109895Y0073838D01*
X0110309Y0072840D02*
X0259376Y0072840D01*
X0259109Y0071841D02*
X0110722Y0071841D01*
X0110924Y0070843D02*
X0258841Y0070843D01*
X0258724Y0069844D02*
X0110924Y0069844D01*
X0110924Y0068846D02*
X0258724Y0068846D01*
X0258724Y0067847D02*
X0110641Y0067847D01*
X0110227Y0066849D02*
X0120944Y0066849D01*
X0121411Y0067042D02*
X0118802Y0065961D01*
X0116805Y0063964D01*
X0115724Y0061355D01*
X0115724Y0058530D01*
X0116805Y0055921D01*
X0118802Y0053923D01*
X0121411Y0052842D01*
X0124236Y0052842D01*
X0126845Y0053923D01*
X0128843Y0055921D01*
X0129924Y0058530D01*
X0129924Y0061355D01*
X0128843Y0063964D01*
X0126845Y0065961D01*
X0124236Y0067042D01*
X0121411Y0067042D01*
X0118690Y0065850D02*
X0109772Y0065850D01*
X0108774Y0064852D02*
X0117692Y0064852D01*
X0116759Y0063853D02*
X0107676Y0063853D01*
X0105265Y0062855D02*
X0116345Y0062855D01*
X0115931Y0061856D02*
X0029880Y0061856D01*
X0030878Y0060858D02*
X0115724Y0060858D01*
X0115724Y0059859D02*
X0031877Y0059859D01*
X0032875Y0058860D02*
X0115724Y0058860D01*
X0116000Y0057862D02*
X0033874Y0057862D01*
X0034872Y0056863D02*
X0116414Y0056863D01*
X0116860Y0055865D02*
X0035871Y0055865D01*
X0036869Y0054866D02*
X0117859Y0054866D01*
X0118935Y0053868D02*
X0037868Y0053868D01*
X0028881Y0062855D02*
X0102382Y0062855D01*
X0099971Y0063853D02*
X0027883Y0063853D01*
X0026884Y0064852D02*
X0098873Y0064852D01*
X0097875Y0065850D02*
X0025886Y0065850D01*
X0024887Y0066849D02*
X0097420Y0066849D01*
X0097007Y0067847D02*
X0023889Y0067847D01*
X0022890Y0068846D02*
X0096724Y0068846D01*
X0096724Y0069844D02*
X0021892Y0069844D01*
X0020893Y0070843D02*
X0096724Y0070843D01*
X0096925Y0071841D02*
X0019895Y0071841D01*
X0018896Y0072840D02*
X0097339Y0072840D01*
X0097752Y0073838D02*
X0017898Y0073838D01*
X0016899Y0074837D02*
X0098677Y0074837D01*
X0099676Y0075835D02*
X0015901Y0075835D01*
X0014902Y0076834D02*
X0101908Y0076834D01*
X0105740Y0076834D02*
X0262017Y0076834D01*
X0263021Y0077832D02*
X0013904Y0077832D01*
X0012905Y0078831D02*
X0264751Y0078831D01*
X0267567Y0079829D02*
X0011907Y0079829D01*
X0010908Y0080828D02*
X0306724Y0080828D01*
X0306724Y0081826D02*
X0009910Y0081826D01*
X0008911Y0082825D02*
X0306918Y0082825D01*
X0307332Y0083823D02*
X0007913Y0083823D01*
X0078866Y0052869D02*
X0121346Y0052869D01*
X0124301Y0052869D02*
X0243807Y0052869D01*
X0241129Y0051871D02*
X0079865Y0051871D01*
X0080863Y0050872D02*
X0239169Y0050872D01*
X0237209Y0049874D02*
X0081862Y0049874D01*
X0082860Y0048875D02*
X0235250Y0048875D01*
X0233656Y0047877D02*
X0156635Y0047877D01*
X0156236Y0048042D02*
X0158845Y0046961D01*
X0160843Y0044964D01*
X0161924Y0042355D01*
X0161924Y0039530D01*
X0160843Y0036921D01*
X0158845Y0034923D01*
X0156236Y0033842D01*
X0153411Y0033842D01*
X0150802Y0034923D01*
X0148805Y0036921D01*
X0147724Y0039530D01*
X0147724Y0042355D01*
X0148805Y0044964D01*
X0150802Y0046961D01*
X0153411Y0048042D01*
X0156236Y0048042D01*
X0158929Y0046878D02*
X0232282Y0046878D01*
X0230908Y0045880D02*
X0159927Y0045880D01*
X0160877Y0044881D02*
X0229533Y0044881D01*
X0228159Y0043883D02*
X0161291Y0043883D01*
X0161704Y0042884D02*
X0227085Y0042884D01*
X0226087Y0041886D02*
X0161924Y0041886D01*
X0161924Y0040887D02*
X0225088Y0040887D01*
X0224090Y0039889D02*
X0161924Y0039889D01*
X0161659Y0038890D02*
X0223091Y0038890D01*
X0222092Y0037892D02*
X0161245Y0037892D01*
X0160815Y0036893D02*
X0221365Y0036893D01*
X0220639Y0035895D02*
X0159817Y0035895D01*
X0158780Y0034896D02*
X0219914Y0034896D01*
X0219188Y0033898D02*
X0156370Y0033898D01*
X0153278Y0033898D02*
X0091924Y0033898D01*
X0091924Y0034896D02*
X0150867Y0034896D01*
X0149830Y0035895D02*
X0091924Y0035895D01*
X0091924Y0036893D02*
X0148832Y0036893D01*
X0148402Y0037892D02*
X0091924Y0037892D01*
X0091924Y0038890D02*
X0147989Y0038890D01*
X0147724Y0039889D02*
X0091847Y0039889D01*
X0090849Y0040887D02*
X0147724Y0040887D01*
X0147724Y0041886D02*
X0089850Y0041886D01*
X0088852Y0042884D02*
X0147943Y0042884D01*
X0148357Y0043883D02*
X0087853Y0043883D01*
X0086854Y0044881D02*
X0148770Y0044881D01*
X0149720Y0045880D02*
X0085856Y0045880D01*
X0084857Y0046878D02*
X0150719Y0046878D01*
X0153012Y0047877D02*
X0083859Y0047877D01*
X0091924Y0032899D02*
X0218463Y0032899D01*
X0217737Y0031901D02*
X0091924Y0031901D01*
X0091924Y0030902D02*
X0217087Y0030902D01*
X0216578Y0029904D02*
X0091924Y0029904D01*
X0091924Y0028905D02*
X0216070Y0028905D01*
X0215561Y0027907D02*
X0091924Y0027907D01*
X0091924Y0026908D02*
X0215052Y0026908D01*
X0214543Y0025910D02*
X0091924Y0025910D01*
X0091924Y0024911D02*
X0214035Y0024911D01*
X0213531Y0023913D02*
X0091924Y0023913D01*
X0091924Y0022914D02*
X0213207Y0022914D01*
X0212882Y0021916D02*
X0166899Y0021916D01*
X0167208Y0021607D02*
X0166491Y0022324D01*
X0165554Y0022712D01*
X0164539Y0022712D01*
X0163602Y0022324D01*
X0163145Y0021867D01*
X0162688Y0022324D01*
X0161751Y0022712D01*
X0160736Y0022712D01*
X0160106Y0022451D01*
X0159477Y0022712D01*
X0154659Y0022712D01*
X0154029Y0022451D01*
X0153399Y0022712D01*
X0152385Y0022712D01*
X0151448Y0022324D01*
X0150730Y0021607D01*
X0150342Y0020669D01*
X0150342Y0017007D01*
X0149365Y0017007D01*
X0149365Y0020669D01*
X0148977Y0021607D01*
X0148259Y0022324D01*
X0147322Y0022712D01*
X0143455Y0022712D01*
X0142518Y0022324D01*
X0142350Y0022156D01*
X0142182Y0022324D01*
X0141245Y0022712D01*
X0136427Y0022712D01*
X0135798Y0022451D01*
X0135168Y0022712D01*
X0131301Y0022712D01*
X0130364Y0022324D01*
X0129413Y0021373D01*
X0128696Y0020656D01*
X0128307Y0019719D01*
X0128307Y0016803D01*
X0128688Y0015884D01*
X0128307Y0014965D01*
X0128307Y0013950D01*
X0128696Y0013013D01*
X0129413Y0012296D01*
X0130350Y0011907D01*
X0131365Y0011907D01*
X0132302Y0012296D01*
X0132759Y0012753D01*
X0133216Y0012296D01*
X0134153Y0011907D01*
X0135168Y0011907D01*
X0135798Y0012168D01*
X0136427Y0011907D01*
X0141245Y0011907D01*
X0142182Y0012296D01*
X0142350Y0012463D01*
X0142518Y0012296D01*
X0143455Y0011907D01*
X0147322Y0011907D01*
X0147952Y0012168D01*
X0148582Y0011907D01*
X0153399Y0011907D01*
X0154029Y0012168D01*
X0154659Y0011907D01*
X0159477Y0011907D01*
X0160106Y0012168D01*
X0160736Y0011907D01*
X0161751Y0011907D01*
X0162688Y0012296D01*
X0163145Y0012753D01*
X0163602Y0012296D01*
X0164539Y0011907D01*
X0165554Y0011907D01*
X0166491Y0012296D01*
X0167208Y0013013D01*
X0167597Y0013950D01*
X0167597Y0020669D01*
X0167208Y0021607D01*
X0167494Y0020917D02*
X0212558Y0020917D01*
X0212233Y0019919D02*
X0167597Y0019919D01*
X0167597Y0018920D02*
X0211909Y0018920D01*
X0211585Y0017922D02*
X0167597Y0017922D01*
X0167597Y0016923D02*
X0211260Y0016923D01*
X0210972Y0015924D02*
X0167597Y0015924D01*
X0167597Y0014926D02*
X0210814Y0014926D01*
X0210656Y0013927D02*
X0167587Y0013927D01*
X0167124Y0012929D02*
X0210498Y0012929D01*
X0210339Y0011930D02*
X0165610Y0011930D01*
X0164484Y0011930D02*
X0161806Y0011930D01*
X0160680Y0011930D02*
X0159532Y0011930D01*
X0154603Y0011930D02*
X0153455Y0011930D01*
X0148526Y0011930D02*
X0147378Y0011930D01*
X0143400Y0011930D02*
X0141301Y0011930D01*
X0136372Y0011930D02*
X0135224Y0011930D01*
X0134098Y0011930D02*
X0131420Y0011930D01*
X0130294Y0011930D02*
X0091924Y0011930D01*
X0091924Y0010932D02*
X0210181Y0010932D01*
X0210023Y0009933D02*
X0091924Y0009933D01*
X0091924Y0008935D02*
X0209865Y0008935D01*
X0209724Y0007936D02*
X0091924Y0007936D01*
X0091924Y0006938D02*
X0209724Y0006938D01*
X0163194Y0021916D02*
X0163096Y0021916D01*
X0151039Y0021916D02*
X0148668Y0021916D01*
X0149262Y0020917D02*
X0150445Y0020917D01*
X0150342Y0019919D02*
X0149365Y0019919D01*
X0149365Y0018920D02*
X0150342Y0018920D01*
X0150342Y0017922D02*
X0149365Y0017922D01*
X0129955Y0021916D02*
X0091924Y0021916D01*
X0091924Y0020917D02*
X0128957Y0020917D01*
X0128390Y0019919D02*
X0091924Y0019919D01*
X0091924Y0018920D02*
X0128307Y0018920D01*
X0128307Y0017922D02*
X0091924Y0017922D01*
X0091924Y0016923D02*
X0128307Y0016923D01*
X0128671Y0015924D02*
X0091924Y0015924D01*
X0091924Y0014926D02*
X0128307Y0014926D01*
X0128317Y0013927D02*
X0091924Y0013927D01*
X0091924Y0012929D02*
X0128780Y0012929D01*
X0126712Y0053868D02*
X0246880Y0053868D01*
X0250299Y0054866D02*
X0127789Y0054866D01*
X0128787Y0055865D02*
X0256603Y0055865D01*
X0263356Y0059859D02*
X0129924Y0059859D01*
X0129924Y0060858D02*
X0262211Y0060858D01*
X0261212Y0061856D02*
X0129716Y0061856D01*
X0129302Y0062855D02*
X0260521Y0062855D01*
X0259945Y0063853D02*
X0128889Y0063853D01*
X0127955Y0064852D02*
X0259428Y0064852D01*
X0259161Y0065850D02*
X0126957Y0065850D01*
X0124704Y0066849D02*
X0258893Y0066849D01*
X0265086Y0058860D02*
X0129924Y0058860D01*
X0129647Y0057862D02*
X0268289Y0057862D01*
X0271358Y0057862D02*
X0322724Y0057862D01*
X0322724Y0058860D02*
X0274561Y0058860D01*
X0276291Y0059859D02*
X0322724Y0059859D01*
X0322724Y0060858D02*
X0277437Y0060858D01*
X0278435Y0061856D02*
X0322724Y0061856D01*
X0322724Y0062855D02*
X0279126Y0062855D01*
X0279702Y0063853D02*
X0322724Y0063853D01*
X0322724Y0064852D02*
X0280219Y0064852D01*
X0280487Y0065850D02*
X0322724Y0065850D01*
X0322724Y0066849D02*
X0280754Y0066849D01*
X0280924Y0067847D02*
X0322724Y0067847D01*
X0322724Y0068846D02*
X0280924Y0068846D01*
X0280924Y0069844D02*
X0322724Y0069844D01*
X0322724Y0070843D02*
X0280806Y0070843D01*
X0280538Y0071841D02*
X0322724Y0071841D01*
X0322724Y0072840D02*
X0280271Y0072840D01*
X0279814Y0073838D02*
X0322724Y0073838D01*
X0322724Y0074837D02*
X0317636Y0074837D01*
X0318757Y0075835D02*
X0322724Y0075835D01*
X0322724Y0076834D02*
X0319756Y0076834D01*
X0320220Y0077832D02*
X0322724Y0077832D01*
X0322724Y0078831D02*
X0320634Y0078831D01*
X0320924Y0079829D02*
X0322724Y0079829D01*
X0322724Y0080828D02*
X0320924Y0080828D01*
X0320924Y0081826D02*
X0322724Y0081826D01*
X0322724Y0082825D02*
X0320729Y0082825D01*
X0320315Y0083823D02*
X0322724Y0083823D01*
X0322724Y0084822D02*
X0319902Y0084822D01*
X0318987Y0085820D02*
X0322724Y0085820D01*
X0322724Y0086819D02*
X0317988Y0086819D01*
X0315779Y0087817D02*
X0322724Y0087817D01*
X0307013Y0078831D02*
X0274896Y0078831D01*
X0276626Y0077832D02*
X0307427Y0077832D01*
X0307891Y0076834D02*
X0277630Y0076834D01*
X0278629Y0075835D02*
X0308890Y0075835D01*
X0310011Y0074837D02*
X0279238Y0074837D01*
X0272080Y0079829D02*
X0306724Y0079829D01*
X0322724Y0056863D02*
X0129233Y0056863D01*
D15*
X0147343Y0052171D03*
X0202580Y0051580D03*
X0230139Y0075202D03*
X0294509Y0097879D03*
X0203135Y0137249D03*
X0279820Y0160871D03*
X0089824Y0053942D03*
X0075020Y0101344D03*
X0055020Y0121344D03*
X0013446Y0091501D03*
M02*
