G75*
%MOIN*%
%OFA0B0*%
%FSLAX25Y25*%
%IPPOS*%
%LPD*%
%AMOC8*
5,1,8,0,0,1.08239X$1,22.5*
%
%ADD10C,0.00800*%
%ADD11R,0.00440X0.00222*%
%ADD12R,0.02450X0.00222*%
%ADD13R,0.04220X0.00223*%
%ADD14R,0.05550X0.00222*%
%ADD15R,0.06890X0.00222*%
%ADD16R,0.08000X0.00222*%
%ADD17R,0.08890X0.00222*%
%ADD18R,0.04230X0.00223*%
%ADD19R,0.04000X0.00222*%
%ADD20R,0.03560X0.00222*%
%ADD21R,0.03330X0.00222*%
%ADD22R,0.03110X0.00222*%
%ADD23R,0.03110X0.00223*%
%ADD24R,0.03120X0.00222*%
%ADD25R,0.02660X0.00222*%
%ADD26R,0.02670X0.00222*%
%ADD27R,0.02440X0.00222*%
%ADD28R,0.02670X0.00222*%
%ADD29R,0.02450X0.00223*%
%ADD30R,0.02220X0.00222*%
%ADD31R,0.02230X0.00222*%
%ADD32R,0.02440X0.00223*%
%ADD33R,0.02220X0.00223*%
%ADD34R,0.02000X0.00222*%
%ADD35R,0.02220X0.00222*%
%ADD36R,0.02000X0.00223*%
%ADD37R,0.02440X0.00222*%
%ADD38R,0.01780X0.00222*%
%ADD39R,0.01560X0.00222*%
%ADD40R,0.01780X0.00223*%
%ADD41R,0.01770X0.00222*%
%ADD42R,0.00890X0.00222*%
%ADD43R,0.01110X0.00222*%
%ADD44R,0.01560X0.00223*%
%ADD45R,0.02890X0.00222*%
%ADD46R,0.03550X0.00222*%
%ADD47R,0.04220X0.00222*%
%ADD48R,0.07110X0.00222*%
%ADD49R,0.07780X0.00222*%
%ADD50R,0.08450X0.00222*%
%ADD51R,0.08000X0.00223*%
%ADD52R,0.06890X0.00223*%
%ADD53R,0.08220X0.00223*%
%ADD54R,0.08220X0.00222*%
%ADD55R,0.04440X0.00222*%
%ADD56R,0.08230X0.00222*%
%ADD57R,0.01550X0.00223*%
%ADD58R,0.01550X0.00222*%
%ADD59R,0.02230X0.00223*%
%ADD60R,0.00230X0.00222*%
%ADD61R,0.00450X0.00222*%
%ADD62R,0.00890X0.00223*%
%ADD63R,0.00670X0.00223*%
%ADD64R,0.00880X0.00223*%
%ADD65R,0.00880X0.00222*%
%ADD66R,0.00660X0.00222*%
%ADD67R,0.01120X0.00222*%
%ADD68R,0.00890X0.00222*%
%ADD69R,0.01120X0.00223*%
%ADD70R,0.00890X0.00223*%
%ADD71R,0.00220X0.00222*%
%ADD72R,0.00670X0.00223*%
%ADD73R,0.00440X0.00223*%
%ADD74R,0.00670X0.00222*%
%ADD75R,0.01340X0.00222*%
%ADD76R,0.00220X0.00222*%
%ADD77R,0.01110X0.00223*%
%ADD78R,0.00450X0.00223*%
%ADD79R,0.00220X0.00223*%
%ADD80R,0.01330X0.00223*%
%ADD81R,0.00670X0.00222*%
%ADD82R,0.00660X0.00223*%
%ADD83R,0.01340X0.00222*%
%ADD84R,0.01330X0.00222*%
%ADD85R,0.04220X0.00222*%
%ADD86R,0.05770X0.00223*%
%ADD87R,0.03780X0.00222*%
%ADD88R,0.03770X0.00222*%
%ADD89R,0.04890X0.00222*%
%ADD90R,0.04000X0.00223*%
%ADD91R,0.03340X0.00222*%
%ADD92R,0.05330X0.00222*%
%ADD93R,0.01340X0.00223*%
%ADD94R,0.05330X0.00223*%
%ADD95R,0.02670X0.00223*%
%ADD96R,0.05110X0.00223*%
%ADD97R,0.01340X0.00223*%
%ADD98R,0.05110X0.00222*%
%ADD99R,0.02890X0.00223*%
%ADD100R,0.02440X0.00223*%
%ADD101R,0.02220X0.00223*%
%ADD102R,0.02890X0.00222*%
%ADD103R,0.03330X0.00223*%
%ADD104R,0.08670X0.00222*%
%ADD105R,0.07550X0.00222*%
%ADD106R,0.05560X0.00222*%
%ADD107R,0.01770X0.00223*%
%ADD108R,0.02670X0.00223*%
%ADD109R,0.05560X0.00223*%
%ADD110R,0.06670X0.00223*%
%ADD111R,0.14220X0.00222*%
%ADD112R,0.13330X0.00222*%
%ADD113R,0.11780X0.00222*%
%ADD114R,0.10000X0.00223*%
%ADD115R,0.07330X0.00222*%
%ADD116C,0.00900*%
%ADD117C,0.01000*%
D10*
X0114612Y0128696D02*
X0113577Y0129730D01*
X0113577Y0133867D01*
X0114612Y0134901D01*
X0116680Y0134901D01*
X0117714Y0133867D01*
X0117714Y0129730D01*
X0116680Y0128696D01*
X0114612Y0128696D01*
X0120023Y0128696D02*
X0122091Y0130765D01*
X0121057Y0130765D02*
X0124160Y0130765D01*
X0124160Y0128696D02*
X0124160Y0134901D01*
X0121057Y0134901D01*
X0120023Y0133867D01*
X0120023Y0131799D01*
X0121057Y0130765D01*
X0126468Y0128696D02*
X0130605Y0128696D01*
X0130605Y0134901D01*
X0126468Y0134901D01*
X0128537Y0131799D02*
X0130605Y0131799D01*
X0132914Y0133867D02*
X0137051Y0129730D01*
X0137051Y0128696D01*
X0132914Y0128696D01*
X0132914Y0133867D02*
X0132914Y0134901D01*
X0137051Y0134901D01*
X0145805Y0134901D02*
X0145805Y0133867D01*
X0147873Y0131799D01*
X0147873Y0128696D01*
X0147873Y0131799D02*
X0149942Y0133867D01*
X0149942Y0134901D01*
X0152250Y0133867D02*
X0153285Y0134901D01*
X0155353Y0134901D01*
X0156387Y0133867D01*
X0156387Y0129730D01*
X0155353Y0128696D01*
X0153285Y0128696D01*
X0152250Y0129730D01*
X0152250Y0133867D01*
X0158696Y0133867D02*
X0158696Y0132833D01*
X0159730Y0131799D01*
X0162833Y0131799D01*
X0162833Y0134901D02*
X0162833Y0128696D01*
X0159730Y0128696D01*
X0158696Y0129730D01*
X0158696Y0130765D01*
X0159730Y0131799D01*
X0158696Y0133867D02*
X0159730Y0134901D01*
X0162833Y0134901D01*
X0165141Y0134901D02*
X0169278Y0134901D01*
X0169278Y0128696D01*
X0165141Y0128696D01*
X0167210Y0131799D02*
X0169278Y0131799D01*
X0171587Y0134901D02*
X0171587Y0128696D01*
X0175724Y0128696D02*
X0175724Y0134901D01*
X0173655Y0132833D01*
X0171587Y0134901D01*
X0178032Y0132833D02*
X0178032Y0128696D01*
X0178032Y0131799D02*
X0182169Y0131799D01*
X0182169Y0132833D02*
X0182169Y0128696D01*
X0184478Y0129730D02*
X0184478Y0131799D01*
X0186546Y0131799D01*
X0184478Y0133867D02*
X0185512Y0134901D01*
X0187581Y0134901D01*
X0188615Y0133867D01*
X0188615Y0129730D01*
X0187581Y0128696D01*
X0185512Y0128696D01*
X0184478Y0129730D01*
X0182169Y0132833D02*
X0180101Y0134901D01*
X0178032Y0132833D01*
X0144192Y0149974D02*
X0143340Y0149122D01*
X0142488Y0149122D01*
X0141637Y0149974D01*
X0141637Y0151677D01*
X0140785Y0152529D01*
X0139934Y0152529D01*
X0139082Y0151677D01*
X0139082Y0149974D01*
X0139934Y0149122D01*
X0144192Y0149974D02*
X0144192Y0151677D01*
X0143340Y0152529D01*
X0144192Y0154560D02*
X0144192Y0157967D01*
X0144192Y0156263D02*
X0139082Y0156263D01*
X0139082Y0159998D02*
X0142488Y0159998D01*
X0144192Y0161701D01*
X0142488Y0163404D01*
X0139082Y0163404D01*
X0139082Y0165435D02*
X0144192Y0165435D01*
X0144192Y0167990D01*
X0143340Y0168842D01*
X0141637Y0168842D01*
X0140785Y0167990D01*
X0140785Y0165435D01*
X0140785Y0167139D02*
X0139082Y0168842D01*
X0136318Y0170873D02*
X0136318Y0174280D01*
X0136318Y0172576D02*
X0131208Y0172576D01*
X0128444Y0172576D02*
X0123334Y0172576D01*
X0120570Y0170873D02*
X0115460Y0174280D01*
X0120570Y0174280D01*
X0120570Y0170873D02*
X0115460Y0170873D01*
X0115460Y0168842D02*
X0120570Y0168842D01*
X0123334Y0168842D02*
X0125037Y0167139D01*
X0125037Y0167990D02*
X0125037Y0165435D01*
X0123334Y0165435D02*
X0128444Y0165435D01*
X0128444Y0167990D01*
X0127592Y0168842D01*
X0125889Y0168842D01*
X0125037Y0167990D01*
X0128444Y0170873D02*
X0128444Y0174280D01*
X0131208Y0168842D02*
X0131208Y0165435D01*
X0136318Y0165435D01*
X0135466Y0163404D02*
X0136318Y0162553D01*
X0136318Y0160849D01*
X0135466Y0159998D01*
X0134614Y0159998D01*
X0133763Y0160849D01*
X0133763Y0162553D01*
X0132911Y0163404D01*
X0132060Y0163404D01*
X0131208Y0162553D01*
X0131208Y0160849D01*
X0132060Y0159998D01*
X0141637Y0159998D02*
X0141637Y0163404D01*
X0144192Y0170873D02*
X0144192Y0174280D01*
X0144192Y0172576D02*
X0139082Y0172576D01*
X0146956Y0170873D02*
X0152066Y0174280D01*
X0154830Y0172576D02*
X0157385Y0172576D01*
X0159088Y0174280D01*
X0159940Y0174280D01*
X0162704Y0173428D02*
X0162704Y0170873D01*
X0167814Y0170873D01*
X0167814Y0173428D01*
X0166962Y0174280D01*
X0166110Y0174280D01*
X0165259Y0173428D01*
X0165259Y0170873D01*
X0159940Y0170873D02*
X0159088Y0170873D01*
X0157385Y0172576D01*
X0162704Y0173428D02*
X0163556Y0174280D01*
X0164407Y0174280D01*
X0165259Y0173428D01*
X0170578Y0174280D02*
X0173984Y0174280D01*
X0175688Y0172576D01*
X0173984Y0170873D01*
X0170578Y0170873D01*
X0173133Y0170873D02*
X0173133Y0174280D01*
X0152066Y0170873D02*
X0146956Y0174280D01*
X0120570Y0165435D02*
X0115460Y0165435D01*
X0117163Y0167139D01*
X0115460Y0168842D01*
X0112696Y0168842D02*
X0108437Y0168842D01*
X0107586Y0167990D01*
X0107586Y0166287D01*
X0108437Y0165435D01*
X0112696Y0165435D01*
X0115460Y0162553D02*
X0116311Y0163404D01*
X0119718Y0163404D01*
X0120570Y0162553D01*
X0120570Y0159998D01*
X0115460Y0159998D01*
X0115460Y0162553D01*
X0112696Y0170873D02*
X0107586Y0170873D01*
X0109289Y0170873D02*
X0109289Y0173428D01*
X0110141Y0174280D01*
X0111844Y0174280D01*
X0112696Y0173428D01*
X0112696Y0170873D01*
X0104822Y0170873D02*
X0104822Y0174280D01*
X0104822Y0172576D02*
X0099712Y0172576D01*
X0096948Y0173428D02*
X0096948Y0170873D01*
X0091838Y0170873D01*
X0091838Y0173428D01*
X0092689Y0174280D01*
X0096096Y0174280D01*
X0096948Y0173428D01*
X0096948Y0168842D02*
X0091838Y0168842D01*
X0096948Y0165435D01*
X0091838Y0165435D01*
X0092689Y0163404D02*
X0094393Y0163404D01*
X0094393Y0161701D01*
X0096096Y0159998D02*
X0092689Y0159998D01*
X0091838Y0160849D01*
X0091838Y0162553D01*
X0092689Y0163404D01*
X0096096Y0163404D02*
X0096948Y0162553D01*
X0096948Y0160849D01*
X0096096Y0159998D01*
X0099712Y0159998D02*
X0099712Y0163404D01*
X0099712Y0165435D02*
X0104822Y0165435D01*
X0104822Y0168842D01*
X0102267Y0167139D02*
X0102267Y0165435D01*
X0104822Y0163404D02*
X0104822Y0159998D01*
X0099712Y0159998D01*
X0099712Y0157967D02*
X0099712Y0154560D01*
X0104822Y0154560D01*
X0102267Y0159998D02*
X0102267Y0161701D01*
D11*
X0171365Y0081493D03*
X0170925Y0079493D03*
X0170255Y0077048D03*
X0170255Y0076826D03*
X0170035Y0075937D03*
X0162925Y0072604D03*
X0158925Y0073493D03*
X0158255Y0074826D03*
X0158255Y0075048D03*
X0150255Y0073715D03*
X0150255Y0073493D03*
X0142925Y0074604D03*
X0142925Y0074826D03*
X0142925Y0075048D03*
X0142925Y0077715D03*
X0140255Y0078382D03*
X0130925Y0076604D03*
X0130925Y0076382D03*
X0138925Y0073048D03*
X0150925Y0055715D03*
D12*
X0150810Y0055937D03*
X0167700Y0070382D03*
X0167700Y0070604D03*
X0161480Y0081937D03*
X0160590Y0081493D03*
X0162810Y0082604D03*
X0150810Y0077715D03*
X0140810Y0081493D03*
X0138590Y0082604D03*
X0137700Y0083048D03*
X0124590Y0088382D03*
X0133480Y0070604D03*
X0136810Y0114382D03*
X0137480Y0114826D03*
X0137700Y0115048D03*
X0138810Y0115715D03*
X0162590Y0115493D03*
X0164810Y0113937D03*
D13*
X0147925Y0057270D03*
X0150815Y0056159D03*
D14*
X0150810Y0056382D03*
D15*
X0150810Y0056604D03*
D16*
X0150705Y0056826D03*
D17*
X0150700Y0057048D03*
D18*
X0153700Y0057270D03*
D19*
X0147145Y0057493D03*
X0148475Y0078604D03*
D20*
X0147365Y0065715D03*
X0154255Y0057493D03*
X0143145Y0091937D03*
D21*
X0157920Y0091715D03*
X0158370Y0080382D03*
X0141480Y0078826D03*
X0146590Y0057715D03*
X0154810Y0057715D03*
X0160370Y0116604D03*
D22*
X0160260Y0116826D03*
X0140920Y0116826D03*
X0131590Y0099715D03*
X0141590Y0081048D03*
X0142700Y0080604D03*
X0141370Y0079048D03*
X0150700Y0080382D03*
X0159810Y0081048D03*
X0159810Y0079048D03*
X0165370Y0083715D03*
X0155370Y0057937D03*
X0146030Y0057937D03*
D23*
X0145590Y0058159D03*
X0155810Y0058159D03*
X0141370Y0079270D03*
X0150260Y0096159D03*
D24*
X0145145Y0058382D03*
D25*
X0144255Y0058826D03*
X0144035Y0059048D03*
X0146255Y0065493D03*
X0135145Y0067048D03*
X0156255Y0058382D03*
X0168035Y0071048D03*
X0142255Y0080826D03*
X0139145Y0115937D03*
X0160035Y0117048D03*
X0162255Y0115715D03*
D26*
X0176700Y0087937D03*
X0176700Y0087715D03*
X0165590Y0083937D03*
X0156700Y0058604D03*
X0144700Y0058604D03*
D27*
X0143255Y0059493D03*
X0143035Y0059715D03*
X0157035Y0058826D03*
X0158365Y0059715D03*
X0161035Y0081715D03*
X0162365Y0082382D03*
X0163255Y0082826D03*
X0175925Y0096604D03*
X0169255Y0099937D03*
X0163925Y0114604D03*
X0163255Y0115048D03*
X0133925Y0085048D03*
X0139035Y0082382D03*
X0139925Y0081937D03*
X0140365Y0081715D03*
D28*
X0143370Y0091493D03*
X0131810Y0099937D03*
X0125370Y0096826D03*
X0124480Y0087937D03*
X0124480Y0087715D03*
X0133370Y0070826D03*
X0157370Y0059048D03*
X0171810Y0067048D03*
X0167810Y0070826D03*
X0157810Y0091493D03*
X0175810Y0096826D03*
X0156920Y0120826D03*
X0138480Y0115493D03*
D29*
X0159700Y0117270D03*
X0157700Y0091270D03*
X0176590Y0088159D03*
X0139480Y0082159D03*
X0135480Y0084159D03*
X0124590Y0088159D03*
X0133700Y0070159D03*
X0143700Y0059270D03*
X0157700Y0059270D03*
D30*
X0158035Y0059493D03*
X0160035Y0061048D03*
X0142035Y0060382D03*
X0130255Y0075715D03*
X0141145Y0078604D03*
X0160255Y0078604D03*
X0160255Y0078826D03*
X0125145Y0096604D03*
X0135145Y0113048D03*
X0136035Y0113715D03*
X0136255Y0113937D03*
X0137145Y0114604D03*
X0144035Y0120826D03*
X0164255Y0114382D03*
X0165145Y0113715D03*
X0166035Y0113048D03*
X0166255Y0112826D03*
D31*
X0163590Y0114826D03*
X0141590Y0117493D03*
X0135590Y0113493D03*
X0130700Y0099493D03*
X0158700Y0091937D03*
X0163590Y0083048D03*
X0150700Y0079937D03*
X0133590Y0070382D03*
X0141590Y0060826D03*
X0142700Y0059937D03*
X0158700Y0059937D03*
X0159590Y0060604D03*
X0176700Y0088382D03*
D32*
X0161925Y0082159D03*
X0142365Y0060159D03*
D33*
X0155365Y0065270D03*
X0158925Y0060159D03*
X0128925Y0067270D03*
X0137365Y0083270D03*
X0165815Y0084159D03*
X0170925Y0099270D03*
X0164475Y0114159D03*
X0136475Y0114159D03*
X0135365Y0113270D03*
D34*
X0134815Y0112826D03*
X0134585Y0112604D03*
X0134365Y0112382D03*
X0133475Y0111715D03*
X0133255Y0111493D03*
X0132815Y0111048D03*
X0132585Y0110826D03*
X0132365Y0110604D03*
X0132145Y0110382D03*
X0129705Y0099048D03*
X0129255Y0098826D03*
X0128815Y0098604D03*
X0125035Y0096382D03*
X0124585Y0088826D03*
X0124585Y0088604D03*
X0131035Y0087048D03*
X0134585Y0084826D03*
X0135035Y0084604D03*
X0135255Y0084382D03*
X0141925Y0079493D03*
X0130365Y0075493D03*
X0130145Y0075937D03*
X0133925Y0069715D03*
X0133925Y0069493D03*
X0128585Y0067493D03*
X0138585Y0063493D03*
X0139035Y0063048D03*
X0139255Y0062826D03*
X0139475Y0062604D03*
X0139705Y0062382D03*
X0140145Y0061937D03*
X0140815Y0061493D03*
X0141255Y0061048D03*
X0159255Y0060382D03*
X0160585Y0061493D03*
X0160815Y0061715D03*
X0161035Y0061937D03*
X0161475Y0062382D03*
X0161705Y0062604D03*
X0163475Y0064382D03*
X0167035Y0069048D03*
X0167255Y0069493D03*
X0170145Y0073937D03*
X0170365Y0074382D03*
X0170365Y0074604D03*
X0170585Y0075048D03*
X0169705Y0083715D03*
X0166365Y0084604D03*
X0159475Y0092382D03*
X0159705Y0092604D03*
X0171255Y0099048D03*
X0171705Y0098826D03*
X0176145Y0096382D03*
X0176585Y0088604D03*
X0167705Y0111493D03*
X0167475Y0111715D03*
X0167255Y0111937D03*
X0166815Y0112382D03*
X0159475Y0117493D03*
X0157475Y0120604D03*
X0141705Y0092604D03*
X0141925Y0092382D03*
D35*
X0146475Y0095048D03*
X0154475Y0095048D03*
X0167365Y0085048D03*
X0164475Y0083493D03*
X0170475Y0074826D03*
X0167365Y0069937D03*
X0167365Y0069715D03*
X0159815Y0060826D03*
X0141815Y0060604D03*
X0140475Y0061715D03*
X0133815Y0069937D03*
X0136925Y0083493D03*
X0136475Y0083715D03*
X0170475Y0099493D03*
X0166475Y0112604D03*
X0165365Y0113493D03*
X0133815Y0111937D03*
D36*
X0134145Y0112159D03*
X0133035Y0111270D03*
X0130145Y0099270D03*
X0133925Y0085270D03*
X0134145Y0069270D03*
X0138815Y0063270D03*
X0139925Y0062159D03*
X0141035Y0061270D03*
X0145475Y0065270D03*
X0160365Y0061270D03*
X0161255Y0062159D03*
X0172365Y0067270D03*
X0167035Y0069270D03*
X0170145Y0074159D03*
X0159255Y0079270D03*
X0169035Y0100159D03*
X0167925Y0111270D03*
X0167035Y0112159D03*
X0165705Y0113270D03*
D37*
X0138145Y0082826D03*
X0160145Y0078382D03*
X0150145Y0062826D03*
D38*
X0156035Y0065048D03*
X0162035Y0062826D03*
X0162255Y0063048D03*
X0162925Y0063715D03*
X0163145Y0063937D03*
X0163815Y0064826D03*
X0164035Y0065048D03*
X0164475Y0065493D03*
X0165815Y0067048D03*
X0166035Y0067493D03*
X0166925Y0068826D03*
X0172925Y0067715D03*
X0173145Y0067937D03*
X0173815Y0068826D03*
X0174035Y0069048D03*
X0174475Y0069715D03*
X0174925Y0070382D03*
X0175145Y0070604D03*
X0170035Y0073715D03*
X0168925Y0071715D03*
X0159365Y0079493D03*
X0159365Y0079715D03*
X0166035Y0084382D03*
X0167815Y0085493D03*
X0170255Y0087048D03*
X0176475Y0088826D03*
X0176475Y0089048D03*
X0178475Y0085715D03*
X0160035Y0092826D03*
X0154925Y0094826D03*
X0141365Y0092826D03*
X0132925Y0085937D03*
X0141815Y0079715D03*
X0132475Y0071493D03*
X0130475Y0075048D03*
X0126035Y0070826D03*
X0126925Y0069493D03*
X0127365Y0069048D03*
X0127815Y0068382D03*
X0128255Y0067937D03*
X0128475Y0067715D03*
X0134255Y0069048D03*
X0134475Y0068604D03*
X0134925Y0067937D03*
X0135145Y0067715D03*
X0136925Y0065493D03*
X0137145Y0065048D03*
X0137365Y0064826D03*
X0137815Y0064382D03*
X0138255Y0063937D03*
X0138475Y0063715D03*
X0128475Y0098382D03*
X0128925Y0106382D03*
X0129365Y0107048D03*
X0129815Y0107715D03*
X0130035Y0107937D03*
X0130475Y0108382D03*
X0130925Y0109048D03*
X0131365Y0109493D03*
X0131815Y0109937D03*
X0141815Y0117715D03*
X0143365Y0120382D03*
X0157815Y0120382D03*
X0168255Y0111048D03*
X0168475Y0110826D03*
X0168925Y0110382D03*
X0169365Y0109937D03*
X0169815Y0109493D03*
X0170255Y0109048D03*
X0170255Y0108826D03*
X0170475Y0108604D03*
X0171145Y0107937D03*
X0171365Y0107493D03*
X0171815Y0107048D03*
X0172255Y0106382D03*
X0173145Y0105048D03*
X0172255Y0098604D03*
X0173365Y0097937D03*
D39*
X0174145Y0097493D03*
X0176365Y0097493D03*
X0175255Y0101048D03*
X0175035Y0101493D03*
X0174365Y0102826D03*
X0174365Y0103048D03*
X0174145Y0103493D03*
X0173925Y0103715D03*
X0173255Y0104826D03*
X0172145Y0106604D03*
X0171925Y0106826D03*
X0171255Y0107715D03*
X0160365Y0113715D03*
X0160145Y0114604D03*
X0159255Y0117715D03*
X0159035Y0117937D03*
X0158365Y0119493D03*
X0158145Y0119715D03*
X0158145Y0119937D03*
X0143035Y0119937D03*
X0143035Y0119715D03*
X0142365Y0118382D03*
X0142145Y0117937D03*
X0140145Y0110604D03*
X0129255Y0106826D03*
X0129035Y0106604D03*
X0128365Y0105715D03*
X0128365Y0105493D03*
X0127925Y0105048D03*
X0127925Y0104826D03*
X0127255Y0103937D03*
X0127255Y0103715D03*
X0127035Y0103493D03*
X0126365Y0101937D03*
X0126145Y0101715D03*
X0126145Y0101493D03*
X0125925Y0101048D03*
X0125035Y0098382D03*
X0127255Y0097715D03*
X0132365Y0100382D03*
X0141035Y0093048D03*
X0146145Y0094826D03*
X0133255Y0085715D03*
X0132365Y0086382D03*
X0131925Y0083937D03*
X0127035Y0081937D03*
X0126365Y0083493D03*
X0125925Y0084826D03*
X0123255Y0086604D03*
X0123255Y0086826D03*
X0123035Y0086382D03*
X0122365Y0085048D03*
X0122145Y0084826D03*
X0121925Y0084604D03*
X0121925Y0084382D03*
X0121255Y0083493D03*
X0121035Y0083048D03*
X0121035Y0082826D03*
X0121255Y0079937D03*
X0122145Y0077715D03*
X0122365Y0077048D03*
X0123035Y0075715D03*
X0123255Y0075493D03*
X0124145Y0073715D03*
X0124365Y0073493D03*
X0125035Y0072382D03*
X0125255Y0071937D03*
X0125925Y0071048D03*
X0126145Y0070604D03*
X0126365Y0070382D03*
X0131035Y0073715D03*
X0131035Y0073937D03*
X0131255Y0073493D03*
X0131925Y0072382D03*
X0132145Y0071937D03*
X0132365Y0071715D03*
X0134365Y0068826D03*
X0135255Y0067493D03*
X0145035Y0065048D03*
X0150145Y0063048D03*
X0166145Y0067715D03*
X0166365Y0067937D03*
X0169035Y0071937D03*
X0169255Y0072382D03*
X0169925Y0073493D03*
X0171255Y0075715D03*
X0171925Y0076826D03*
X0171925Y0077048D03*
X0172145Y0077493D03*
X0172365Y0077715D03*
X0172365Y0077937D03*
X0173255Y0079715D03*
X0173925Y0081048D03*
X0174145Y0081715D03*
X0175035Y0083937D03*
X0175255Y0084604D03*
X0175925Y0087048D03*
X0177925Y0086826D03*
X0177925Y0086604D03*
X0178145Y0086382D03*
X0178365Y0085937D03*
X0179035Y0084826D03*
X0179255Y0084604D03*
X0179255Y0084382D03*
X0180145Y0083048D03*
X0180145Y0082826D03*
X0180365Y0082382D03*
X0180365Y0081493D03*
X0179925Y0079715D03*
X0179255Y0077937D03*
X0179035Y0077493D03*
X0178365Y0075937D03*
X0178145Y0075715D03*
X0178145Y0075493D03*
X0177925Y0075048D03*
X0177255Y0073937D03*
X0177035Y0073715D03*
X0177035Y0073493D03*
X0176365Y0072604D03*
X0176365Y0072382D03*
X0175925Y0071937D03*
X0175925Y0071715D03*
X0175255Y0070826D03*
X0174365Y0069493D03*
X0159035Y0073937D03*
X0168145Y0085715D03*
X0168365Y0085937D03*
X0169035Y0086382D03*
X0141925Y0079937D03*
X0129255Y0077048D03*
X0129035Y0077493D03*
X0128365Y0078826D03*
X0128145Y0079493D03*
X0127925Y0079715D03*
X0127925Y0079937D03*
D40*
X0130475Y0075270D03*
X0125145Y0072159D03*
X0126475Y0070159D03*
X0127145Y0069270D03*
X0128035Y0068159D03*
X0138035Y0064159D03*
X0162475Y0063270D03*
X0163365Y0064159D03*
X0164255Y0065270D03*
X0165815Y0067270D03*
X0166475Y0068159D03*
X0169815Y0073270D03*
X0173365Y0068159D03*
X0167365Y0085270D03*
X0176255Y0096159D03*
X0170925Y0108159D03*
X0170035Y0109270D03*
X0169145Y0110159D03*
X0132035Y0110159D03*
X0131145Y0109270D03*
X0130255Y0108159D03*
X0128035Y0098159D03*
D41*
X0124700Y0089048D03*
X0133590Y0085493D03*
X0131590Y0083715D03*
X0130700Y0074826D03*
X0130700Y0074604D03*
X0125590Y0071493D03*
X0124700Y0072826D03*
X0127590Y0068604D03*
X0136700Y0065715D03*
X0137590Y0064604D03*
X0162700Y0063493D03*
X0163590Y0064604D03*
X0166700Y0068382D03*
X0172700Y0067493D03*
X0173590Y0068604D03*
X0157590Y0091048D03*
X0143590Y0091048D03*
X0130700Y0108826D03*
X0131590Y0109715D03*
X0143590Y0120604D03*
X0168700Y0110604D03*
X0169590Y0109715D03*
X0170700Y0108382D03*
X0172700Y0105715D03*
X0172700Y0098382D03*
D42*
X0168480Y0099493D03*
X0168260Y0099048D03*
X0168260Y0098826D03*
X0168260Y0098604D03*
X0168030Y0097937D03*
X0167810Y0097493D03*
X0167590Y0096826D03*
X0167590Y0096604D03*
X0156700Y0089048D03*
X0156700Y0088826D03*
X0156480Y0088382D03*
X0156260Y0087715D03*
X0156480Y0092604D03*
X0156260Y0093048D03*
X0144700Y0092604D03*
X0144260Y0089937D03*
X0144480Y0089048D03*
X0144700Y0088382D03*
X0140260Y0080826D03*
X0140260Y0080604D03*
X0140260Y0079493D03*
X0141810Y0077048D03*
X0141810Y0076826D03*
X0141810Y0076604D03*
X0141590Y0074382D03*
X0142260Y0073715D03*
X0138480Y0073493D03*
X0138260Y0073715D03*
X0137810Y0074382D03*
X0136030Y0077715D03*
X0135810Y0078382D03*
X0135590Y0079048D03*
X0132700Y0077937D03*
X0132700Y0077715D03*
X0132700Y0077493D03*
X0132700Y0077048D03*
X0132480Y0078382D03*
X0132480Y0078604D03*
X0132480Y0078826D03*
X0132480Y0079048D03*
X0132260Y0079715D03*
X0132260Y0079937D03*
X0132260Y0080382D03*
X0132260Y0080604D03*
X0132030Y0081048D03*
X0132030Y0081493D03*
X0132030Y0081715D03*
X0132030Y0081937D03*
X0132030Y0082382D03*
X0132030Y0082604D03*
X0132480Y0084382D03*
X0132700Y0084604D03*
X0134700Y0083715D03*
X0134700Y0083493D03*
X0134700Y0083048D03*
X0134700Y0082826D03*
X0134700Y0082604D03*
X0129810Y0082826D03*
X0133590Y0073715D03*
X0133590Y0073493D03*
X0133590Y0073048D03*
X0133810Y0072826D03*
X0133810Y0072604D03*
X0133810Y0072382D03*
X0134030Y0071937D03*
X0134030Y0071715D03*
X0134030Y0071493D03*
X0134260Y0071048D03*
X0144700Y0064826D03*
X0150260Y0071493D03*
X0150260Y0071715D03*
X0150030Y0072382D03*
X0150030Y0072604D03*
X0150700Y0077493D03*
X0144700Y0078826D03*
X0158480Y0078604D03*
X0159810Y0074604D03*
X0163590Y0074604D03*
X0167590Y0073493D03*
X0167810Y0073715D03*
X0167810Y0073937D03*
X0167810Y0074382D03*
X0168030Y0074604D03*
X0168030Y0074826D03*
X0168030Y0075048D03*
X0168030Y0075493D03*
X0168260Y0075715D03*
X0168260Y0075937D03*
X0168260Y0076382D03*
X0168260Y0076604D03*
X0168480Y0076826D03*
X0168480Y0077048D03*
X0168480Y0077493D03*
X0168480Y0077715D03*
X0168700Y0077937D03*
X0168700Y0078382D03*
X0168700Y0078604D03*
X0168700Y0078826D03*
X0168700Y0079048D03*
X0165810Y0079493D03*
X0165590Y0078826D03*
X0166030Y0080382D03*
X0166260Y0081048D03*
X0166260Y0081493D03*
X0166260Y0081715D03*
X0166480Y0082382D03*
X0166480Y0082604D03*
X0166480Y0082826D03*
X0166480Y0083048D03*
X0166480Y0083493D03*
X0168480Y0084604D03*
X0171810Y0084604D03*
X0171810Y0084826D03*
X0167590Y0073048D03*
X0167590Y0072826D03*
X0134030Y0095715D03*
X0133810Y0096382D03*
X0133590Y0096826D03*
X0133590Y0097048D03*
D43*
X0133700Y0096604D03*
X0133920Y0095937D03*
X0134370Y0095048D03*
X0134370Y0094826D03*
X0134590Y0094604D03*
X0134590Y0094382D03*
X0134810Y0093937D03*
X0135030Y0093715D03*
X0135030Y0093493D03*
X0135260Y0093048D03*
X0135480Y0092826D03*
X0135480Y0092604D03*
X0135700Y0092382D03*
X0135920Y0091937D03*
X0135920Y0091715D03*
X0136370Y0091048D03*
X0136590Y0090826D03*
X0136590Y0090604D03*
X0136810Y0090382D03*
X0137030Y0089937D03*
X0137260Y0089715D03*
X0137700Y0089048D03*
X0137920Y0088604D03*
X0138370Y0087937D03*
X0138590Y0087715D03*
X0139030Y0087048D03*
X0139260Y0086826D03*
X0144590Y0088604D03*
X0144590Y0088826D03*
X0144370Y0089493D03*
X0144370Y0089715D03*
X0145030Y0087715D03*
X0145030Y0087493D03*
X0145260Y0087048D03*
X0145480Y0086826D03*
X0145480Y0086604D03*
X0145480Y0086382D03*
X0145700Y0085937D03*
X0145920Y0085715D03*
X0146370Y0084826D03*
X0146590Y0084604D03*
X0146590Y0084382D03*
X0147030Y0083715D03*
X0147260Y0083493D03*
X0147480Y0083048D03*
X0147700Y0082826D03*
X0147920Y0082382D03*
X0149030Y0081048D03*
X0149260Y0080826D03*
X0152590Y0081493D03*
X0152810Y0081715D03*
X0153260Y0082382D03*
X0153480Y0082604D03*
X0154370Y0083937D03*
X0154590Y0084382D03*
X0154810Y0084604D03*
X0154810Y0084826D03*
X0155030Y0085048D03*
X0155260Y0085493D03*
X0155260Y0085715D03*
X0155480Y0085937D03*
X0155700Y0086382D03*
X0155700Y0086604D03*
X0155920Y0086826D03*
X0155920Y0087048D03*
X0156370Y0087937D03*
X0156590Y0088604D03*
X0156810Y0089493D03*
X0157260Y0090604D03*
X0156810Y0091937D03*
X0156590Y0092382D03*
X0156370Y0092826D03*
X0155920Y0093493D03*
X0155920Y0093715D03*
X0155700Y0093937D03*
X0155480Y0094382D03*
X0161480Y0099937D03*
X0167920Y0097715D03*
X0167700Y0097048D03*
X0167480Y0096382D03*
X0167260Y0095937D03*
X0167260Y0095715D03*
X0166810Y0094826D03*
X0166810Y0094604D03*
X0166590Y0094382D03*
X0166370Y0093937D03*
X0166370Y0093715D03*
X0165920Y0093048D03*
X0165920Y0092826D03*
X0165700Y0092604D03*
X0165700Y0092382D03*
X0165480Y0091937D03*
X0165260Y0091715D03*
X0164810Y0091048D03*
X0164810Y0090826D03*
X0164590Y0090604D03*
X0163920Y0089493D03*
X0163700Y0089048D03*
X0163480Y0088826D03*
X0161700Y0086382D03*
X0160590Y0085048D03*
X0156370Y0080826D03*
X0159480Y0077715D03*
X0159480Y0077493D03*
X0159480Y0077048D03*
X0159030Y0073715D03*
X0163480Y0074382D03*
X0163700Y0074826D03*
X0163920Y0075048D03*
X0164370Y0075715D03*
X0164370Y0075937D03*
X0164590Y0076382D03*
X0164810Y0076604D03*
X0164810Y0076826D03*
X0165030Y0077493D03*
X0165260Y0077715D03*
X0165260Y0077937D03*
X0165480Y0078382D03*
X0165480Y0078604D03*
X0165700Y0079048D03*
X0165920Y0079715D03*
X0165920Y0079937D03*
X0166370Y0081937D03*
X0168590Y0084382D03*
X0169030Y0083937D03*
X0169480Y0083493D03*
X0170590Y0083937D03*
X0176590Y0091493D03*
X0176590Y0095715D03*
X0168810Y0100382D03*
X0145700Y0094604D03*
X0145700Y0094382D03*
X0145480Y0093937D03*
X0145260Y0093715D03*
X0145030Y0093493D03*
X0144810Y0093048D03*
X0144810Y0092826D03*
X0144590Y0092382D03*
X0133260Y0097937D03*
X0133030Y0098604D03*
X0124590Y0095493D03*
X0124590Y0091937D03*
X0130810Y0087493D03*
X0131700Y0086826D03*
X0129920Y0083048D03*
X0134810Y0082382D03*
X0135030Y0081048D03*
X0135030Y0080826D03*
X0135260Y0079937D03*
X0135480Y0079493D03*
X0135700Y0078826D03*
X0135700Y0078604D03*
X0135920Y0077937D03*
X0136370Y0077048D03*
X0136370Y0076826D03*
X0136590Y0076604D03*
X0136590Y0076382D03*
X0136810Y0075937D03*
X0137030Y0075715D03*
X0137030Y0075493D03*
X0137480Y0075048D03*
X0137480Y0074826D03*
X0137700Y0074604D03*
X0141700Y0077493D03*
X0141700Y0077715D03*
X0141700Y0077937D03*
X0145260Y0080604D03*
X0156370Y0064826D03*
X0139700Y0106826D03*
D44*
X0128145Y0105270D03*
X0127035Y0103270D03*
X0126365Y0102159D03*
X0125255Y0099270D03*
X0123035Y0086159D03*
X0122365Y0085270D03*
X0121255Y0083270D03*
X0126145Y0084159D03*
X0127255Y0081270D03*
X0128145Y0079270D03*
X0129255Y0077270D03*
X0132145Y0072159D03*
X0124365Y0073270D03*
X0123925Y0074159D03*
X0123255Y0075270D03*
X0122365Y0077270D03*
X0121925Y0078159D03*
X0130145Y0083270D03*
X0137035Y0065270D03*
X0169255Y0072159D03*
X0171035Y0075270D03*
X0172145Y0077270D03*
X0173035Y0079270D03*
X0173925Y0081270D03*
X0174365Y0082159D03*
X0171255Y0084159D03*
X0178145Y0086159D03*
X0179925Y0083270D03*
X0176365Y0089270D03*
X0173035Y0098159D03*
X0175925Y0099270D03*
X0174145Y0103270D03*
X0173035Y0105270D03*
X0172365Y0106159D03*
X0159925Y0115270D03*
X0158365Y0119270D03*
X0157925Y0120159D03*
X0143255Y0120159D03*
X0141255Y0115270D03*
X0178365Y0076159D03*
X0177925Y0075270D03*
X0176145Y0072159D03*
X0174145Y0069270D03*
D45*
X0158590Y0080604D03*
X0167260Y0084826D03*
X0176810Y0087493D03*
X0169480Y0099715D03*
X0143260Y0091715D03*
X0135700Y0083937D03*
X0130810Y0083493D03*
X0125480Y0097048D03*
X0141030Y0117048D03*
X0154590Y0065493D03*
D46*
X0155810Y0079493D03*
X0159590Y0080826D03*
X0145590Y0079493D03*
X0132700Y0065715D03*
X0129810Y0067048D03*
X0140700Y0116604D03*
X0160700Y0116382D03*
D47*
X0161035Y0115937D03*
X0153255Y0065715D03*
D48*
X0167370Y0065715D03*
X0150700Y0078382D03*
D49*
X0133475Y0065937D03*
X0167925Y0065937D03*
D50*
X0150480Y0065937D03*
X0132480Y0066826D03*
D51*
X0133145Y0066159D03*
D52*
X0150370Y0066159D03*
D53*
X0168145Y0066159D03*
D54*
X0168365Y0066382D03*
X0168815Y0066826D03*
X0132815Y0066382D03*
D55*
X0150255Y0066382D03*
X0154925Y0079048D03*
X0150255Y0122604D03*
D56*
X0132590Y0066604D03*
X0168590Y0066604D03*
D57*
X0168590Y0071270D03*
X0174810Y0070159D03*
X0175480Y0071270D03*
X0176810Y0073270D03*
X0171480Y0076159D03*
X0172590Y0078159D03*
X0173480Y0080159D03*
X0175700Y0086159D03*
X0178810Y0085270D03*
X0179480Y0084159D03*
X0168810Y0086159D03*
X0174810Y0102159D03*
X0173700Y0104159D03*
X0142810Y0119270D03*
X0127480Y0104159D03*
X0126590Y0097270D03*
X0124810Y0096159D03*
X0124810Y0089270D03*
X0123700Y0087270D03*
X0121700Y0084159D03*
X0121480Y0079270D03*
X0122810Y0076159D03*
X0129700Y0076159D03*
X0130810Y0074159D03*
X0131480Y0073270D03*
X0132590Y0071270D03*
X0134810Y0068159D03*
X0135480Y0067270D03*
X0125700Y0071270D03*
X0132590Y0086159D03*
D58*
X0123700Y0074382D03*
X0123700Y0074604D03*
X0123480Y0074826D03*
X0123480Y0075048D03*
X0122590Y0076604D03*
X0121700Y0078604D03*
X0121700Y0078826D03*
X0120810Y0082382D03*
X0121480Y0083715D03*
X0121700Y0083937D03*
X0122590Y0085493D03*
X0122590Y0085715D03*
X0122810Y0085937D03*
X0123480Y0087048D03*
X0125480Y0086382D03*
X0126590Y0083048D03*
X0126810Y0082382D03*
X0127480Y0080826D03*
X0127700Y0080382D03*
X0128590Y0078382D03*
X0128810Y0077937D03*
X0129480Y0076826D03*
X0129480Y0076604D03*
X0129700Y0076382D03*
X0130810Y0074382D03*
X0131480Y0073048D03*
X0131700Y0072826D03*
X0131700Y0072604D03*
X0132810Y0071048D03*
X0134590Y0068382D03*
X0127480Y0068826D03*
X0126810Y0069715D03*
X0126590Y0069937D03*
X0125480Y0071715D03*
X0124810Y0072604D03*
X0124590Y0073048D03*
X0141480Y0078382D03*
X0150810Y0079715D03*
X0157480Y0090826D03*
X0173700Y0097715D03*
X0174810Y0097048D03*
X0175700Y0099937D03*
X0175480Y0100604D03*
X0174810Y0101937D03*
X0174590Y0102382D03*
X0174590Y0102604D03*
X0173480Y0104382D03*
X0173480Y0104604D03*
X0172810Y0105493D03*
X0172590Y0105937D03*
X0160590Y0112826D03*
X0158810Y0118382D03*
X0158590Y0118826D03*
X0158590Y0119048D03*
X0142810Y0119493D03*
X0142590Y0119048D03*
X0142590Y0118826D03*
X0141480Y0115937D03*
X0140810Y0113715D03*
X0140590Y0112826D03*
X0130590Y0108604D03*
X0129700Y0107493D03*
X0128590Y0105937D03*
X0127700Y0104604D03*
X0127700Y0104382D03*
X0126810Y0103048D03*
X0126810Y0102826D03*
X0126590Y0102604D03*
X0126590Y0102382D03*
X0125700Y0100604D03*
X0125480Y0099937D03*
X0127700Y0097937D03*
X0124810Y0089715D03*
X0124810Y0089493D03*
X0166810Y0068604D03*
X0168810Y0071493D03*
X0169480Y0072604D03*
X0169700Y0072826D03*
X0169700Y0073048D03*
X0174590Y0069937D03*
X0175480Y0071048D03*
X0175700Y0071493D03*
X0176590Y0072826D03*
X0176810Y0073048D03*
X0177480Y0074382D03*
X0177700Y0074604D03*
X0177700Y0074826D03*
X0178590Y0076382D03*
X0178590Y0076604D03*
X0178810Y0076826D03*
X0178810Y0077048D03*
X0179480Y0078604D03*
X0179700Y0079048D03*
X0179700Y0083715D03*
X0179480Y0083937D03*
X0178810Y0085048D03*
X0178590Y0085493D03*
X0177700Y0087048D03*
X0174810Y0083493D03*
X0174590Y0082826D03*
X0173700Y0080604D03*
X0172810Y0078826D03*
X0172810Y0078604D03*
X0172590Y0078382D03*
X0171700Y0076604D03*
X0171700Y0076382D03*
X0171480Y0075937D03*
X0173480Y0068382D03*
D59*
X0167590Y0070159D03*
X0143590Y0091270D03*
D60*
X0170590Y0087715D03*
X0150590Y0070604D03*
D61*
X0150480Y0070826D03*
X0150480Y0071048D03*
X0160700Y0077048D03*
X0162480Y0073048D03*
X0169810Y0075493D03*
X0170480Y0077715D03*
X0170700Y0078604D03*
X0171810Y0083937D03*
X0130700Y0087715D03*
X0130480Y0078382D03*
X0130700Y0077493D03*
D62*
X0132480Y0078159D03*
X0132700Y0077270D03*
X0132480Y0079270D03*
X0132260Y0080159D03*
X0132030Y0081270D03*
X0132030Y0082159D03*
X0134700Y0083270D03*
X0130260Y0086159D03*
X0134260Y0095270D03*
X0144480Y0092159D03*
X0144260Y0090159D03*
X0144480Y0089270D03*
X0156700Y0092159D03*
X0167810Y0097270D03*
X0168030Y0098159D03*
X0168260Y0099270D03*
X0166480Y0083270D03*
X0166480Y0082159D03*
X0166260Y0081270D03*
X0166030Y0080159D03*
X0168700Y0078159D03*
X0168480Y0077270D03*
X0168260Y0076159D03*
X0168030Y0075270D03*
X0167810Y0074159D03*
X0167590Y0073270D03*
X0141810Y0074159D03*
X0133810Y0072159D03*
X0134030Y0071270D03*
X0133590Y0073270D03*
D63*
X0130370Y0079270D03*
X0129920Y0081270D03*
X0129920Y0082159D03*
X0129920Y0084159D03*
X0131920Y0083270D03*
X0140370Y0078159D03*
X0140810Y0076159D03*
X0141920Y0076159D03*
X0142810Y0078159D03*
X0150370Y0071270D03*
X0159480Y0074159D03*
X0160370Y0076159D03*
X0160810Y0077270D03*
X0158370Y0078159D03*
X0170370Y0077270D03*
X0170810Y0079270D03*
X0171480Y0082159D03*
X0171480Y0085270D03*
D64*
X0169145Y0082159D03*
X0169145Y0081270D03*
X0167145Y0071270D03*
X0133145Y0075270D03*
X0133145Y0098159D03*
D65*
X0133145Y0098382D03*
X0135145Y0080604D03*
X0135145Y0080382D03*
X0133145Y0075715D03*
X0133145Y0075493D03*
X0133145Y0075048D03*
X0133145Y0074826D03*
X0157145Y0090382D03*
X0167145Y0095493D03*
X0169145Y0081937D03*
X0169145Y0081715D03*
X0169145Y0081493D03*
X0169145Y0081048D03*
X0169145Y0080826D03*
X0163145Y0073937D03*
X0167145Y0071493D03*
D66*
X0167255Y0071715D03*
X0170145Y0076382D03*
X0170145Y0076604D03*
X0171035Y0079715D03*
X0171035Y0079937D03*
X0171035Y0080382D03*
X0171255Y0080604D03*
X0171255Y0080826D03*
X0171255Y0081048D03*
X0169035Y0080604D03*
X0169255Y0082382D03*
X0169255Y0082604D03*
X0171255Y0085937D03*
X0171035Y0086382D03*
X0171035Y0086604D03*
X0161035Y0080604D03*
X0161035Y0080382D03*
X0161035Y0079937D03*
X0161035Y0079715D03*
X0161035Y0079493D03*
X0159255Y0076382D03*
X0158145Y0076382D03*
X0158145Y0076604D03*
X0158145Y0076826D03*
X0158145Y0077048D03*
X0158145Y0075937D03*
X0158145Y0075715D03*
X0158145Y0075493D03*
X0160145Y0075493D03*
X0160145Y0075048D03*
X0150145Y0073048D03*
X0150145Y0072826D03*
X0143035Y0075493D03*
X0143035Y0075715D03*
X0143035Y0075937D03*
X0143035Y0076382D03*
X0143035Y0076604D03*
X0143035Y0076826D03*
X0143035Y0077048D03*
X0143035Y0077493D03*
X0141035Y0075715D03*
X0141035Y0075493D03*
X0141255Y0075048D03*
X0141255Y0074826D03*
X0140145Y0079715D03*
X0140145Y0079937D03*
X0140145Y0080382D03*
X0132145Y0080826D03*
X0130145Y0080826D03*
X0130145Y0080604D03*
X0130145Y0080382D03*
X0130145Y0079937D03*
X0130145Y0079715D03*
X0130145Y0085048D03*
X0130145Y0085493D03*
X0130145Y0085715D03*
X0130145Y0085937D03*
D67*
X0136145Y0091493D03*
X0138145Y0088382D03*
X0140145Y0085715D03*
X0144145Y0090382D03*
X0144145Y0090604D03*
X0134145Y0095493D03*
X0154145Y0083715D03*
X0154145Y0083493D03*
X0156145Y0087493D03*
X0164145Y0089715D03*
X0164145Y0089937D03*
X0166145Y0093493D03*
X0168145Y0098382D03*
X0166145Y0080826D03*
X0166145Y0080604D03*
X0164145Y0075493D03*
X0150145Y0071937D03*
X0138145Y0073937D03*
X0136145Y0077493D03*
D68*
X0135370Y0079715D03*
X0134920Y0081493D03*
X0134920Y0081715D03*
X0134920Y0081937D03*
X0132920Y0084826D03*
X0132920Y0076826D03*
X0132920Y0076604D03*
X0132920Y0076382D03*
X0132920Y0075937D03*
X0133370Y0074604D03*
X0133370Y0074382D03*
X0133370Y0073937D03*
X0144920Y0087937D03*
X0156920Y0089715D03*
X0156920Y0089937D03*
X0166920Y0095048D03*
X0169370Y0083048D03*
X0169370Y0082826D03*
X0168920Y0080382D03*
X0168920Y0079937D03*
X0168920Y0079715D03*
X0168920Y0079493D03*
X0164920Y0077048D03*
X0162920Y0073715D03*
X0159370Y0076604D03*
X0159370Y0076826D03*
X0167370Y0072604D03*
X0167370Y0072382D03*
X0167370Y0071937D03*
X0133370Y0097493D03*
X0133370Y0097715D03*
X0132920Y0098826D03*
X0132920Y0099048D03*
X0132920Y0099493D03*
D69*
X0146145Y0085270D03*
X0148145Y0082159D03*
X0156145Y0087270D03*
X0156145Y0093270D03*
X0166145Y0093270D03*
X0136145Y0077270D03*
X0132145Y0084159D03*
X0150145Y0072159D03*
D70*
X0160920Y0079270D03*
X0165370Y0078159D03*
X0168920Y0079270D03*
X0168920Y0080159D03*
X0169370Y0083270D03*
X0167370Y0072159D03*
X0134920Y0081270D03*
X0134920Y0082159D03*
X0132920Y0076159D03*
X0133370Y0074159D03*
X0132920Y0099270D03*
X0167370Y0096159D03*
D71*
X0159255Y0075937D03*
X0163255Y0072826D03*
X0138145Y0072826D03*
D72*
X0138590Y0073270D03*
X0130590Y0078159D03*
X0162590Y0073270D03*
X0170590Y0078159D03*
X0171700Y0083270D03*
D73*
X0170035Y0076159D03*
X0160925Y0078159D03*
X0158255Y0077270D03*
X0158255Y0075270D03*
X0150255Y0073270D03*
X0144925Y0078159D03*
X0130925Y0076159D03*
D74*
X0130810Y0076826D03*
X0130810Y0077048D03*
X0130370Y0078604D03*
X0130370Y0078826D03*
X0130370Y0079048D03*
X0130370Y0079493D03*
X0129920Y0081048D03*
X0129920Y0081493D03*
X0129920Y0081715D03*
X0129920Y0081937D03*
X0129920Y0082382D03*
X0129920Y0082604D03*
X0129920Y0083715D03*
X0129920Y0083937D03*
X0129920Y0084382D03*
X0129920Y0084604D03*
X0129920Y0084826D03*
X0130370Y0086382D03*
X0130370Y0086604D03*
X0130370Y0086826D03*
X0131920Y0083048D03*
X0131920Y0082826D03*
X0132370Y0079493D03*
X0140370Y0077937D03*
X0140370Y0077715D03*
X0140370Y0077493D03*
X0140810Y0076382D03*
X0140810Y0075937D03*
X0141920Y0076382D03*
X0142810Y0077937D03*
X0142810Y0078382D03*
X0142810Y0078604D03*
X0144810Y0078604D03*
X0144810Y0078382D03*
X0142810Y0074382D03*
X0141480Y0074604D03*
X0156370Y0078382D03*
X0158370Y0078382D03*
X0158370Y0077937D03*
X0158370Y0077715D03*
X0158370Y0077493D03*
X0160810Y0077493D03*
X0160810Y0077715D03*
X0160810Y0077937D03*
X0160370Y0075937D03*
X0160370Y0075715D03*
X0159920Y0074826D03*
X0158370Y0074604D03*
X0158370Y0074382D03*
X0162810Y0073493D03*
X0169920Y0075715D03*
X0170370Y0077493D03*
X0170810Y0078826D03*
X0170810Y0079048D03*
X0171480Y0081715D03*
X0171480Y0081937D03*
X0171480Y0082382D03*
X0171480Y0082604D03*
X0171480Y0085493D03*
X0171480Y0085715D03*
X0170810Y0086826D03*
X0170370Y0087493D03*
D75*
X0174255Y0081937D03*
X0174035Y0081493D03*
X0180035Y0080382D03*
X0180255Y0080604D03*
X0180255Y0080826D03*
X0180255Y0081048D03*
X0180035Y0079937D03*
X0180255Y0082604D03*
X0162255Y0087048D03*
X0162035Y0086826D03*
X0160255Y0084604D03*
X0160035Y0084382D03*
X0158255Y0082604D03*
X0158035Y0082382D03*
X0156035Y0080604D03*
X0152255Y0081048D03*
X0152035Y0080826D03*
X0148255Y0081937D03*
X0144255Y0081493D03*
X0144035Y0081715D03*
X0142035Y0083493D03*
X0140255Y0085493D03*
X0140035Y0085937D03*
X0146035Y0085493D03*
X0146255Y0085048D03*
X0132035Y0086604D03*
X0126035Y0084604D03*
X0126035Y0084382D03*
X0126255Y0083937D03*
X0126255Y0083715D03*
X0128255Y0079048D03*
X0122255Y0077493D03*
X0122035Y0077937D03*
X0124035Y0073937D03*
X0142255Y0073937D03*
X0160255Y0093048D03*
X0176035Y0098604D03*
X0176035Y0098826D03*
X0176035Y0099048D03*
X0176255Y0098382D03*
X0176255Y0097937D03*
X0176255Y0097715D03*
X0160255Y0113937D03*
X0160255Y0114382D03*
X0160035Y0114826D03*
X0160035Y0115048D03*
X0140255Y0111715D03*
X0140255Y0111493D03*
X0140255Y0111048D03*
X0140255Y0110826D03*
X0140035Y0110382D03*
X0140035Y0109937D03*
X0140035Y0109715D03*
X0140035Y0109493D03*
X0140035Y0097937D03*
X0140035Y0097715D03*
X0140035Y0097493D03*
X0140035Y0097048D03*
X0140035Y0096826D03*
X0140035Y0096604D03*
X0140255Y0096382D03*
X0140255Y0095937D03*
X0140255Y0095715D03*
X0140255Y0095493D03*
D76*
X0144815Y0077937D03*
X0150365Y0073937D03*
X0156365Y0077715D03*
X0156365Y0077937D03*
D77*
X0159480Y0077270D03*
X0163920Y0075270D03*
X0164590Y0076159D03*
X0165030Y0077270D03*
X0165700Y0079270D03*
X0163260Y0074159D03*
X0168810Y0084159D03*
X0163030Y0088159D03*
X0162370Y0087270D03*
X0164370Y0090159D03*
X0165030Y0091270D03*
X0165480Y0092159D03*
X0166590Y0094159D03*
X0167030Y0095270D03*
X0160370Y0093270D03*
X0157030Y0090159D03*
X0156810Y0089270D03*
X0156370Y0088159D03*
X0155480Y0086159D03*
X0155030Y0085270D03*
X0153920Y0083270D03*
X0146810Y0084159D03*
X0145700Y0086159D03*
X0145260Y0087270D03*
X0144810Y0088159D03*
X0137480Y0089270D03*
X0135700Y0092159D03*
X0135260Y0093270D03*
X0134810Y0094159D03*
X0133920Y0096159D03*
X0133480Y0097270D03*
X0145030Y0093270D03*
X0145480Y0094159D03*
X0155700Y0094159D03*
X0161480Y0107270D03*
X0143480Y0082159D03*
X0141700Y0077270D03*
X0137260Y0075270D03*
X0136810Y0076159D03*
X0135920Y0078159D03*
X0135480Y0079270D03*
X0135260Y0080159D03*
X0137920Y0074159D03*
D78*
X0140480Y0077270D03*
X0142700Y0074159D03*
X0130700Y0077270D03*
X0156480Y0078159D03*
X0158480Y0074159D03*
X0169810Y0075270D03*
D79*
X0150365Y0074159D03*
D80*
X0159590Y0078159D03*
X0156920Y0081270D03*
X0157810Y0082159D03*
X0158920Y0083270D03*
X0159810Y0084159D03*
X0160700Y0085270D03*
X0161590Y0086159D03*
X0163810Y0089270D03*
X0160700Y0094159D03*
X0160920Y0095270D03*
X0160920Y0096159D03*
X0161370Y0098159D03*
X0161370Y0099270D03*
X0161590Y0100159D03*
X0161590Y0101270D03*
X0161590Y0102159D03*
X0161590Y0103270D03*
X0161590Y0104159D03*
X0161590Y0105270D03*
X0161590Y0106159D03*
X0161370Y0108159D03*
X0160920Y0111270D03*
X0160700Y0112159D03*
X0160480Y0113270D03*
X0158920Y0118159D03*
X0140920Y0114159D03*
X0140700Y0113270D03*
X0140480Y0112159D03*
X0139810Y0108159D03*
X0139810Y0107270D03*
X0139590Y0106159D03*
X0139590Y0105270D03*
X0139590Y0104159D03*
X0139590Y0103270D03*
X0139590Y0102159D03*
X0139590Y0101270D03*
X0139810Y0100159D03*
X0139810Y0099270D03*
X0139810Y0098159D03*
X0140480Y0095270D03*
X0140700Y0094159D03*
X0140920Y0093270D03*
X0136920Y0090159D03*
X0138920Y0087270D03*
X0139810Y0086159D03*
X0140480Y0085270D03*
X0141590Y0084159D03*
X0144480Y0081270D03*
X0147370Y0083270D03*
X0148920Y0081270D03*
X0152480Y0081270D03*
X0154480Y0084159D03*
X0141590Y0078159D03*
X0128700Y0078159D03*
X0127810Y0080159D03*
X0126920Y0082159D03*
X0126480Y0083270D03*
X0125810Y0085270D03*
X0125590Y0086159D03*
X0125370Y0087270D03*
X0124700Y0090159D03*
X0124700Y0091270D03*
X0124480Y0092159D03*
X0124480Y0093270D03*
X0124480Y0094159D03*
X0124480Y0095270D03*
X0124700Y0097270D03*
X0124920Y0098159D03*
X0125590Y0100159D03*
X0130920Y0087270D03*
X0120920Y0081270D03*
X0120700Y0082159D03*
X0174700Y0083270D03*
X0175370Y0085270D03*
X0176480Y0090159D03*
X0176480Y0091270D03*
X0176700Y0092159D03*
X0176700Y0093270D03*
X0176700Y0094159D03*
X0176700Y0095270D03*
X0176480Y0097270D03*
X0174480Y0097270D03*
X0175590Y0100159D03*
X0180480Y0082159D03*
X0179810Y0079270D03*
X0179370Y0078159D03*
X0178920Y0077270D03*
X0177370Y0074159D03*
D81*
X0170590Y0077937D03*
X0170590Y0078382D03*
X0171700Y0082826D03*
X0171700Y0083048D03*
X0171700Y0083493D03*
X0171700Y0083715D03*
X0171700Y0085048D03*
X0160590Y0076826D03*
X0160590Y0076604D03*
X0160590Y0076382D03*
X0159700Y0074382D03*
X0158590Y0078826D03*
X0156590Y0078826D03*
X0156590Y0078604D03*
X0140590Y0077048D03*
X0140590Y0076826D03*
X0140590Y0076604D03*
X0130590Y0077715D03*
X0130590Y0077937D03*
X0132590Y0100604D03*
D82*
X0130145Y0085270D03*
X0130145Y0080159D03*
X0140145Y0080159D03*
X0143035Y0077270D03*
X0143035Y0076159D03*
X0143035Y0075270D03*
X0141035Y0075270D03*
X0158145Y0076159D03*
X0159255Y0076159D03*
X0160145Y0075270D03*
X0161035Y0080159D03*
X0171035Y0080159D03*
X0171255Y0081270D03*
X0171255Y0086159D03*
D83*
X0175145Y0084382D03*
X0173145Y0079493D03*
X0179145Y0077715D03*
X0171145Y0075493D03*
X0159145Y0083493D03*
X0157145Y0081493D03*
X0161145Y0085715D03*
X0163145Y0088382D03*
X0165145Y0091493D03*
X0161145Y0096382D03*
X0161145Y0096604D03*
X0161145Y0096826D03*
X0161145Y0097048D03*
X0161145Y0097493D03*
X0161145Y0097715D03*
X0161145Y0109493D03*
X0161145Y0109715D03*
X0161145Y0109937D03*
X0161145Y0110382D03*
X0161145Y0110604D03*
X0141145Y0114604D03*
X0141145Y0114826D03*
X0141145Y0115048D03*
X0125145Y0099048D03*
X0125145Y0098826D03*
X0125145Y0098604D03*
X0141145Y0084604D03*
X0143145Y0082382D03*
X0127145Y0081715D03*
X0127145Y0081493D03*
X0121145Y0080604D03*
X0121145Y0080382D03*
D84*
X0120920Y0080826D03*
X0120920Y0081048D03*
X0120920Y0081493D03*
X0120920Y0081715D03*
X0120700Y0081937D03*
X0120920Y0082604D03*
X0125810Y0085048D03*
X0125810Y0085493D03*
X0125590Y0085715D03*
X0125590Y0085937D03*
X0125370Y0086604D03*
X0125370Y0086826D03*
X0125370Y0087048D03*
X0124700Y0089937D03*
X0124700Y0090382D03*
X0124700Y0090604D03*
X0124700Y0090826D03*
X0124700Y0091048D03*
X0124700Y0091493D03*
X0124700Y0091715D03*
X0124480Y0092382D03*
X0124480Y0092604D03*
X0124480Y0092826D03*
X0124480Y0093048D03*
X0124480Y0093493D03*
X0124480Y0093715D03*
X0124480Y0093937D03*
X0124480Y0094382D03*
X0124480Y0094604D03*
X0124480Y0094826D03*
X0124480Y0095048D03*
X0124700Y0095715D03*
X0124700Y0095937D03*
X0124920Y0097493D03*
X0124920Y0097715D03*
X0124920Y0097937D03*
X0125370Y0099493D03*
X0125370Y0099715D03*
X0125590Y0100382D03*
X0125810Y0100826D03*
X0126920Y0097493D03*
X0139810Y0098382D03*
X0139810Y0098604D03*
X0139810Y0098826D03*
X0139810Y0099048D03*
X0139810Y0099493D03*
X0139810Y0099715D03*
X0139810Y0099937D03*
X0139810Y0100382D03*
X0139590Y0100604D03*
X0139590Y0100826D03*
X0139590Y0101048D03*
X0139590Y0101493D03*
X0139590Y0101715D03*
X0139590Y0101937D03*
X0139590Y0102382D03*
X0139590Y0102604D03*
X0139590Y0102826D03*
X0139590Y0103048D03*
X0139590Y0103493D03*
X0139590Y0103715D03*
X0139590Y0103937D03*
X0139590Y0104382D03*
X0139590Y0104604D03*
X0139590Y0104826D03*
X0139590Y0105048D03*
X0139590Y0105493D03*
X0139590Y0105715D03*
X0139590Y0105937D03*
X0139590Y0106382D03*
X0139590Y0106604D03*
X0139810Y0107048D03*
X0139810Y0107493D03*
X0139810Y0107715D03*
X0139810Y0107937D03*
X0139810Y0108382D03*
X0139810Y0108604D03*
X0139810Y0108826D03*
X0139810Y0109048D03*
X0140480Y0111937D03*
X0140480Y0112382D03*
X0140480Y0112604D03*
X0140700Y0113048D03*
X0140700Y0113493D03*
X0140920Y0113937D03*
X0140920Y0114382D03*
X0141370Y0115493D03*
X0141370Y0115715D03*
X0142480Y0118604D03*
X0158700Y0118604D03*
X0159810Y0115715D03*
X0159810Y0115493D03*
X0160480Y0113493D03*
X0160480Y0113048D03*
X0160700Y0112604D03*
X0160700Y0112382D03*
X0160700Y0111937D03*
X0160920Y0111715D03*
X0160920Y0111493D03*
X0160920Y0111048D03*
X0160920Y0110826D03*
X0161370Y0109048D03*
X0161370Y0108826D03*
X0161370Y0108604D03*
X0161370Y0108382D03*
X0161370Y0107937D03*
X0161370Y0107715D03*
X0161370Y0107493D03*
X0161590Y0107048D03*
X0161590Y0106826D03*
X0161590Y0106604D03*
X0161590Y0106382D03*
X0161590Y0105937D03*
X0161590Y0105715D03*
X0161590Y0105493D03*
X0161590Y0105048D03*
X0161590Y0104826D03*
X0161590Y0104604D03*
X0161590Y0104382D03*
X0161590Y0103937D03*
X0161590Y0103715D03*
X0161590Y0103493D03*
X0161590Y0103048D03*
X0161590Y0102826D03*
X0161590Y0102604D03*
X0161590Y0102382D03*
X0161590Y0101937D03*
X0161590Y0101715D03*
X0161590Y0101493D03*
X0161590Y0101048D03*
X0161590Y0100826D03*
X0161590Y0100604D03*
X0161590Y0100382D03*
X0161370Y0099715D03*
X0161370Y0099493D03*
X0161370Y0099048D03*
X0161370Y0098826D03*
X0161370Y0098604D03*
X0161370Y0098382D03*
X0161370Y0097937D03*
X0160920Y0095937D03*
X0160920Y0095715D03*
X0160920Y0095493D03*
X0160700Y0095048D03*
X0160700Y0094826D03*
X0160700Y0094604D03*
X0160700Y0094382D03*
X0160480Y0093937D03*
X0160480Y0093715D03*
X0160480Y0093493D03*
X0164480Y0090382D03*
X0163370Y0088604D03*
X0162920Y0087937D03*
X0162700Y0087715D03*
X0162480Y0087493D03*
X0161810Y0086604D03*
X0161370Y0085937D03*
X0160920Y0085493D03*
X0160480Y0084826D03*
X0159590Y0083937D03*
X0159370Y0083715D03*
X0158700Y0083048D03*
X0158480Y0082826D03*
X0157590Y0081937D03*
X0157370Y0081715D03*
X0156700Y0081048D03*
X0155810Y0080382D03*
X0152920Y0081937D03*
X0153590Y0082826D03*
X0153810Y0083048D03*
X0151810Y0080604D03*
X0149590Y0080604D03*
X0148700Y0081493D03*
X0148480Y0081715D03*
X0147810Y0082604D03*
X0146920Y0083937D03*
X0144700Y0081048D03*
X0144920Y0080826D03*
X0143810Y0081937D03*
X0142920Y0082604D03*
X0142700Y0082826D03*
X0142480Y0083048D03*
X0141810Y0083715D03*
X0141590Y0083937D03*
X0141370Y0084382D03*
X0140920Y0084826D03*
X0140700Y0085048D03*
X0139590Y0086382D03*
X0139370Y0086604D03*
X0138700Y0087493D03*
X0137810Y0088826D03*
X0137370Y0089493D03*
X0140700Y0093493D03*
X0140700Y0093715D03*
X0140700Y0093937D03*
X0140480Y0094382D03*
X0140480Y0094604D03*
X0140480Y0094826D03*
X0140480Y0095048D03*
X0143810Y0090826D03*
X0155370Y0094604D03*
X0169370Y0086604D03*
X0169590Y0086826D03*
X0171590Y0084382D03*
X0174700Y0083048D03*
X0174480Y0082604D03*
X0174480Y0082382D03*
X0174920Y0083715D03*
X0175370Y0084826D03*
X0175370Y0085048D03*
X0175590Y0085493D03*
X0175590Y0085715D03*
X0175590Y0085937D03*
X0175810Y0086382D03*
X0175810Y0086604D03*
X0175810Y0086826D03*
X0176480Y0089493D03*
X0176480Y0089715D03*
X0176480Y0089937D03*
X0176480Y0090382D03*
X0176480Y0090604D03*
X0176480Y0090826D03*
X0176480Y0091048D03*
X0176700Y0091715D03*
X0176700Y0091937D03*
X0176700Y0092382D03*
X0176700Y0092604D03*
X0176700Y0092826D03*
X0176700Y0093048D03*
X0176700Y0093493D03*
X0176700Y0093715D03*
X0176700Y0093937D03*
X0176700Y0094382D03*
X0176700Y0094604D03*
X0176700Y0094826D03*
X0176700Y0095048D03*
X0176700Y0095493D03*
X0176480Y0095937D03*
X0176480Y0097048D03*
X0175810Y0099493D03*
X0175810Y0099715D03*
X0175590Y0100382D03*
X0175370Y0100826D03*
X0174920Y0101715D03*
X0173810Y0103937D03*
X0179810Y0083493D03*
X0180480Y0081937D03*
X0180480Y0081715D03*
X0179810Y0079493D03*
X0179590Y0078826D03*
X0179370Y0078382D03*
X0173810Y0080826D03*
X0173590Y0080382D03*
X0173370Y0079937D03*
X0172920Y0079048D03*
X0159590Y0077937D03*
X0128920Y0077715D03*
X0128480Y0078604D03*
X0127590Y0080604D03*
X0127370Y0081048D03*
X0126700Y0082604D03*
X0126700Y0082826D03*
X0121370Y0079715D03*
X0121370Y0079493D03*
X0121590Y0079048D03*
X0121810Y0078382D03*
X0122480Y0076826D03*
X0122700Y0076382D03*
X0122920Y0075937D03*
D85*
X0150815Y0077937D03*
X0155925Y0121048D03*
D86*
X0150700Y0078159D03*
D87*
X0153035Y0078604D03*
X0156145Y0079715D03*
X0144815Y0079937D03*
X0140365Y0116382D03*
X0144815Y0121048D03*
D88*
X0147700Y0078826D03*
X0153700Y0078826D03*
D89*
X0146480Y0079048D03*
D90*
X0146035Y0079270D03*
X0155365Y0079270D03*
X0160925Y0116159D03*
X0140255Y0116159D03*
D91*
X0145255Y0079715D03*
D92*
X0157370Y0079937D03*
D93*
X0153145Y0082159D03*
X0161145Y0097270D03*
X0175145Y0101270D03*
X0161145Y0109270D03*
X0161145Y0110159D03*
X0175145Y0084159D03*
X0121145Y0080159D03*
D94*
X0143810Y0080159D03*
D95*
X0150700Y0080159D03*
D96*
X0157480Y0080159D03*
D97*
X0170255Y0087270D03*
X0180255Y0081270D03*
X0180035Y0080159D03*
X0176255Y0098159D03*
X0160255Y0114159D03*
X0142255Y0118159D03*
X0140255Y0111270D03*
X0140035Y0110159D03*
X0140035Y0109270D03*
X0126035Y0101270D03*
X0136255Y0091270D03*
X0138255Y0088159D03*
X0142255Y0083270D03*
X0140255Y0096159D03*
X0140035Y0097270D03*
D98*
X0143700Y0080382D03*
D99*
X0141260Y0081270D03*
X0147030Y0095270D03*
X0176810Y0087270D03*
D100*
X0160145Y0081270D03*
X0138145Y0115270D03*
D101*
X0132035Y0100159D03*
X0142255Y0092159D03*
X0159145Y0092159D03*
X0164035Y0083270D03*
D102*
X0124370Y0087493D03*
D103*
X0153700Y0095270D03*
D104*
X0150590Y0095493D03*
D105*
X0150480Y0095715D03*
D106*
X0150365Y0095937D03*
D107*
X0171590Y0107270D03*
X0129590Y0107270D03*
X0128700Y0106159D03*
D108*
X0141370Y0117270D03*
X0162920Y0115270D03*
D109*
X0145925Y0121270D03*
D110*
X0154480Y0121270D03*
D111*
X0150475Y0121493D03*
D112*
X0150480Y0121715D03*
D113*
X0150365Y0121937D03*
D114*
X0150365Y0122159D03*
D115*
X0150370Y0122382D03*
D116*
X0043270Y0173615D02*
X0042319Y0172664D01*
X0040417Y0172664D01*
X0039467Y0173615D01*
X0039467Y0175516D01*
X0041368Y0175516D01*
X0043270Y0177418D02*
X0043270Y0173615D01*
X0043270Y0177418D02*
X0042319Y0178369D01*
X0040417Y0178369D01*
X0039467Y0177418D01*
X0037193Y0178369D02*
X0033389Y0172664D01*
X0033389Y0178369D01*
X0031115Y0178369D02*
X0028263Y0178369D01*
X0027312Y0177418D01*
X0027312Y0173615D01*
X0028263Y0172664D01*
X0031115Y0172664D01*
X0031115Y0178369D01*
X0037193Y0178369D02*
X0037193Y0172664D01*
X0301729Y0187835D02*
X0301729Y0191639D01*
X0302680Y0192589D01*
X0305532Y0192589D01*
X0305532Y0186885D01*
X0302680Y0186885D01*
X0301729Y0187835D01*
X0307806Y0186885D02*
X0307806Y0192589D01*
X0311610Y0192589D02*
X0307806Y0186885D01*
X0311610Y0186885D02*
X0311610Y0192589D01*
X0313884Y0191639D02*
X0314834Y0192589D01*
X0316736Y0192589D01*
X0317687Y0191639D01*
X0317687Y0187835D01*
X0316736Y0186885D01*
X0314834Y0186885D01*
X0313884Y0187835D01*
X0313884Y0189737D01*
X0315785Y0189737D01*
D117*
X0178140Y0186591D02*
X0178140Y0176370D01*
X0089482Y0176370D01*
X0089482Y0186591D01*
X0178140Y0186591D01*
M02*
